<svg width="80" height="140" viewBox="0 0 80 140" fill="none" xmlns="http://www.w3.org/2000/svg">
<g clip-path="url(#clip0_1_280)">
<path d="M40 140.014V125.008" stroke="#D5BF75" stroke-linecap="round" stroke-linejoin="round"/>
<path d="M47.8048 140.014V125.008" stroke="#D5BF75" stroke-linecap="round" stroke-linejoin="round"/>
<path d="M55.6097 140.014V122.376" stroke="#D5BF75" stroke-linecap="round" stroke-linejoin="round"/>
<path d="M63.4146 140.014V117.496" stroke="#D5BF75" stroke-linecap="round" stroke-linejoin="round"/>
<path d="M71.2195 140.014V109.52" stroke="#D5BF75" stroke-linecap="round" stroke-linejoin="round"/>
<path d="M79.0244 140.014V91.369" stroke="#D5BF75" stroke-width="2" stroke-linecap="round" stroke-linejoin="round"/>
<path d="M8.78052 140.014V109.52" stroke="#D5BF75" stroke-linecap="round" stroke-linejoin="round"/>
<path d="M0.975586 140.014V91.369" stroke="#D5BF75" stroke-width="2" stroke-linecap="round" stroke-linejoin="round"/>
<path d="M16.5853 140.014V117.496" stroke="#D5BF75" stroke-linecap="round" stroke-linejoin="round"/>
<path d="M24.3903 140.014V122.376" stroke="#D5BF75" stroke-linecap="round" stroke-linejoin="round"/>
<path d="M32.1951 140.014V125.008" stroke="#D5BF75" stroke-linecap="round" stroke-linejoin="round"/>
<path d="M40 -0.0140381V26.024" stroke="#D5BF75" stroke-linecap="round" stroke-linejoin="round"/>
<path d="M47.8048 -0.0140381V26.024" stroke="#D5BF75" stroke-linecap="round" stroke-linejoin="round"/>
<path d="M55.6097 -0.0140381V28.6564" stroke="#D5BF75" stroke-linecap="round" stroke-linejoin="round"/>
<path d="M63.4146 -0.0140381V33.5367" stroke="#D5BF75" stroke-linecap="round" stroke-linejoin="round"/>
<path d="M71.2195 -0.0140381V41.5029" stroke="#D5BF75" stroke-linecap="round" stroke-linejoin="round"/>
<path d="M79.0244 -0.0140381V59.6536" stroke="#D5BF75" stroke-width="2" stroke-linecap="round" stroke-linejoin="round"/>
<path d="M8.78052 -0.0140381V41.5029" stroke="#D5BF75" stroke-linecap="round" stroke-linejoin="round"/>
<path d="M0.975586 -0.0140381V59.6536" stroke="#D5BF75" stroke-width="2" stroke-linecap="round" stroke-linejoin="round"/>
<path d="M16.5853 -0.0140381V33.5367" stroke="#D5BF75" stroke-linecap="round" stroke-linejoin="round"/>
<path d="M24.3903 -0.0140381V28.6564" stroke="#D5BF75" stroke-linecap="round" stroke-linejoin="round"/>
<path d="M32.1951 -0.0140381V26.024" stroke="#D5BF75" stroke-linecap="round" stroke-linejoin="round"/>
</g>
<defs>
<clipPath id="clip0_1_280">
<rect width="80" height="140" fill="white"/>
</clipPath>
</defs>
</svg>
