<svg width="80" height="650" viewBox="0 0 80 650" fill="none" xmlns="http://www.w3.org/2000/svg">
<g clip-path="url(#clip0_1_48)">
<path d="M40 649.5C39.7268 649.5 39.5122 649.28 39.5122 649V34.9C39.5122 34.62 39.7268 34.4 40 34.4C40.2732 34.4 40.4878 34.62 40.4878 34.9V649C40.4878 649.28 40.2732 649.5 40 649.5Z" fill="url(#paint0_linear_1_48)"/>
<path d="M47.8048 649.5C47.5317 649.5 47.317 649.28 47.317 649V34.9C47.317 34.62 47.5317 34.4 47.8048 34.4C48.078 34.4 48.2926 34.62 48.2926 34.9V649C48.2926 649.28 48.078 649.5 47.8048 649.5Z" fill="url(#paint1_linear_1_48)"/>
<path d="M55.6098 649.5C55.3366 649.5 55.1219 649.28 55.1219 649V32.25C55.1219 31.97 55.3366 31.75 55.6098 31.75C55.8829 31.75 56.0976 31.97 56.0976 32.25V649C56.0976 649.28 55.8829 649.5 55.6098 649.5Z" fill="url(#paint2_linear_1_48)"/>
<path d="M63.4147 649.5C63.1415 649.5 62.9269 649.28 62.9269 649V27.33C62.9269 27.05 63.1415 26.83 63.4147 26.83C63.6879 26.83 63.9025 27.05 63.9025 27.33V649C63.9025 649.28 63.6879 649.5 63.4147 649.5Z" fill="url(#paint3_linear_1_48)"/>
<path d="M71.2195 649.5C70.9463 649.5 70.7317 649.28 70.7317 649V19.29C70.7317 19.01 70.9463 18.79 71.2195 18.79C71.4927 18.79 71.7073 19.01 71.7073 19.29V649C71.7073 649.28 71.4927 649.5 71.2195 649.5Z" fill="url(#paint4_linear_1_48)"/>
<path d="M79.0244 650C78.4879 650 78.0488 649.55 78.0488 649V1C78.0488 0.45 78.4879 0 79.0244 0C79.561 0 80 0.45 80 1V649C80 649.55 79.561 650 79.0244 650Z" fill="url(#paint5_linear_1_48)"/>
<path d="M8.78053 649.5C8.50736 649.5 8.29272 649.28 8.29272 649V19.29C8.29272 19.01 8.50736 18.79 8.78053 18.79C9.0537 18.79 9.26833 19.01 9.26833 19.29V649C9.26833 649.28 9.0537 649.5 8.78053 649.5Z" fill="url(#paint6_linear_1_48)"/>
<path d="M0.97561 650C0.439024 650 0 649.55 0 649V1C0 0.45 0.439024 0 0.97561 0C1.5122 0 1.95122 0.45 1.95122 1V649C1.95122 649.55 1.5122 650 0.97561 650Z" fill="url(#paint7_linear_1_48)"/>
<path d="M16.5853 649.5C16.3122 649.5 16.0975 649.28 16.0975 649V27.33C16.0975 27.05 16.3122 26.83 16.5853 26.83C16.8585 26.83 17.0731 27.05 17.0731 27.33V649C17.0731 649.28 16.8585 649.5 16.5853 649.5Z" fill="url(#paint8_linear_1_48)"/>
<path d="M24.3903 649.5C24.1171 649.5 23.9025 649.28 23.9025 649V32.25C23.9025 31.97 24.1171 31.75 24.3903 31.75C24.6634 31.75 24.8781 31.97 24.8781 32.25V649C24.8781 649.28 24.6634 649.5 24.3903 649.5Z" fill="url(#paint9_linear_1_48)"/>
<path d="M32.1951 649.5C31.9219 649.5 31.7073 649.28 31.7073 649V34.9C31.7073 34.62 31.9219 34.4 32.1951 34.4C32.4683 34.4 32.6829 34.62 32.6829 34.9V649C32.6829 649.28 32.4683 649.5 32.1951 649.5Z" fill="url(#paint10_linear_1_48)"/>
</g>
<defs>
<linearGradient id="paint0_linear_1_48" x1="40" y1="35.8" x2="40" y2="645.95" gradientUnits="userSpaceOnUse">
<stop stop-color="#D5BF75"/>
<stop offset="0.37" stop-color="#D5BF75"/>
<stop offset="0.46" stop-color="#587D8C"/>
<stop offset="0.69" stop-color="#587D8C"/>
<stop offset="0.71" stop-color="#587D8C" stop-opacity="0.88"/>
<stop offset="0.77" stop-color="#587D8C" stop-opacity="0.57"/>
<stop offset="0.82" stop-color="#587D8C" stop-opacity="0.32"/>
<stop offset="0.88" stop-color="#587D8C" stop-opacity="0.14"/>
<stop offset="0.93" stop-color="#587D8C" stop-opacity="0.04"/>
<stop offset="0.97" stop-color="#587D8C" stop-opacity="0"/>
</linearGradient>
<linearGradient id="paint1_linear_1_48" x1="47.8048" y1="35.8" x2="47.8048" y2="645.95" gradientUnits="userSpaceOnUse">
<stop stop-color="#D5BF75"/>
<stop offset="0.37" stop-color="#D5BF75"/>
<stop offset="0.46" stop-color="#587D8C"/>
<stop offset="0.69" stop-color="#587D8C"/>
<stop offset="0.71" stop-color="#587D8C" stop-opacity="0.88"/>
<stop offset="0.77" stop-color="#587D8C" stop-opacity="0.57"/>
<stop offset="0.82" stop-color="#587D8C" stop-opacity="0.32"/>
<stop offset="0.88" stop-color="#587D8C" stop-opacity="0.14"/>
<stop offset="0.93" stop-color="#587D8C" stop-opacity="0.04"/>
<stop offset="0.97" stop-color="#587D8C" stop-opacity="0"/>
</linearGradient>
<linearGradient id="paint2_linear_1_48" x1="55.6097" y1="35.43" x2="55.6097" y2="645.95" gradientUnits="userSpaceOnUse">
<stop stop-color="#D5BF75"/>
<stop offset="0.37" stop-color="#D5BF75"/>
<stop offset="0.46" stop-color="#587D8C"/>
<stop offset="0.69" stop-color="#587D8C"/>
<stop offset="0.71" stop-color="#587D8C" stop-opacity="0.88"/>
<stop offset="0.77" stop-color="#587D8C" stop-opacity="0.57"/>
<stop offset="0.82" stop-color="#587D8C" stop-opacity="0.32"/>
<stop offset="0.88" stop-color="#587D8C" stop-opacity="0.14"/>
<stop offset="0.93" stop-color="#587D8C" stop-opacity="0.04"/>
<stop offset="0.97" stop-color="#587D8C" stop-opacity="0"/>
</linearGradient>
<linearGradient id="paint3_linear_1_48" x1="63.4147" y1="34.75" x2="63.4147" y2="645.94" gradientUnits="userSpaceOnUse">
<stop stop-color="#D5BF75"/>
<stop offset="0.37" stop-color="#D5BF75"/>
<stop offset="0.46" stop-color="#587D8C"/>
<stop offset="0.69" stop-color="#587D8C"/>
<stop offset="0.71" stop-color="#587D8C" stop-opacity="0.88"/>
<stop offset="0.77" stop-color="#587D8C" stop-opacity="0.57"/>
<stop offset="0.82" stop-color="#587D8C" stop-opacity="0.32"/>
<stop offset="0.88" stop-color="#587D8C" stop-opacity="0.14"/>
<stop offset="0.93" stop-color="#587D8C" stop-opacity="0.04"/>
<stop offset="0.97" stop-color="#587D8C" stop-opacity="0"/>
</linearGradient>
<linearGradient id="paint4_linear_1_48" x1="71.2195" y1="33.67" x2="71.2195" y2="645.94" gradientUnits="userSpaceOnUse">
<stop stop-color="#D5BF75"/>
<stop offset="0.37" stop-color="#D5BF75"/>
<stop offset="0.46" stop-color="#587D8C"/>
<stop offset="0.69" stop-color="#587D8C"/>
<stop offset="0.71" stop-color="#587D8C" stop-opacity="0.88"/>
<stop offset="0.77" stop-color="#587D8C" stop-opacity="0.57"/>
<stop offset="0.82" stop-color="#587D8C" stop-opacity="0.32"/>
<stop offset="0.88" stop-color="#587D8C" stop-opacity="0.14"/>
<stop offset="0.93" stop-color="#587D8C" stop-opacity="0.04"/>
<stop offset="0.97" stop-color="#587D8C" stop-opacity="0"/>
</linearGradient>
<linearGradient id="paint5_linear_1_48" x1="79.0244" y1="31.23" x2="79.0244" y2="645.99" gradientUnits="userSpaceOnUse">
<stop stop-color="#D5BF75"/>
<stop offset="0.37" stop-color="#D5BF75"/>
<stop offset="0.46" stop-color="#587D8C"/>
<stop offset="0.69" stop-color="#587D8C"/>
<stop offset="0.71" stop-color="#587D8C" stop-opacity="0.88"/>
<stop offset="0.77" stop-color="#587D8C" stop-opacity="0.57"/>
<stop offset="0.82" stop-color="#587D8C" stop-opacity="0.32"/>
<stop offset="0.88" stop-color="#587D8C" stop-opacity="0.14"/>
<stop offset="0.93" stop-color="#587D8C" stop-opacity="0.04"/>
<stop offset="0.97" stop-color="#587D8C" stop-opacity="0"/>
</linearGradient>
<linearGradient id="paint6_linear_1_48" x1="8.78054" y1="33.67" x2="8.78054" y2="645.94" gradientUnits="userSpaceOnUse">
<stop stop-color="#D5BF75"/>
<stop offset="0.37" stop-color="#D5BF75"/>
<stop offset="0.46" stop-color="#587D8C"/>
<stop offset="0.69" stop-color="#587D8C"/>
<stop offset="0.71" stop-color="#587D8C" stop-opacity="0.88"/>
<stop offset="0.77" stop-color="#587D8C" stop-opacity="0.57"/>
<stop offset="0.82" stop-color="#587D8C" stop-opacity="0.32"/>
<stop offset="0.88" stop-color="#587D8C" stop-opacity="0.14"/>
<stop offset="0.93" stop-color="#587D8C" stop-opacity="0.04"/>
<stop offset="0.97" stop-color="#587D8C" stop-opacity="0"/>
</linearGradient>
<linearGradient id="paint7_linear_1_48" x1="0.975621" y1="31.23" x2="0.975621" y2="645.99" gradientUnits="userSpaceOnUse">
<stop stop-color="#D5BF75"/>
<stop offset="0.37" stop-color="#D5BF75"/>
<stop offset="0.46" stop-color="#587D8C"/>
<stop offset="0.69" stop-color="#587D8C"/>
<stop offset="0.71" stop-color="#587D8C" stop-opacity="0.88"/>
<stop offset="0.77" stop-color="#587D8C" stop-opacity="0.57"/>
<stop offset="0.82" stop-color="#587D8C" stop-opacity="0.32"/>
<stop offset="0.88" stop-color="#587D8C" stop-opacity="0.14"/>
<stop offset="0.93" stop-color="#587D8C" stop-opacity="0.04"/>
<stop offset="0.97" stop-color="#587D8C" stop-opacity="0"/>
</linearGradient>
<linearGradient id="paint8_linear_1_48" x1="16.5853" y1="34.75" x2="16.5853" y2="645.94" gradientUnits="userSpaceOnUse">
<stop stop-color="#D5BF75"/>
<stop offset="0.37" stop-color="#D5BF75"/>
<stop offset="0.46" stop-color="#587D8C"/>
<stop offset="0.69" stop-color="#587D8C"/>
<stop offset="0.71" stop-color="#587D8C" stop-opacity="0.88"/>
<stop offset="0.77" stop-color="#587D8C" stop-opacity="0.57"/>
<stop offset="0.82" stop-color="#587D8C" stop-opacity="0.32"/>
<stop offset="0.88" stop-color="#587D8C" stop-opacity="0.14"/>
<stop offset="0.93" stop-color="#587D8C" stop-opacity="0.04"/>
<stop offset="0.97" stop-color="#587D8C" stop-opacity="0"/>
</linearGradient>
<linearGradient id="paint9_linear_1_48" x1="24.3903" y1="35.43" x2="24.3903" y2="645.95" gradientUnits="userSpaceOnUse">
<stop stop-color="#D5BF75"/>
<stop offset="0.37" stop-color="#D5BF75"/>
<stop offset="0.46" stop-color="#587D8C"/>
<stop offset="0.69" stop-color="#587D8C"/>
<stop offset="0.71" stop-color="#587D8C" stop-opacity="0.88"/>
<stop offset="0.77" stop-color="#587D8C" stop-opacity="0.57"/>
<stop offset="0.82" stop-color="#587D8C" stop-opacity="0.32"/>
<stop offset="0.88" stop-color="#587D8C" stop-opacity="0.14"/>
<stop offset="0.93" stop-color="#587D8C" stop-opacity="0.04"/>
<stop offset="0.97" stop-color="#587D8C" stop-opacity="0"/>
</linearGradient>
<linearGradient id="paint10_linear_1_48" x1="32.1951" y1="35.8" x2="32.1951" y2="645.95" gradientUnits="userSpaceOnUse">
<stop stop-color="#D5BF75"/>
<stop offset="0.37" stop-color="#D5BF75"/>
<stop offset="0.46" stop-color="#587D8C"/>
<stop offset="0.69" stop-color="#587D8C"/>
<stop offset="0.71" stop-color="#587D8C" stop-opacity="0.88"/>
<stop offset="0.77" stop-color="#587D8C" stop-opacity="0.57"/>
<stop offset="0.82" stop-color="#587D8C" stop-opacity="0.32"/>
<stop offset="0.88" stop-color="#587D8C" stop-opacity="0.14"/>
<stop offset="0.93" stop-color="#587D8C" stop-opacity="0.04"/>
<stop offset="0.97" stop-color="#587D8C" stop-opacity="0"/>
</linearGradient>
<clipPath id="clip0_1_48">
<rect width="80" height="650" fill="white"/>
</clipPath>
</defs>
</svg>
