<svg width="580" height="60" viewBox="0 0 580 60" fill="none" xmlns="http://www.w3.org/2000/svg">
<g clip-path="url(#clip0_1_214)">
<path d="M0.499146 30H164.766" stroke="white" stroke-width="0.5" stroke-linecap="round" stroke-linejoin="round"/>
<path d="M0.499146 35.9017H164.766" stroke="white" stroke-width="0.5" stroke-linecap="round" stroke-linejoin="round"/>
<path d="M0.499146 41.8033H166.054" stroke="white" stroke-width="0.5" stroke-linecap="round" stroke-linejoin="round"/>
<path d="M0.499146 47.705H168.46" stroke="white" stroke-width="0.5" stroke-linecap="round" stroke-linejoin="round"/>
<path d="M0.499146 53.6066H172.373" stroke="white" stroke-width="0.5" stroke-linecap="round" stroke-linejoin="round"/>
<path d="M0.499146 59.5082H185.181" stroke="white" stroke-linecap="round" stroke-linejoin="round"/>
<path d="M0.499146 6.39343H172.373" stroke="white" stroke-width="0.5" stroke-linecap="round" stroke-linejoin="round"/>
<path d="M0.499146 0.491821H185.181" stroke="white" stroke-linecap="round" stroke-linejoin="round"/>
<path d="M0.499146 12.2951H168.46" stroke="white" stroke-width="0.5" stroke-linecap="round" stroke-linejoin="round"/>
<path d="M0.499146 18.1967H166.054" stroke="white" stroke-width="0.5" stroke-linecap="round" stroke-linejoin="round"/>
<path d="M0.499146 24.0984H164.766" stroke="white" stroke-width="0.5" stroke-linecap="round" stroke-linejoin="round"/>
<path d="M579.501 30H415.234" stroke="white" stroke-width="0.5" stroke-linecap="round" stroke-linejoin="round"/>
<path d="M579.501 35.9017H415.234" stroke="white" stroke-width="0.5" stroke-linecap="round" stroke-linejoin="round"/>
<path d="M579.501 41.8033H413.946" stroke="white" stroke-width="0.5" stroke-linecap="round" stroke-linejoin="round"/>
<path d="M579.501 47.705H411.54" stroke="white" stroke-width="0.5" stroke-linecap="round" stroke-linejoin="round"/>
<path d="M579.501 53.6066H407.627" stroke="white" stroke-width="0.5" stroke-linecap="round" stroke-linejoin="round"/>
<path d="M579.501 59.5082H394.819" stroke="white" stroke-linecap="round" stroke-linejoin="round"/>
<path d="M579.501 6.39343H407.627" stroke="white" stroke-width="0.5" stroke-linecap="round" stroke-linejoin="round"/>
<path d="M579.501 0.491821H394.819" stroke="white" stroke-linecap="round" stroke-linejoin="round"/>
<path d="M579.501 12.2951H411.54" stroke="white" stroke-width="0.5" stroke-linecap="round" stroke-linejoin="round"/>
<path d="M579.501 18.1967H413.946" stroke="white" stroke-width="0.5" stroke-linecap="round" stroke-linejoin="round"/>
<path d="M579.501 24.0984H415.234" stroke="white" stroke-width="0.5" stroke-linecap="round" stroke-linejoin="round"/>
</g>
<defs>
<clipPath id="clip0_1_214">
<rect width="580" height="60" fill="white"/>
</clipPath>
</defs>
</svg>
