<svg width="47" height="60" viewBox="0 0 47 60" fill="none" xmlns="http://www.w3.org/2000/svg">
<g clip-path="url(#clip0_41_296)">
<path d="M42.8517 29.1231C42.792 28.7123 42.8287 28.0938 42.6542 27.7292C42.4382 27.2769 41.9743 27.1246 41.8227 26.52C41.4276 24.9554 41.1979 23.3538 41.1336 21.7431C42.4704 21.8308 43.8164 21.7431 45.1349 21.4846C45.6953 21.3738 46.3063 21.1938 46.5957 20.7C46.7473 20.4369 46.7841 20.1277 46.807 19.8231C46.9403 18.1662 46.8162 16.4862 46.4349 14.8662C44.7949 14.9769 43.1503 15.0323 41.5057 15.0415C41.2806 15.0415 41.0463 15.0415 40.8534 14.9308C40.5042 14.7369 40.4032 13.7169 40.2562 13.3338L38.29 9.74307L40.1643 7.07538L40.9682 4.44923L37.486 2.20615L34.2703 6.51231L30.8754 5.79231L30.7882 0.858459H26.231L26.0519 6.15231L22.1195 9.29538L20.1533 12.3462L19.8869 9.47538L16.3128 3.55384L10.327 6.06461L12.918 10.9985L13.6346 13.7815L10.5981 14.9492L6.22009 18.4477L3.54186 24.9969L3.18353 30.6508L4.25391 33.8815L4.87867 37.0246L5.50344 38.64L9.61037 47.5246L19.7031 57.7569L22.8316 59.3723L26.8512 58.4769L33.8201 52.1031L39.5349 44.6538L43.0171 33.6138L42.8379 29.1277L42.8517 29.1231Z" fill="white"/>
<path d="M46.8162 14.2062C46.6968 14.0908 46.5406 14.0215 46.3752 14.0215L40.959 14.0631C40.6053 12.3877 39.8703 10.8046 38.8137 9.44769L41.6205 4.56462C41.7032 4.42154 41.7262 4.24615 41.6849 4.08462C41.6435 3.92308 41.5379 3.78462 41.3909 3.70154L37.4355 1.40769C37.2885 1.32462 37.1185 1.30154 36.9578 1.34308C36.797 1.38462 36.6592 1.49077 36.5765 1.63846L34.1187 5.91692C33.2827 5.58 32.4144 5.34923 31.5232 5.22462V0.627692C31.5232 0.281538 31.243 0 30.8984 0H26.3321C25.9876 0 25.7073 0.281538 25.7073 0.627692V5.95846C23.5436 6.84923 21.7566 8.38615 20.53 10.2923C20.3876 9.79846 20.2223 9.31385 20.0385 8.83385C19.2483 6.79846 18.1183 4.93846 16.6758 3.30462C16.5058 3.11077 16.2348 3.04154 15.9959 3.12923C13.9057 3.88615 11.8246 4.64769 9.74361 5.41385C9.55066 5.48308 9.40825 5.64462 9.35313 5.84308C9.298 6.04154 9.34853 6.25385 9.47716 6.41077C10.8829 8.09538 12.013 10.0938 12.7434 12.1846C12.8858 12.5954 13.0053 13.0108 13.1155 13.4215C9.07749 14.52 6.02256 17.0077 4.26311 20.6492C2.0902 25.1446 2.15452 30.9738 4.42389 35.8985C4.48821 36.8169 4.65359 37.7908 4.92003 38.7969C4.99813 39.0785 5.2462 39.2631 5.52642 39.2631C5.58155 39.2631 5.63668 39.2538 5.6918 39.24C6.02716 39.1477 6.22469 38.8062 6.13282 38.4692C5.87097 37.5046 5.71477 36.5723 5.66424 35.7046C5.42077 31.5185 7.61205 28.6015 12.1692 27.0323C12.4953 26.9215 12.6699 26.5615 12.5597 26.2338C12.4448 25.9062 12.0911 25.7262 11.7649 25.8415C7.78202 27.2123 5.36564 29.6262 4.63521 32.8892C3.48674 28.92 3.73022 24.6369 5.3932 21.2077C6.98269 17.9169 9.7482 15.6646 13.4049 14.6585C13.6484 15.8631 13.777 17.0815 13.777 18.2862C13.777 18.6323 14.0573 18.9138 14.4018 18.9138C14.7463 18.9138 15.0266 18.6323 15.0266 18.2862C15.0266 16.7723 14.8474 15.24 14.4937 13.74C14.3421 13.0892 14.1491 12.4338 13.9286 11.7785C13.2441 9.82615 12.2381 7.94769 10.9931 6.30462C12.6653 5.69077 14.3375 5.07692 16.0188 4.46769C17.2316 5.91231 18.1918 7.53231 18.8717 9.29538C19.2024 10.1585 19.4643 11.0538 19.6572 11.9492C19.0554 13.3338 18.7246 14.8477 18.7246 16.4169C18.7246 16.7631 19.0049 17.0446 19.3494 17.0446C19.694 17.0446 19.9742 16.7631 19.9742 16.4169C19.9742 12.2215 22.6157 8.43231 26.5526 6.99231C26.8007 6.9 26.9661 6.66462 26.9661 6.40154V1.26H30.2783V5.78769C30.2783 6.11538 30.5263 6.38769 30.8479 6.41538C31.978 6.51692 33.0851 6.80769 34.1279 7.29231C34.4219 7.42615 34.7711 7.31538 34.9319 7.03385L37.3528 2.81538L40.224 4.48154L37.5136 9.19385C37.3804 9.42462 37.408 9.71538 37.5779 9.91385C38.5978 11.1231 39.319 12.5492 39.6819 14.0723L34.5643 14.1092C30.4207 14.1415 26.4378 15.9231 23.6493 19.0015L18.8808 24.2631C18.6465 24.5215 18.6649 24.9185 18.9222 25.1538C19.1794 25.3892 19.5745 25.3708 19.8088 25.1123L24.5773 19.8508C27.136 17.0308 30.779 15.3969 34.5781 15.3692L45.7596 15.2862V21H41.1106C37.1966 21 33.6042 23.1415 31.7253 26.5892L29.9567 29.8338C29.7913 30.1385 29.9016 30.5215 30.2048 30.6877C30.3012 30.7385 30.4023 30.7662 30.5034 30.7662C30.7239 30.7662 30.9398 30.6462 31.0546 30.4385L32.8187 27.1938C34.4771 24.1477 37.6514 22.26 41.106 22.26H46.3844C46.7289 22.26 47.0092 21.9785 47.0092 21.6323V14.6538C47.0092 14.4877 46.9403 14.3262 46.8254 14.2062H46.8162Z" fill="#2E4157"/>
<path d="M42.521 26.8016C42.181 26.8708 41.9651 27.2031 42.034 27.5446C44.0645 37.5739 37.1737 47.1646 34.1187 50.82C29.9245 55.8415 25.5098 58.7862 23.7366 58.74C21.0492 58.6662 14.1308 52.8831 9.57364 45.8077C9.38529 45.5169 8.9994 45.4339 8.70539 45.6231C8.41598 45.8123 8.33329 46.2 8.52164 46.4954C13.0145 53.4692 20.2498 59.9077 23.7044 60C23.7274 60 23.7504 60 23.7733 60C26.277 60 31.0087 56.5016 35.0789 51.6323C38.2532 47.8339 45.4013 37.8646 43.2652 27.2954C43.1963 26.9539 42.8609 26.7369 42.5255 26.8062L42.521 26.8016Z" fill="#2E4157"/>
<path d="M13.7954 42.4892L15.9408 35.8154L20.9711 50.9446C21.0538 51.1985 21.2926 51.3738 21.5591 51.3738H21.5637C21.8301 51.3738 22.0644 51.2077 22.1517 50.9538L24.9999 42.9231H29.6122C29.9567 42.9231 30.2369 42.6415 30.2369 42.2954C30.2369 41.9492 29.9567 41.6677 29.6122 41.6677H24.5543C24.2879 41.6677 24.0536 41.8338 23.9663 42.0877L21.5775 48.8215L16.515 33.6046C16.4277 33.3462 16.1888 33.1754 15.9224 33.1754C15.6514 33.1754 15.4125 33.3508 15.3298 33.6092L12.7388 41.6677H0.624768C0.280227 41.6677 0 41.9492 0 42.2954C0 42.6415 0.280227 42.9231 0.624768 42.9231H13.1936C13.4647 42.9231 13.7081 42.7477 13.7908 42.4892H13.7954Z" fill="#2E4157"/>
</g>
<defs>
<clipPath id="clip0_41_296">
<rect width="47" height="60" fill="white"/>
</clipPath>
</defs>
</svg>
