<svg width="52" height="60" viewBox="0 0 52 60" fill="none" xmlns="http://www.w3.org/2000/svg">
<g clip-path="url(#clip0_33_39)">
<path d="M44.0449 56.0585V58.74H7.94586V56.0585C7.94586 55.4862 8.41817 55.02 8.99698 55.02H42.9984C43.5726 55.02 44.0402 55.4908 44.0402 56.0585H44.0449Z" fill="white"/>
<path d="M40.3637 52.3108V53.7508H11.6271V52.3108C11.6271 51.8308 11.9188 51.4108 12.3587 51.2308L19.0404 48.4431C20.9574 47.6446 22.1984 45.7846 22.1984 43.7123V36.9923C23.4301 37.2738 24.6942 37.4215 26 37.4215C27.3058 37.4215 28.556 37.2738 29.7831 36.9923V43.7123C29.7831 45.7846 31.0287 47.6446 32.9457 48.4431L39.6367 51.2308C40.0766 51.4108 40.359 51.8308 40.359 52.3108H40.3637Z" fill="white"/>
<path d="M33.4689 15.84L29.9775 19.2415C29.8294 19.38 29.7553 19.5923 29.7969 19.8L30.6212 24.6L26.2871 22.3292C26.1991 22.2877 26.0972 22.26 25.9953 22.26C25.8935 22.26 25.7962 22.2877 25.7036 22.3292L21.3788 24.6L22.203 19.8C22.2354 19.5923 22.1752 19.38 22.0224 19.2415L18.5218 15.84L23.356 15.1385C23.569 15.1108 23.7357 14.9769 23.8283 14.7877L25.9953 10.4261L28.1624 14.7877C28.2504 14.9769 28.4356 15.1061 28.6347 15.1385L33.4689 15.84Z" fill="white"/>
<path d="M41.6973 1.25999V20.52C41.6973 27.5077 36.9927 33.7015 30.2508 35.58C27.5234 36.3508 24.4627 36.36 21.7539 35.5708C15.0027 33.6923 10.2982 27.4985 10.2982 20.52V1.25999H41.7019H41.6973ZM35.2656 15.8492C35.4369 15.6785 35.4971 15.4292 35.4276 15.2077C35.3582 14.9769 35.1544 14.8061 34.9137 14.7785L29.1441 13.9385L26.5649 8.72769C26.3427 8.29846 25.6435 8.29846 25.4305 8.72769L22.8421 13.9385L17.0725 14.7785C16.841 14.8061 16.6419 14.9769 16.5632 15.2077C16.4937 15.4292 16.5539 15.6785 16.7252 15.8492L20.8973 19.9108L19.9156 25.6431C19.8739 25.8738 19.9758 26.1138 20.1657 26.2523C20.3648 26.3908 20.6148 26.4138 20.8371 26.3031L25.9954 23.6031L31.163 26.3031C31.2556 26.3538 31.3528 26.3723 31.4547 26.3723C31.5844 26.3723 31.714 26.3308 31.8251 26.2523C32.015 26.1138 32.1169 25.8738 32.0752 25.6431L31.0935 19.9108L35.2656 15.8492Z" fill="white"/>
<path d="M17.0771 14.7785L22.8467 13.9385L25.4351 8.72768C25.6435 8.29845 26.3473 8.29845 26.5695 8.72768L29.1487 13.9385L34.9183 14.7785C35.159 14.8061 35.3581 14.9769 35.4322 15.2077C35.5017 15.4292 35.4415 15.6785 35.2702 15.8492L31.0981 19.9108L32.0798 25.6431C32.1215 25.8738 32.0196 26.1138 31.8297 26.2523C31.7186 26.3308 31.589 26.3723 31.4593 26.3723C31.3574 26.3723 31.2602 26.3538 31.1676 26.3031L26 23.6031L20.8417 26.3031C20.6194 26.4138 20.3694 26.3954 20.1703 26.2523C19.9804 26.1138 19.8785 25.8738 19.9202 25.6431L20.9019 19.9108L16.7298 15.8492C16.5585 15.6785 16.4983 15.4292 16.5678 15.2077C16.6465 14.9769 16.8502 14.8061 17.0771 14.7785ZM23.356 15.1385L18.5218 15.84L22.0224 19.2415C22.1752 19.38 22.2354 19.5923 22.203 19.8L21.3788 24.6L25.7036 22.3292C25.7916 22.2877 25.8935 22.26 25.9954 22.26C26.0972 22.26 26.1945 22.2877 26.2871 22.3292L30.6212 24.6L29.797 19.8C29.7553 19.5923 29.8294 19.38 29.9776 19.2415L33.4689 15.84L28.6347 15.1385C28.4356 15.1108 28.255 14.9769 28.1624 14.7877L25.9954 10.4261L23.8283 14.7877C23.7357 14.9769 23.569 15.1061 23.356 15.1385Z" fill="#2E4157"/>
<path d="M42.9984 55.02H8.99697C8.41353 55.02 7.94586 55.4908 7.94586 56.0585V58.74H44.0449V56.0585C44.0449 55.4862 43.5726 55.02 43.003 55.02H42.9984ZM19.0404 48.4385L12.3587 51.2262C11.9188 51.4062 11.6271 51.8262 11.6271 52.3062V53.7462H40.359V52.3062C40.359 51.8262 40.0766 51.4062 39.6367 51.2262L32.9457 48.4385C31.0287 47.64 29.7831 45.78 29.7831 43.7077V36.9877C28.5606 37.2692 27.2965 37.4169 26 37.4169C24.7035 37.4169 23.4301 37.2692 22.1984 36.9877V43.7077C22.1984 45.78 20.9528 47.64 19.0404 48.4385ZM10.2935 20.52C10.2935 27.4985 14.998 33.6923 21.7492 35.5708C24.4581 36.36 27.5188 36.3508 30.2461 35.58C36.9881 33.7015 41.6926 27.5123 41.6926 20.52V1.26H10.2935V20.52ZM0 11.0815V6.77077C0 6.42 0.282458 6.14308 0.629742 6.14308H5.78807C6.13998 6.14308 6.42244 6.42462 6.42244 6.77077C6.42244 7.11692 6.13998 7.40308 5.78807 7.40308H1.26411V11.0815C1.26411 15.4892 4.69528 19.1031 9.02939 19.4215V0.632308C9.02939 0.281538 9.31184 0 9.65913 0H42.327C42.6789 0 42.9614 0.281538 42.9614 0.632308V19.4215C47.3047 19.1031 50.7359 15.4892 50.7359 11.0815V7.40308H46.2119C45.86 7.40308 45.5822 7.12154 45.5822 6.77077C45.5822 6.42 45.8646 6.14308 46.2119 6.14308H51.3703C51.7129 6.14308 52.0046 6.42462 52.0046 6.77077V11.0815C52.0046 16.1815 48.0039 20.3631 42.966 20.6815C42.8873 28.0015 38.0392 34.4815 31.0565 36.6508V43.7123C31.0565 45.2723 31.9918 46.6846 33.4458 47.2846L40.1368 50.0769C41.049 50.4554 41.6324 51.3369 41.6324 52.3154V53.7646H43.0077C44.281 53.7646 45.3136 54.7938 45.3136 56.0631V59.3723C45.3136 59.7231 45.0312 60.0046 44.6792 60.0046H7.31149C6.95957 60.0046 6.68175 59.7231 6.68175 59.3723V56.0631C6.68175 54.7938 7.7236 53.7646 8.99697 53.7646H10.363V52.3154C10.363 51.3369 10.9557 50.4554 11.8679 50.0769L18.5589 47.2846C20.0036 46.6846 20.9343 45.2723 20.9343 43.7123V36.6415C13.9608 34.4723 9.1081 28.0015 9.03402 20.6815C4.00534 20.3585 0 16.1815 0 11.0815Z" fill="#2E4157"/>
</g>
<defs>
<clipPath id="clip0_33_39">
<rect width="52" height="60" fill="white"/>
</clipPath>
</defs>
</svg>
