<svg width="53" height="60" viewBox="0 0 53 60" fill="none" xmlns="http://www.w3.org/2000/svg">
<g clip-path="url(#clip0_36_169)">
<path d="M19.4824 11.0607C19.4824 11.2855 19.2972 11.4722 19.0741 11.4722C18.851 11.4722 18.6616 11.2855 18.6616 11.0607C18.6616 10.8358 18.8468 10.6449 19.0741 10.6449C19.3014 10.6449 19.4824 10.8316 19.4824 11.0607Z" fill="white"/>
<path d="M14.2666 11.4722C14.0435 11.4722 13.8583 11.2855 13.8583 11.0607C13.8583 10.8358 14.0435 10.6449 14.2666 10.6449C14.4898 10.6449 14.6792 10.8316 14.6792 11.0607C14.6792 11.2898 14.494 11.4722 14.2666 11.4722Z" fill="white"/>
<path d="M14.2666 15.804C14.0435 15.804 13.8583 15.6173 13.8583 15.3924C13.8583 15.1676 14.0435 14.9809 14.2666 14.9809C14.4898 14.9809 14.6792 15.1676 14.6792 15.3924C14.6792 15.6173 14.494 15.804 14.2666 15.804Z" fill="white"/>
<path d="M19.4824 15.3924C19.4824 15.6173 19.2972 15.804 19.0741 15.804C18.851 15.804 18.6616 15.6173 18.6616 15.3924C18.6616 15.1676 18.8468 14.9809 19.0741 14.9809C19.3014 14.9809 19.4824 15.1676 19.4824 15.3924Z" fill="white"/>
<path d="M24.2857 15.3924C24.2857 15.6173 24.1005 15.804 23.8774 15.804C23.6542 15.804 23.4648 15.6173 23.4648 15.3924C23.4648 15.1676 23.6542 14.9809 23.8774 14.9809C24.1005 14.9809 24.2857 15.1676 24.2857 15.3924Z" fill="white"/>
<path d="M24.2857 11.0607C24.2857 11.2855 24.1005 11.4722 23.8774 11.4722C23.6542 11.4722 23.4648 11.2855 23.4648 11.0607C23.4648 10.8358 23.6542 10.6449 23.8774 10.6449C24.1005 10.6449 24.2857 10.8316 24.2857 11.0607Z" fill="white"/>
<path d="M29.089 11.0607C29.089 11.2855 28.9037 11.4722 28.6806 11.4722C28.4575 11.4722 28.2723 11.2855 28.2723 11.0607C28.2723 10.8358 28.4575 10.6449 28.6806 10.6449C28.9037 10.6449 29.089 10.8316 29.089 11.0607Z" fill="white"/>
<path d="M46.9338 5.05303L47.5569 6.14339L39.971 10.4837L38.0767 10.017L38.6155 8.12473L46.1719 3.72931L46.9338 5.05303Z" fill="white"/>
<path d="M41.0024 28.0654C42.4 29.3297 41.7138 32.4862 39.4995 34.9555C39.0743 35.4306 38.6113 35.8592 38.1314 36.2283C38.1356 36.2113 38.1356 36.1858 38.1398 36.1689C38.2366 35.5622 38.3082 34.9555 38.3629 34.336L38.405 33.8524C38.4513 33.2117 38.4808 32.5626 38.4808 31.9135V27.6199C39.5332 27.378 40.4172 27.5308 40.9982 28.0611L41.0024 28.0654Z" fill="white"/>
<path d="M4.59279 34.336C4.64751 34.9597 4.71908 35.5791 4.82011 36.1816C4.82011 36.1986 4.82432 36.2155 4.82432 36.2283C4.34441 35.8592 3.88135 35.4306 3.45617 34.9555C1.99962 33.3305 1.14926 31.3492 1.22924 29.7921C1.25871 29.2745 1.40184 28.5617 1.95331 28.0653C2.35744 27.6962 2.9047 27.5096 3.54878 27.5096C3.84346 27.5096 4.15077 27.5477 4.47491 27.6199V31.9135C4.47491 32.5626 4.50859 33.2117 4.55069 33.8524L4.59279 34.336Z" fill="white"/>
<path d="M37.2558 27.1532V31.9177C37.2558 32.4226 37.2389 32.9232 37.2094 33.4239C37.1253 34.7858 36.9442 36.118 36.6454 37.4162C36.5864 37.7005 36.5106 37.9932 36.4264 38.3242C34.2542 46.4743 28.247 51.9516 21.4736 51.9516C14.7002 51.9516 8.69722 46.4743 6.52923 38.3242C6.44503 38.0187 6.36926 37.7175 6.30611 37.3992C5.90198 35.6428 5.69571 33.793 5.69571 31.9177V21.9559C5.69571 19.1727 6.41557 16.555 7.66584 14.2809C7.84265 15.1676 8.23415 16.1901 9.02557 17.1617C9.68229 17.9593 10.4905 18.5787 11.4419 18.9987C11.7324 19.126 11.9429 19.3721 12.0355 19.6861C12.1365 20.0127 12.0902 20.3734 11.9092 20.6704L8.06576 26.8307C7.88896 27.1235 7.97315 27.5011 8.25941 27.6835C8.36044 27.7471 8.4741 27.7768 8.58356 27.7768C8.78983 27.7768 8.9919 27.675 9.10556 27.4926L12.949 21.328C13.3195 20.734 13.4163 20 13.21 19.3254C13.0121 18.6721 12.5491 18.146 11.9387 17.8702C11.1641 17.5223 10.5074 17.0259 9.97696 16.381C8.77299 14.9088 8.72248 13.2499 8.76457 12.5838C11.6356 8.63811 16.2578 6.06281 21.4736 6.06281C25.6917 6.06281 29.6573 7.72169 32.6293 10.7298C32.9956 11.0946 33.3407 11.4765 33.6649 11.8753L28.1712 15.0743C27.8766 15.244 27.7755 15.6216 27.9481 15.9186C28.0618 16.118 28.2681 16.2283 28.4828 16.2283C28.5838 16.2283 28.689 16.1986 28.7859 16.1434L34.1953 12.9953C34.1785 13.8057 33.9764 15.1591 32.9787 16.381C32.4525 17.0259 31.7916 17.5265 31.0128 17.8702C30.4024 18.1417 29.9351 18.6678 29.7415 19.3254C29.5352 20 29.632 20.734 30.0067 21.328L33.8459 27.4926C33.9638 27.6793 34.1616 27.7768 34.3679 27.7768C34.4774 27.7768 34.591 27.7471 34.6921 27.6835C34.9825 27.4968 35.0667 27.1192 34.8857 26.8307L31.0465 20.6704C30.8612 20.3734 30.8149 20.017 30.9118 19.6818C31.0086 19.3721 31.2191 19.126 31.5053 18.9987C32.4567 18.5787 33.2734 17.9593 33.9217 17.1617C34.7173 16.1858 35.1088 15.1591 35.2856 14.2724C36.5654 16.5974 37.2558 19.2194 37.2558 21.9559V27.1532ZM29.5015 11.0607C29.5015 10.6025 29.1353 10.2334 28.6806 10.2334C28.226 10.2334 27.8597 10.6025 27.8597 11.0607C27.8597 11.5189 28.226 11.8838 28.6806 11.8838C29.1353 11.8838 29.5015 11.5147 29.5015 11.0607ZM24.6983 11.0607C24.6983 10.6025 24.3278 10.2334 23.8774 10.2334C23.4269 10.2334 23.0565 10.6025 23.0565 11.0607C23.0565 11.5189 23.4227 11.8838 23.8774 11.8838C24.332 11.8838 24.6983 11.5147 24.6983 11.0607ZM24.6983 15.3925C24.6983 14.9385 24.3278 14.5651 23.8774 14.5651C23.4269 14.5651 23.0565 14.9385 23.0565 15.3925C23.0565 15.8464 23.4227 16.2198 23.8774 16.2198C24.332 16.2198 24.6983 15.8507 24.6983 15.3925ZM19.8908 11.0607C19.8908 10.6025 19.5245 10.2334 19.0741 10.2334C18.6237 10.2334 18.2532 10.6025 18.2532 11.0607C18.2532 11.5189 18.6195 11.8838 19.0741 11.8838C19.5288 11.8838 19.8908 11.5147 19.8908 11.0607ZM19.8908 15.3925C19.8908 14.9385 19.5245 14.5651 19.0741 14.5651C18.6237 14.5651 18.2532 14.9385 18.2532 15.3925C18.2532 15.8464 18.6195 16.2198 19.0741 16.2198C19.5288 16.2198 19.8908 15.8507 19.8908 15.3925ZM15.0875 11.0607C15.0875 10.6025 14.7213 10.2334 14.2666 10.2334C13.812 10.2334 13.45 10.6025 13.45 11.0607C13.45 11.5189 13.8162 11.8838 14.2666 11.8838C14.7171 11.8838 15.0875 11.5147 15.0875 11.0607ZM15.0875 15.3925C15.0875 14.9385 14.7213 14.5651 14.2666 14.5651C13.812 14.5651 13.45 14.9385 13.45 15.3925C13.45 15.8464 13.8162 16.2198 14.2666 16.2198C14.7171 16.2198 15.0875 15.8507 15.0875 15.3925Z" fill="white"/>
<path d="M27.864 11.0607C27.864 10.6025 28.2302 10.2333 28.6848 10.2333C29.1395 10.2333 29.5057 10.6025 29.5057 11.0607C29.5057 11.5189 29.1395 11.8837 28.6848 11.8837C28.2302 11.8837 27.864 11.5146 27.864 11.0607ZM28.6848 10.6491C28.4617 10.6491 28.2765 10.8358 28.2765 11.0649C28.2765 11.294 28.4617 11.4764 28.6848 11.4764C28.908 11.4764 29.0932 11.2898 29.0932 11.0649C29.0932 10.84 28.908 10.6491 28.6848 10.6491Z" fill="#2E4157"/>
<path d="M23.8816 11.4722C24.1047 11.4722 24.2899 11.2855 24.2899 11.0607C24.2899 10.8358 24.1047 10.6449 23.8816 10.6449C23.6584 10.6449 23.469 10.8316 23.469 11.0607C23.469 11.2898 23.6584 11.4722 23.8816 11.4722ZM23.8816 10.2376C24.332 10.2376 24.7024 10.6067 24.7024 11.0649C24.7024 11.5231 24.332 11.888 23.8816 11.888C23.4311 11.888 23.0607 11.5189 23.0607 11.0649C23.0607 10.6109 23.4269 10.2376 23.8816 10.2376Z" fill="#2E4157"/>
<path d="M23.8816 15.804C24.1047 15.804 24.2899 15.6173 24.2899 15.3924C24.2899 15.1676 24.1047 14.9809 23.8816 14.9809C23.6584 14.9809 23.469 15.1676 23.469 15.3924C23.469 15.6173 23.6584 15.804 23.8816 15.804ZM23.8816 14.5651C24.332 14.5651 24.7024 14.9385 24.7024 15.3924C24.7024 15.8464 24.332 16.2198 23.8816 16.2198C23.4311 16.2198 23.0607 15.8507 23.0607 15.3924C23.0607 14.9342 23.4269 14.5651 23.8816 14.5651Z" fill="#2E4157"/>
<path d="M19.0741 11.4722C19.2972 11.4722 19.4824 11.2855 19.4824 11.0607C19.4824 10.8358 19.2972 10.6449 19.0741 10.6449C18.851 10.6449 18.6615 10.8316 18.6615 11.0607C18.6615 11.2898 18.8468 11.4722 19.0741 11.4722ZM19.0741 10.2376C19.5245 10.2376 19.8908 10.6067 19.8908 11.0649C19.8908 11.5231 19.5245 11.888 19.0741 11.888C18.6237 11.888 18.2532 11.5189 18.2532 11.0649C18.2532 10.6109 18.6194 10.2376 19.0741 10.2376Z" fill="#2E4157"/>
<path d="M19.0741 14.5651C19.5245 14.5651 19.8908 14.9385 19.8908 15.3924C19.8908 15.8464 19.5245 16.2198 19.0741 16.2198C18.6237 16.2198 18.2532 15.8507 18.2532 15.3924C18.2532 14.9342 18.6194 14.5651 19.0741 14.5651ZM19.0741 15.804C19.2972 15.804 19.4824 15.6173 19.4824 15.3924C19.4824 15.1676 19.2972 14.9809 19.0741 14.9809C18.851 14.9809 18.6615 15.1676 18.6615 15.3924C18.6615 15.6173 18.8468 15.804 19.0741 15.804Z" fill="#2E4157"/>
<path d="M15.0875 11.0607C15.0875 11.5146 14.7213 11.8837 14.2666 11.8837C13.812 11.8837 13.45 11.5146 13.45 11.0607C13.45 10.6067 13.8162 10.2333 14.2666 10.2333C14.7171 10.2333 15.0875 10.6025 15.0875 11.0607ZM13.8583 11.0607C13.8583 11.2855 14.0435 11.4722 14.2666 11.4722C14.4897 11.4722 14.6792 11.2855 14.6792 11.0607C14.6792 10.8358 14.494 10.6449 14.2666 10.6449C14.0393 10.6449 13.8583 10.8316 13.8583 11.0607Z" fill="#2E4157"/>
<path d="M13.4542 15.3924C13.4542 14.9385 13.8204 14.5651 14.2708 14.5651C14.7213 14.5651 15.0917 14.9385 15.0917 15.3924C15.0917 15.8464 14.7255 16.2198 14.2708 16.2198C13.8162 16.2198 13.4542 15.8507 13.4542 15.3924ZM14.2666 14.9809C14.0435 14.9809 13.8583 15.1676 13.8583 15.3924C13.8583 15.6173 14.0435 15.804 14.2666 15.804C14.4897 15.804 14.6792 15.6173 14.6792 15.3924C14.6792 15.1676 14.494 14.9809 14.2666 14.9809Z" fill="#2E4157"/>
<path d="M39.971 10.4837L47.5526 6.13916L46.9296 5.04879L46.1677 3.72507L38.6113 8.12049L38.0724 10.0127L39.9668 10.4837H39.971ZM39.4995 34.9555C41.7096 32.4862 42.4 29.3297 41.0024 28.0653C40.4214 27.535 39.5374 27.3823 38.485 27.6241V31.9177C38.485 32.5668 38.4513 33.216 38.4092 33.8566L38.3671 34.3403C38.3124 34.9597 38.2408 35.5664 38.144 36.1731C38.1398 36.1901 38.1398 36.2155 38.1356 36.2325C38.6155 35.8634 39.0785 35.4349 39.5037 34.9597L39.4995 34.9555ZM4.82008 36.1816C4.71905 35.5749 4.64748 34.9597 4.59276 34.336L4.55066 33.8524C4.50436 33.2117 4.47489 32.5626 4.47489 31.9134V27.6199C4.15074 27.5477 3.84343 27.5095 3.54876 27.5095C2.90888 27.5095 2.35741 27.6962 1.95328 28.0653C1.40181 28.5575 1.25868 29.2745 1.22922 29.7921C1.14502 31.3534 1.99959 33.3305 3.45614 34.9555C3.88132 35.4306 4.34439 35.8591 4.82429 36.2283C4.82429 36.2155 4.82008 36.1986 4.82008 36.1816ZM12.5828 50.0552C9.24868 47.4968 6.64288 43.5172 5.34629 38.6381C5.28315 38.4048 5.22842 38.1714 5.1737 37.9381C4.23914 37.3992 3.33406 36.6653 2.54685 35.7828C0.854554 33.8948 -0.0926266 31.6292 0.00840596 29.7242C0.0631319 28.6551 0.454633 27.7641 1.1366 27.1489C1.95749 26.4022 3.14883 26.1392 4.47489 26.3725V21.9559C4.47489 12.5074 12.1028 4.81968 21.4778 4.81968C26.0243 4.81968 30.2971 6.60585 33.5049 9.84726C33.9427 10.2885 34.3553 10.7594 34.7426 11.2473L36.7927 10.0509L37.5125 7.54349C37.5546 7.38651 37.6599 7.25923 37.7946 7.17862L45.5615 2.65592L45.3047 2.21468C45.1363 1.91769 45.2373 1.54009 45.5278 1.37039C45.8225 1.19644 46.1971 1.3025 46.3655 1.59525L46.9296 2.57531L47.6074 3.76326L50.6257 2.00679L50.0153 0.937632C49.8469 0.640644 49.948 0.263045 50.2384 0.0933382C50.5289 -0.076369 50.9078 0.0254554 51.0762 0.3182L51.9981 1.92618L52.9158 3.53415C53.0884 3.83114 52.9874 4.20874 52.6927 4.37845C52.5959 4.4336 52.4906 4.4633 52.3896 4.4633C52.1749 4.4633 51.9686 4.35299 51.855 4.15358L51.2445 3.08443L48.222 4.8409L49.4638 7.00467C49.6322 7.30165 49.5312 7.67925 49.2407 7.84896C49.1439 7.90411 49.0345 7.93381 48.9334 7.93381C48.7187 7.93381 48.5125 7.8235 48.403 7.6241L48.1757 7.22529L40.3835 11.6928C40.2867 11.748 40.1815 11.7777 40.0762 11.7777C40.0257 11.7777 39.9752 11.7734 39.9289 11.7607L37.4115 11.137L35.4835 12.2529C37.4326 15.087 38.4934 18.4429 38.4934 21.9686V26.3852C39.8279 26.1519 41.015 26.4149 41.8359 27.1616C43.785 28.9351 43.1704 32.728 40.4214 35.7955C39.6342 36.678 38.7333 37.412 37.7946 37.9508C37.7441 38.1672 37.6936 38.3793 37.6388 38.5999C36.3338 43.5045 33.7196 47.5011 30.3813 50.0636V59.389C30.3813 59.7285 30.1077 60.0085 29.7667 60.0085C29.4257 60.0085 29.1521 59.7327 29.1521 59.389V50.9164C26.8283 52.3844 24.2141 53.1947 21.4862 53.1947C18.7584 53.1947 16.1484 52.3844 13.8204 50.9207V59.389C13.8204 59.7285 13.5468 60.0085 13.2058 60.0085C12.8648 60.0085 12.5912 59.7327 12.5912 59.389V50.0679L12.5828 50.0552ZM5.69991 31.9134C5.69991 33.793 5.90618 35.6385 6.31031 37.395C6.37346 37.7132 6.45344 38.0144 6.53343 38.3199C8.70142 46.4701 14.7044 51.9474 21.4778 51.9474C28.2512 51.9474 34.2584 46.4701 36.4306 38.3199C36.5191 37.989 36.5906 37.6962 36.6495 37.412C36.9484 36.1137 37.1295 34.7815 37.2136 33.4196C37.2431 32.9232 37.26 32.4183 37.26 31.9134V21.9516C37.26 19.2151 36.5696 16.5931 35.2898 14.2681C35.113 15.1549 34.7215 16.1816 33.9259 17.1574C33.2776 17.955 32.4609 18.5745 31.5095 18.9945C31.219 19.1218 31.0086 19.3678 30.916 19.6776C30.8149 20.0085 30.8654 20.3691 31.0507 20.6661L34.8899 26.8265C35.0751 27.1192 34.9867 27.4968 34.6963 27.6793C34.5952 27.7429 34.4816 27.7726 34.3721 27.7726C34.1658 27.7726 33.968 27.6708 33.8501 27.4883L30.0109 21.3237C29.6362 20.7297 29.5394 19.9958 29.7457 19.3212C29.9435 18.6678 30.4108 18.1417 31.017 17.8659C31.7958 17.518 32.4567 17.0216 32.9829 16.3767C33.9806 15.1549 34.1827 13.8014 34.1995 12.9911L28.7901 16.1392C28.6932 16.1943 28.588 16.224 28.487 16.224C28.2723 16.224 28.066 16.1137 27.9523 15.9143C27.7839 15.6173 27.885 15.2397 28.1754 15.07L33.6691 11.871C33.3449 11.4722 32.9997 11.0904 32.6335 10.7255C29.6615 7.71744 25.6959 6.05855 21.4778 6.05855C16.262 6.05855 11.6398 8.63386 8.76877 12.5795C8.72667 13.2499 8.77719 14.9045 9.98116 16.3767C10.5074 17.0216 11.1683 17.5223 11.9429 17.8659C12.5575 18.1375 13.0206 18.6636 13.2142 19.3212C13.4205 19.9958 13.3237 20.7297 12.9532 21.3237L9.10976 27.4883C8.99609 27.675 8.79403 27.7726 8.58775 27.7726C8.4783 27.7726 8.36464 27.7429 8.26361 27.6793C7.98156 27.4926 7.89316 27.115 8.06996 26.8265L11.9134 20.6661C12.0986 20.3691 12.1407 20.0127 12.0397 19.6818C11.9429 19.3678 11.7324 19.1218 11.4461 18.9945C10.4947 18.5745 9.68227 17.955 9.02977 17.1574C8.23835 16.1901 7.84685 15.1633 7.67004 14.2766C6.41976 16.5507 5.69991 19.1684 5.69991 21.9516V31.9134Z" fill="#2E4157"/>
</g>
<defs>
<clipPath id="clip0_36_169">
<rect width="53" height="60" fill="white"/>
</clipPath>
</defs>
</svg>
