<svg width="60" height="60" viewBox="0 0 60 60" fill="none" xmlns="http://www.w3.org/2000/svg">
<g clip-path="url(#clip0_34_150)">
<path d="M42.2044 23.6677L40.6307 16.3108L34.9727 8.88001L30.5699 6.12924L25.2211 4.39847L15.4696 5.1877L10.6746 7.78155L4.77655 14.0723L2.81055 22.1723V23.8246L1.00145 23.9031L0.766088 25.7908L0.609177 28.6985L2.57518 29.3262L21.2891 30.5862L28.8393 30.1154L32.0606 29.88L36.8602 28.9339L37.1741 26.5754L37.331 24.9231L40.0031 24.7662L42.2044 25.0015V23.6677Z" fill="white"/>
<path d="M12.4098 52.9477C14.0297 52.9477 15.3496 54.2631 15.3496 55.8831C15.3496 57.5031 14.0297 58.8231 12.4098 58.8231C10.7899 58.8231 9.47466 57.5031 9.47466 55.8831C9.47466 54.2631 10.7899 52.9477 12.4098 52.9477Z" fill="white"/>
<path d="M27.7825 3.56306C27.8748 3.57691 27.944 3.66922 27.9348 3.77076C27.4548 9.01383 26.9749 14.2569 26.5041 19.5H17.6479L16.2126 3.77076C16.2034 3.66922 16.268 3.57691 16.3603 3.55845C16.9187 3.4523 17.491 3.37845 18.0632 3.29999L18.354 10.1077C18.3678 10.4308 18.6447 10.6892 18.9632 10.6661C19.2908 10.6523 19.54 10.38 19.5262 10.0569L19.2124 2.56614V2.5523L19.1708 1.62922C19.1708 1.52768 19.2355 1.4446 19.3324 1.42614C21.1368 1.09383 23.0198 1.09383 24.8289 1.42614C24.9166 1.4446 24.9765 1.5323 24.9765 1.6246L24.6166 10.0569C24.6027 10.38 24.8566 10.6523 25.1796 10.6661C25.1888 10.6708 25.1981 10.6708 25.2073 10.6708C25.5165 10.6708 25.7796 10.4215 25.7934 10.1077L26.0795 3.3046C26.6518 3.38306 27.2195 3.4523 27.7825 3.56306Z" fill="white"/>
<path d="M54.9235 23.2246V26.4323C54.9235 26.7554 54.6604 27.0185 54.3328 27.0185C54.0051 27.0185 53.7466 26.7554 53.7466 26.4323V23.2246C53.7466 22.9015 54.0097 22.6385 54.3328 22.6385C54.6558 22.6385 54.9235 22.9015 54.9235 23.2246Z" fill="#2E4157"/>
<path d="M21.363 40.1492C19.1293 40.1492 17.0295 41.0215 15.4511 42.6C13.8682 44.1738 12.9959 46.2785 12.9959 48.5169C12.9959 48.84 12.7329 49.1077 12.4098 49.1077C12.0868 49.1077 11.8237 48.84 11.8237 48.5169C11.8237 45.96 12.8159 43.5646 14.6204 41.7646C16.4203 39.9646 18.8155 38.9769 21.363 38.9769C26.6287 38.9769 30.9115 43.2554 30.9115 48.5169V49.8046C30.9115 52.0338 31.7837 54.1385 33.362 55.7215C34.945 57.3 37.0495 58.1723 39.2785 58.1723C43.8889 58.1723 47.6456 54.4154 47.6456 49.8046V46.8969C41.4291 46.5877 36.4633 41.4462 36.4633 35.1554V24.8308C36.4633 24.5031 36.7264 24.24 37.0495 24.24H41.5353V23.2246C41.5353 22.9015 41.7983 22.6385 42.1214 22.6385C42.4444 22.6385 42.7075 22.9015 42.7075 23.2246V26.4323C42.7075 26.7554 42.4444 27.0185 42.1214 27.0185C41.7983 27.0185 41.5353 26.7554 41.5353 26.4323V25.4169H37.6402V35.1554C37.6402 40.9985 42.389 45.7477 48.2317 45.7477C54.0743 45.7477 58.8232 40.9985 58.8232 35.1554V25.4169H57.2217C56.8987 25.4169 56.6356 25.1538 56.6356 24.8308C56.6356 24.5077 56.8987 24.24 57.2217 24.24H59.4139C59.7369 24.24 60 24.5031 60 24.8308V35.1554C60 41.4462 55.0342 46.5877 48.8178 46.8969V49.8046C48.8178 55.0662 44.5396 59.3446 39.2785 59.3446C36.7356 59.3446 34.3358 58.3569 32.5313 56.5569C30.7269 54.7477 29.7346 52.3477 29.7346 49.8046V48.5169C29.7346 43.9062 25.9826 40.1492 21.363 40.1492Z" fill="#2E4157"/>
<path d="M15.3496 55.8831C15.3496 54.2631 14.0297 52.9477 12.4098 52.9477C10.7899 52.9477 9.47465 54.2631 9.47465 55.8831C9.47465 57.5031 10.7899 58.8231 12.4098 58.8231C14.0297 58.8231 15.3496 57.5031 15.3496 55.8831ZM16.5264 55.8831C16.5264 58.1538 14.6804 60 12.4098 60C10.1392 60 8.29782 58.1538 8.29782 55.8831C8.29782 53.6123 10.1438 51.7708 12.4098 51.7708C14.6758 51.7708 16.5264 53.6169 16.5264 55.8831Z" fill="#2E4157"/>
<path d="M16.3603 3.55845C16.268 3.57691 16.2034 3.66922 16.2126 3.77076L17.6479 19.5H26.5041C26.9749 14.2569 27.4548 9.01383 27.9348 3.77076C27.944 3.66922 27.8748 3.57691 27.7825 3.56307C27.2194 3.4523 26.6518 3.38307 26.0795 3.3046L25.7934 10.1077C25.7796 10.4215 25.5165 10.6708 25.2073 10.6708C25.1981 10.6708 25.1888 10.6708 25.1796 10.6661C24.8566 10.6523 24.6027 10.38 24.6166 10.0569L24.9765 1.6246C24.9765 1.5323 24.9165 1.4446 24.8289 1.42614C23.0198 1.09383 21.1368 1.09383 19.3324 1.42614C19.2354 1.4446 19.1662 1.52768 19.1708 1.62922L19.2124 2.54768V2.56614L19.5262 10.0569C19.54 10.38 19.2908 10.6523 18.9632 10.6661C18.6447 10.6892 18.3678 10.4308 18.354 10.1077L18.0632 3.29999C17.491 3.37845 16.9187 3.4523 16.3603 3.55845ZM15.2296 5.9446C8.15014 8.74153 3.44281 15.5954 3.44281 23.2661V23.3538H8.06246C8.38551 23.3538 8.64857 23.6169 8.64857 23.9446C8.64857 24.2723 8.38551 24.5308 8.06246 24.5308H1.37528C1.26452 24.5308 1.17683 24.6185 1.17683 24.7292V28.1954C1.17683 28.2969 1.25529 28.3846 1.35682 28.3892L22.0691 30.0646L32.2821 29.1369C32.596 29.1046 32.8913 29.3446 32.919 29.6677C32.9467 29.9954 32.7113 30.2815 32.3883 30.3092L22.1245 31.2415C22.1245 31.2415 22.0921 31.2461 22.0737 31.2461C22.0552 31.2461 22.0414 31.2415 22.0229 31.2415L1.26452 29.5615C0.553804 29.5061 0 28.9061 0 28.1954V24.7292C0 23.9723 0.618414 23.3538 1.37528 23.3538H2.26598V23.2661C2.26598 14.9954 7.41635 7.61537 15.1188 4.72614L15.0404 3.87691C14.9758 3.17076 15.4465 2.53845 16.1388 2.4046C16.7526 2.28922 17.3848 2.20153 18.0125 2.11845L17.994 1.67999C17.9663 0.996911 18.4509 0.392296 19.1155 0.267681C21.0676 -0.0923193 23.0936 -0.0923193 25.0458 0.267681C25.7011 0.387681 26.1765 0.992296 26.1488 1.67076L26.1303 2.11845C26.7579 2.20153 27.3856 2.2846 28.004 2.39999C28.6963 2.53383 29.1716 3.16614 29.107 3.8723C29.0793 4.15383 29.0562 4.43076 29.0285 4.7123C31.6637 5.69999 34.0958 7.25999 36.0803 9.25383C38.6186 11.7831 40.4184 14.9538 41.2907 18.4154C41.3691 18.7292 41.1753 19.0523 40.8615 19.1308C40.8153 19.14 40.7646 19.1492 40.7184 19.1492C40.4554 19.1492 40.2154 18.9692 40.1461 18.7015C39.3293 15.4477 37.6356 12.4661 35.2496 10.0846C33.459 8.2846 31.2807 6.86307 28.9178 5.93076C28.507 10.4538 28.0917 14.9723 27.6856 19.4954H28.5809C28.9039 19.4954 29.167 19.7585 29.167 20.0861C29.167 20.4138 28.9039 20.6723 28.5809 20.6723H15.5665C15.2388 20.6723 14.9758 20.4092 14.9758 20.0861C14.9758 19.7631 15.2388 19.4954 15.5665 19.4954H16.4664L15.2296 5.93999V5.9446Z" fill="#2E4157"/>
</g>
<defs>
<clipPath id="clip0_34_150">
<rect width="60" height="60" fill="white"/>
</clipPath>
</defs>
</svg>
