<svg width="64" height="60" viewBox="0 0 64 60" fill="none" xmlns="http://www.w3.org/2000/svg">
<g clip-path="url(#clip0_37_190)">
<path d="M9.4534 4.11232C10.2377 4.11232 10.8735 3.47381 10.8735 2.68616C10.8735 1.89852 10.2377 1.26001 9.4534 1.26001C8.66912 1.26001 8.03333 1.89852 8.03333 2.68616C8.03333 3.47381 8.66912 4.11232 9.4534 4.11232Z" fill="white"/>
<path d="M22.2939 4.11232C23.0781 4.11232 23.7139 3.47381 23.7139 2.68616C23.7139 1.89852 23.0781 1.26001 22.2939 1.26001C21.5096 1.26001 20.8738 1.89852 20.8738 2.68616C20.8738 3.47381 21.5096 4.11232 22.2939 4.11232Z" fill="white"/>
<path d="M56.6055 35.94C57.636 35.94 58.4714 35.1011 58.4714 34.0662C58.4714 33.0313 57.636 32.1923 56.6055 32.1923C55.575 32.1923 54.7396 33.0313 54.7396 34.0662C54.7396 35.1011 55.575 35.94 56.6055 35.94Z" fill="white"/>
<path d="M56.6238 27.9046C60.0017 27.9138 62.7453 30.6738 62.7453 34.0661C62.7453 37.4584 59.9925 40.2323 56.6055 40.2323C53.2184 40.2323 50.4656 37.4677 50.4656 34.0661C50.4656 30.6646 53.2138 27.9092 56.5917 27.9046H56.6238ZM59.726 34.0661C59.726 32.34 58.3243 30.9369 56.6055 30.9369C54.8867 30.9369 53.485 32.34 53.485 34.0661C53.485 35.7923 54.8867 37.2 56.6055 37.2C58.3243 37.2 59.726 35.7969 59.726 34.0661Z" fill="white"/>
<path d="M25.7131 21.4431H30.4788C30.1939 28.0292 25.4557 33.7385 18.9941 35.1508C17.4959 35.4923 15.8506 35.5754 14.2835 35.4046C13.7596 35.3492 13.2449 35.2662 12.7439 35.1508C6.29154 33.7292 1.54876 28.02 1.26382 21.4431H6.03418C6.35588 26.6123 10.6483 30.72 15.8782 30.72C21.1081 30.72 25.3868 26.6123 25.7131 21.4431Z" fill="white"/>
<path d="M14.3984 36.6785C14.5546 36.6923 14.7063 36.7062 14.8625 36.7154C14.9912 36.7246 15.1245 36.7292 15.2532 36.7338C15.3956 36.7385 15.5335 36.7431 15.6714 36.7477C15.7403 36.7477 15.8093 36.7477 15.8782 36.7477C15.9517 36.7477 16.0253 36.7477 16.0988 36.7385C16.2229 36.7385 16.347 36.7338 16.471 36.7292C16.6227 36.7292 16.7744 36.72 16.926 36.7108C17.0409 36.7015 17.1558 36.6923 17.2707 36.6785C17.4224 36.6692 17.574 36.6554 17.7257 36.6369C17.8544 36.6231 17.9784 36.6 18.1071 36.5862C18.2404 36.5631 18.3737 36.5492 18.5024 36.5262H18.5069V41.58C18.5069 41.7369 18.3829 41.8662 18.222 41.8662H13.5206C13.3643 41.8662 13.2357 41.7369 13.2357 41.58V36.5262C13.2357 36.5262 13.2632 36.5308 13.2724 36.5308C13.3368 36.5446 13.4057 36.5492 13.47 36.5631C13.6677 36.5908 13.8653 36.6185 14.0629 36.6415C14.1732 36.6554 14.2881 36.6646 14.3984 36.6738V36.6785Z" fill="white"/>
<path d="M58.4713 34.0662C58.4713 33.0323 57.6349 32.1923 56.6055 32.1923C55.576 32.1923 54.7396 33.0323 54.7396 34.0662C54.7396 35.1 55.576 35.94 56.6055 35.94C57.6349 35.94 58.4713 35.1 58.4713 34.0662ZM56.6055 30.9369C58.3243 30.9369 59.726 32.34 59.726 34.0662C59.726 35.7923 58.3243 37.2 56.6055 37.2C54.8867 37.2 53.485 35.7969 53.485 34.0662C53.485 32.3354 54.8867 30.9369 56.6055 30.9369Z" fill="#2E4157"/>
<path d="M56.5917 27.9046C53.2138 27.9092 50.4656 30.6738 50.4656 34.0662C50.4656 37.4585 53.223 40.2323 56.6055 40.2323C59.9879 40.2323 62.7454 37.4677 62.7454 34.0662C62.7454 30.6646 60.0017 27.9138 56.6239 27.9046H56.5917ZM23.7139 2.68615C23.7139 1.90154 23.0751 1.26 22.2938 1.26C21.5126 1.26 20.8738 1.90154 20.8738 2.68615C20.8738 3.47077 21.508 4.11231 22.2938 4.11231C23.0797 4.11231 23.7139 3.47538 23.7139 2.68615ZM10.8735 2.68615C10.8735 1.90154 10.2347 1.26 9.4534 1.26C8.67212 1.26 8.03332 1.90154 8.03332 2.68615C8.03332 3.47077 8.66753 4.11231 9.4534 4.11231C10.2393 4.11231 10.8735 3.47538 10.8735 2.68615ZM14.0629 36.6462C13.8653 36.6231 13.6677 36.5954 13.4701 36.5677C13.4057 36.5538 13.3368 36.5492 13.2724 36.5354C13.2632 36.5354 13.2495 36.5354 13.2357 36.5308V41.5846C13.2357 41.7415 13.3644 41.8708 13.5206 41.8708H18.222C18.3829 41.8708 18.507 41.7415 18.507 41.5846V36.5308H18.5024C18.3737 36.5538 18.2404 36.5677 18.1071 36.5908C17.9785 36.6046 17.8544 36.6277 17.7257 36.6415C17.574 36.66 17.4224 36.6738 17.2707 36.6831C17.1558 36.6969 17.0409 36.7062 16.926 36.7154C16.7744 36.7246 16.6227 36.7292 16.4711 36.7338C16.347 36.7385 16.2229 36.7431 16.0988 36.7431C16.0253 36.7477 15.9517 36.7523 15.8782 36.7523C15.8093 36.7523 15.7403 36.7523 15.6714 36.7523C15.5335 36.7477 15.3957 36.7431 15.2532 36.7385C15.1245 36.7385 14.9912 36.7292 14.8626 36.72C14.7063 36.7108 14.5546 36.6969 14.3984 36.6831C14.2881 36.6738 14.1732 36.6646 14.0629 36.6508V36.6462ZM0.625018 20.1831H2.93667V6.54923C2.93667 4.26462 4.64627 2.37692 6.84303 2.1C7.11418 0.9 8.18038 0 9.4534 0C10.9286 0 12.1281 1.20462 12.1281 2.68615C12.1281 4.16769 10.9286 5.37231 9.4534 5.37231C8.21255 5.37231 7.16932 4.51846 6.8706 3.36923C5.35401 3.62769 4.1913 4.95231 4.1913 6.54923V20.1831H6.64082C6.9855 20.1831 7.26583 20.4646 7.26583 20.8154C7.26583 25.5831 11.1308 29.46 15.8782 29.46C20.6256 29.46 24.4768 25.5831 24.4768 20.8154C24.4768 20.4646 24.7571 20.1831 25.1018 20.1831H27.5559V6.54923C27.5559 4.95231 26.3932 3.62769 24.8766 3.36923C24.5733 4.51846 23.5301 5.37231 22.2938 5.37231C20.8186 5.37231 19.6191 4.16769 19.6191 2.68615C19.6191 1.20462 20.8186 0 22.2938 0C23.5669 0 24.6331 0.9 24.8996 2.1C27.101 2.38154 28.806 4.26462 28.806 6.54923V20.1831H31.1176C31.4669 20.1831 31.7472 20.4646 31.7472 20.8154C31.7472 28.08 26.7333 34.4954 19.7616 36.2631V41.5846C19.7616 42.4385 19.0722 43.1308 18.222 43.1308H16.1218V47.3908C16.1218 50.4231 17.2983 53.2754 19.4307 55.4169C21.5631 57.5585 24.4079 58.7446 27.4227 58.7446C33.6591 58.7446 38.7281 53.6492 38.7281 47.3908V26.9077C38.7281 24.4246 39.6932 22.0892 41.4396 20.3308C43.186 18.5815 45.5068 17.6169 47.9839 17.6169C53.007 17.6169 57.0972 21.66 57.2213 26.6769C61.0128 26.9908 64 30.1846 64 34.0662C64 38.16 60.6819 41.4923 56.6055 41.4923C52.5291 41.4923 49.2156 38.16 49.2156 34.0662C49.2156 30.1892 52.1936 27 55.9713 26.6769C55.8472 22.3523 52.3131 18.8769 47.9839 18.8769C45.8423 18.8769 43.834 19.7077 42.3266 21.2215C40.8192 22.7354 39.9828 24.7615 39.9828 26.9077V47.3908C39.9828 54.3462 34.3484 60 27.4227 60C24.0724 60 20.9197 58.6892 18.5437 56.3077C16.1723 53.9262 14.8672 50.76 14.8672 47.3908V43.1308H13.5206C12.6704 43.1308 11.981 42.4385 11.981 41.5846V36.2585C5.00934 34.4862 0 28.0708 0 20.8154C0 20.4646 0.280339 20.1831 0.625018 20.1831ZM1.26382 21.4431C1.54876 28.02 6.29154 33.7292 12.7439 35.1508C13.2449 35.2662 13.7596 35.3492 14.2835 35.4046C15.8506 35.5754 17.4959 35.4923 18.9941 35.1508C25.4557 33.7385 30.1939 28.0292 30.4788 21.4431H25.7131C25.3868 26.6123 21.099 30.72 15.8782 30.72C10.6575 30.72 6.35588 26.6123 6.03418 21.4431H1.26382Z" fill="#2E4157"/>
</g>
<defs>
<clipPath id="clip0_37_190">
<rect width="64" height="60" fill="white"/>
</clipPath>
</defs>
</svg>
