<svg width="59" height="60" viewBox="0 0 59 60" fill="none" xmlns="http://www.w3.org/2000/svg">
<g clip-path="url(#clip0_37_243)">
<path d="M54.3604 4.50461C54.4527 4.55538 54.4896 4.68461 54.4388 4.78615L44.6155 23.4969H33.8237L48.5633 1.38461C48.6232 1.2923 48.7524 1.26461 48.8538 1.31538L54.3604 4.50461Z" fill="white"/>
<path d="M1.37434 24.7846H57.6303C56.2698 35.5154 48.8446 44.6077 38.5508 48.0785C35.6546 49.0569 32.6061 49.5508 29.5069 49.5508C29.1749 49.5508 28.9074 49.8 28.8659 50.1231C28.8244 50.4554 29.0273 50.7554 29.3455 50.8338C31.7022 51.4154 34.1004 51.7061 36.4893 51.7061C37.0289 51.7061 37.5685 51.6738 38.1081 51.6461V53.8246C38.1081 54.1846 38.3987 54.4754 38.7492 54.4754H43.504C43.6562 54.4754 43.7853 54.6046 43.7853 54.7569V58.4354C43.7853 58.5877 43.6562 58.7169 43.504 58.7169H15.4914C15.3392 58.7169 15.21 58.5877 15.21 58.4354V54.7569C15.21 54.6046 15.3392 54.4754 15.4914 54.4754H20.2462C20.606 54.4754 20.8965 54.1846 20.8965 53.8246V48.6923C20.8965 48.4108 20.7166 48.1708 20.4584 48.0831C10.1554 44.6077 2.73024 35.5154 1.37434 24.7846ZM35.9313 37.5554C35.9313 37.1954 35.65 36.9046 35.2902 36.9046H30.1434V31.7538C30.1434 31.4031 29.8528 31.1123 29.5023 31.1123C29.1518 31.1123 28.852 31.4031 28.852 31.7538V36.9046H23.7144C23.3546 36.9046 23.0641 37.1954 23.0641 37.5554C23.0641 37.9154 23.3546 38.1969 23.7144 38.1969H28.852V43.3477C28.852 43.6985 29.1426 43.9892 29.5023 43.9892C29.862 43.9892 30.1434 43.6985 30.1434 43.3477V38.1969H35.2902C35.65 38.1969 35.9313 37.9061 35.9313 37.5554Z" fill="white"/>
<path d="M30.1434 36.9092H35.2902C35.65 36.9092 35.9313 37.2 35.9313 37.56C35.9313 37.92 35.65 38.2015 35.2902 38.2015H30.1434V43.3523C30.1434 43.7031 29.8528 43.9938 29.5023 43.9938C29.1518 43.9938 28.852 43.7031 28.852 43.3523V38.2015H23.7144C23.3546 38.2015 23.0641 37.9108 23.0641 37.56C23.0641 37.2092 23.3546 36.9092 23.7144 36.9092H28.852V31.7585C28.852 31.4077 29.1426 31.1169 29.5023 31.1169C29.862 31.1169 30.1434 31.4077 30.1434 31.7585V36.9092Z" fill="#2E4157"/>
<path d="M57.6257 24.7846H1.37434C2.73485 35.5154 10.16 44.6077 20.463 48.0785C20.7213 48.1708 20.9011 48.4108 20.9011 48.6877V53.82C20.9011 54.18 20.6106 54.4708 20.2508 54.4708H15.496C15.3438 54.4708 15.2146 54.6 15.2146 54.7523V58.4308C15.2146 58.5831 15.3438 58.7123 15.496 58.7123H43.5086C43.6608 58.7123 43.79 58.5831 43.79 58.4308V54.7523C43.79 54.6 43.6608 54.4708 43.5086 54.4708H38.7538C38.4033 54.4708 38.1127 54.18 38.1127 53.82V51.6415C37.5731 51.6739 37.0335 51.7015 36.4939 51.7015C34.105 51.7015 31.7068 51.4108 29.3501 50.8292C29.0319 50.7508 28.829 50.4508 28.8705 50.1185C28.912 49.8 29.1795 49.5462 29.5115 49.5462C32.6107 49.5462 35.6592 49.0569 38.5555 48.0739C48.8492 44.6031 56.2744 35.5108 57.6349 24.78L57.6257 24.7846ZM43.504 53.1785C44.3757 53.1785 45.0721 53.88 45.0721 54.7477V58.4262C45.0721 59.2985 44.3711 59.9954 43.504 59.9954H15.4914C14.6335 59.9954 13.9233 59.2938 13.9233 58.4262V54.7477C13.9233 53.8754 14.6335 53.1785 15.4914 53.1785H19.6006V49.1492C8.83639 45.3277 1.1622 35.5892 -2.37606e-06 24.2077C-0.01845 24.0277 0.0415047 23.8385 0.170638 23.7092C0.290547 23.5708 0.461187 23.4969 0.650275 23.4969H32.2602L47.4933 0.664622C47.9314 0.0138523 48.8123 -0.19384 49.4903 0.203083L54.9969 3.38308C55.6887 3.77539 55.9469 4.64308 55.5964 5.35385L46.0729 23.4969H58.3543C58.5342 23.4969 58.7141 23.5662 58.834 23.7092C58.9539 23.8385 59.0138 24.0277 58.9954 24.2077C57.8378 35.5892 50.1728 45.3323 39.3994 49.1492V53.1785H43.5086H43.504ZM44.6155 23.4969L54.4388 4.78616C54.4896 4.68462 54.4481 4.55539 54.3604 4.50462L48.8538 1.31539C48.7524 1.26462 48.6232 1.29693 48.5633 1.38462L33.8237 23.4969H44.6155Z" fill="#2E4157"/>
</g>
<defs>
<clipPath id="clip0_37_243">
<rect width="59" height="60" fill="white"/>
</clipPath>
</defs>
</svg>
