<svg width="31" height="60" viewBox="0 0 31 60" fill="none" xmlns="http://www.w3.org/2000/svg">
<g clip-path="url(#clip0_36_160)">
<path d="M20.0724 36.2631C25.4533 36.2631 29.8252 40.6431 29.8252 46.0338C29.8252 51.4246 25.4533 55.8046 20.0724 55.8046C14.6915 55.8046 10.3241 51.42 10.3241 46.0338C10.3241 40.6477 14.6961 36.2631 20.0724 36.2631Z" fill="white"/>
<path d="M13.8853 28.0062V37.0154C11.029 38.9908 9.14936 42.2954 9.14936 46.0339C9.14936 49.7723 10.9599 52.9523 13.7332 54.9369C13.185 57.2077 11.158 58.8231 8.7808 58.8231C5.96136 58.8231 3.67172 56.5292 3.67172 53.7092V28.0062H13.8853Z" fill="white"/>
<path d="M13.8853 9.02768V26.8338H3.67172V23.0446H8.82226C9.14936 23.0446 9.41195 22.7815 9.41195 22.4584C9.41195 22.1354 9.14936 21.8677 8.82226 21.8677H3.67172V18.5169H6.47734C6.79982 18.5169 7.06242 18.2538 7.06242 17.9308C7.06242 17.6077 6.79982 17.34 6.47734 17.34H3.67172V13.9938H8.82226C9.14936 13.9938 9.41195 13.7261 9.41195 13.4031C9.41195 13.08 9.14936 12.8169 8.82226 12.8169H3.67172V9.02768H13.8853Z" fill="white"/>
<path d="M16.3822 1.37537V7.65229C16.3822 7.76306 16.2947 7.85076 16.1841 7.85076H1.37287C1.26231 7.85076 1.17477 7.76306 1.17477 7.65229V1.37537C1.17477 1.2646 1.26231 1.17691 1.37287 1.17691H3.07283V3.44768C3.07283 3.77076 3.33542 4.03383 3.65791 4.03383C3.98039 4.03383 4.24759 3.77076 4.24759 3.44768V1.17691H6.48656V3.44768C6.48656 3.77076 6.74915 4.03383 7.07164 4.03383C7.39412 4.03383 7.66132 3.77076 7.66132 3.44768V1.17691H9.90029V3.44768C9.90029 3.77076 10.1629 4.03383 10.4854 4.03383C10.8079 4.03383 11.0751 3.77076 11.0751 3.44768V1.17691H13.3094V3.44768C13.3094 3.77076 13.5766 4.03383 13.8991 4.03383C14.2216 4.03383 14.4842 3.77076 14.4842 3.44768V1.17691H16.1841C16.2947 1.17691 16.3822 1.2646 16.3822 1.37537Z" fill="white"/>
<path d="M3.67172 21.8677H8.82226C9.14935 21.8677 9.41195 22.1308 9.41195 22.4585C9.41195 22.7862 9.14935 23.0446 8.82226 23.0446H3.67172V26.8338H13.8853V9.02769H3.67172V12.8169H8.82226C9.14935 12.8169 9.41195 13.08 9.41195 13.4031C9.41195 13.7262 9.14935 13.9938 8.82226 13.9938H3.67172V17.34H6.47734C6.79982 17.34 7.06242 17.6077 7.06242 17.9308C7.06242 18.2538 6.79982 18.5169 6.47734 18.5169H3.67172V21.8677ZM7.66132 1.17692V3.44769C7.66132 3.77077 7.39412 4.03385 7.07163 4.03385C6.74915 4.03385 6.48655 3.77077 6.48655 3.44769V1.17692H4.24759V3.44769C4.24759 3.77077 3.98499 4.03385 3.6579 4.03385C3.33081 4.03385 3.07282 3.77077 3.07282 3.44769V1.17692H1.37286C1.2623 1.17692 1.17477 1.26462 1.17477 1.37538V7.65231C1.17477 7.76308 1.2623 7.85077 1.37286 7.85077H16.1841C16.2947 7.85077 16.3822 7.76308 16.3822 7.65231V1.37538C16.3822 1.26462 16.2947 1.17692 16.1841 1.17692H14.4842V3.44769C14.4842 3.77077 14.2216 4.03385 13.8991 4.03385C13.5766 4.03385 13.3094 3.77077 13.3094 3.44769V1.17692H11.075V3.44769C11.075 3.77077 10.8078 4.03385 10.4854 4.03385C10.1629 4.03385 9.90028 3.77077 9.90028 3.44769V1.17692H7.66132ZM8.7808 58.8231C11.158 58.8231 13.185 57.2077 13.7332 54.9369C10.9599 52.9523 9.14935 49.6985 9.14935 46.0338C9.14935 42.3692 11.029 38.9908 13.8853 37.0154V28.0062H3.67172V53.7092C3.67172 56.5292 5.96136 58.8231 8.7808 58.8231ZM29.8252 46.0338C29.8252 40.6431 25.4533 36.2631 20.0724 36.2631C14.6915 36.2631 10.3241 40.6431 10.3241 46.0338C10.3241 51.4246 14.6961 55.8046 20.0724 55.8046C25.4487 55.8046 29.8252 51.42 29.8252 46.0338ZM31 46.0338C31 52.0662 26.0982 56.9769 20.0724 56.9769C18.1513 56.9769 16.3408 56.4738 14.7652 55.5969C13.9636 58.1908 11.5726 60 8.7808 60C5.31639 60 2.49695 57.18 2.49695 53.7092V27.4246V9.02769H1.37286C0.617328 9.02769 0 8.40923 0 7.65231V1.37538C0 0.618462 0.617328 0 1.37286 0H16.1841C16.9397 0 17.557 0.618462 17.557 1.37538V7.65231C17.557 8.40923 16.9397 9.02769 16.1841 9.02769H15.06V27.3831C15.06 27.3831 15.06 27.3969 15.0554 27.4015C15.06 27.4062 15.06 27.4154 15.06 27.42V36.3092C16.5619 35.5292 18.2665 35.0862 20.0724 35.0862C26.0982 35.0862 31 39.9969 31 46.0338Z" fill="#2E4157"/>
<path d="M19.2247 40.1908C17.8933 41.9631 15.6635 45.2077 15.6635 47.0031C15.6635 49.44 17.6399 51.42 20.0724 51.42C22.5048 51.42 24.4812 49.44 24.4812 47.0031C24.4812 45.2077 22.2514 41.9631 20.92 40.1908C20.5146 39.6462 19.6255 39.6462 19.2201 40.1908H19.2247ZM20.0724 50.2477C18.2895 50.2477 16.8383 48.7939 16.8383 47.0077C16.8383 45.9923 18.0776 43.7031 20.0724 41.0215C22.0718 43.7077 23.3064 45.9923 23.3064 47.0077C23.3064 48.7939 21.8553 50.2477 20.0724 50.2477Z" fill="#2E4157"/>
</g>
<defs>
<clipPath id="clip0_36_160">
<rect width="31" height="60" fill="white"/>
</clipPath>
</defs>
</svg>
