<svg width="52" height="60" viewBox="0 0 52 60" fill="none" xmlns="http://www.w3.org/2000/svg">
<g clip-path="url(#clip0_25_72)">
<path d="M16.8 53.32C16.8 56.38 14.39 58.87 11.43 58.87C8.47 58.87 6.06 56.38 6.06 53.32C6.06 50.26 8.47 47.78 11.43 47.78C14.39 47.78 16.8 50.27 16.8 53.32ZM14.6 53.32C14.6 51.51 13.17 50.05 11.42 50.05C9.67 50.05 8.25 51.51 8.25 53.32C8.25 55.13 9.67 56.6 11.42 56.6C13.17 56.6 14.6 55.13 14.6 53.32Z" fill="white"/>
<path d="M11.43 51.18C12.58 51.18 13.52 52.14 13.52 53.33C13.52 54.52 12.58 55.48 11.43 55.48C10.28 55.48 9.35001 54.51 9.35001 53.33C9.35001 52.15 10.28 51.18 11.43 51.18Z" fill="white"/>
<path d="M45.03 51.18C46.18 51.18 47.12 52.14 47.12 53.33C47.12 54.52 46.18 55.48 45.03 55.48C43.88 55.48 42.95 54.51 42.95 53.33C42.95 52.15 43.88 51.18 45.03 51.18Z" fill="white"/>
<path d="M45.03 47.78C48 47.78 50.4 50.27 50.4 53.32C50.4 56.37 47.99 58.87 45.03 58.87C42.07 58.87 39.66 56.38 39.66 53.32C39.66 50.26 42.07 47.78 45.03 47.78ZM48.2 53.32C48.2 51.51 46.77 50.05 45.02 50.05C43.27 50.05 41.85 51.51 41.85 53.32C41.85 55.13 43.28 56.6 45.02 56.6C46.76 56.6 48.2 55.13 48.2 53.32Z" fill="white"/>
<path d="M32.21 39.5C32.21 41.47 30.65 43.08 28.74 43.08C26.83 43.08 25.26 41.47 25.26 39.5C25.26 37.53 26.82 35.91 28.74 35.91C30.66 35.91 32.21 37.52 32.21 39.5Z" fill="white"/>
<path d="M50.91 19.93H33.05L49.49 12.68C50.4 14.91 50.91 17.37 50.92 19.93H50.91Z" fill="white"/>
<path d="M32.65 1.13C39.83 1.13 46.05 5.42 49.03 11.66L31.75 19.29L39.02 7.03C39.18 6.77001 39.1 6.41001 38.84 6.26C38.59 6.09 38.25 6.18 38.09 6.45L30.93 18.52V1.13H32.65Z" fill="white"/>
<path d="M29.84 1.13H26.62V19.94H29.84V1.13Z" fill="white"/>
<path d="M50.91 21.06V24.61H19.45L16.47 21.06H50.91Z" fill="white"/>
<path d="M49.52 25.73V31.98C49.52 35.81 46.5 38.93 42.79 38.93H33.26C32.98 36.6 31.06 34.79 28.74 34.79C28.49 34.79 28.26 34.82 28.03 34.86L20.39 25.74H49.52V25.73Z" fill="white"/>
<path d="M14.01 25.73L24.38 38.1C24.3 38.36 24.25 38.65 24.21 38.93H13.66C9.94999 38.93 6.92999 35.81 6.92999 31.98V25.73H14.01Z" fill="white"/>
<path d="M10.09 21.06L13.07 24.61H6.39001H5.54001V21.06H10.09Z" fill="white"/>
<path d="M18.81 25.57L26.88 35.2C26.06 35.58 25.37 36.21 24.89 36.99L14.65 24.77L1.32001 8.87L3.31001 7.08L18.8 25.56V25.58L18.81 25.57Z" fill="white"/>
<path d="M45.03 56.61C43.28 56.61 41.86 55.14 41.86 53.33C41.86 51.52 43.29 50.06 45.03 50.06C46.77 50.06 48.21 51.52 48.21 53.33C48.21 55.14 46.78 56.61 45.03 56.61ZM42.95 53.32C42.95 54.51 43.88 55.47 45.03 55.47C46.18 55.47 47.12 54.5 47.12 53.32C47.12 52.14 46.18 51.17 45.03 51.17C43.88 51.17 42.95 52.13 42.95 53.32Z" fill="#2E4157"/>
<path d="M13.51 53.32C13.51 52.13 12.57 51.17 11.42 51.17C10.27 51.17 9.34001 52.13 9.34001 53.32C9.34001 54.51 10.27 55.47 11.42 55.47C12.57 55.47 13.51 54.5 13.51 53.32ZM11.43 50.05C13.18 50.05 14.61 51.51 14.61 53.32C14.61 55.13 13.18 56.6 11.43 56.6C9.68001 56.6 8.26001 55.13 8.26001 53.32C8.26001 51.51 9.68001 50.05 11.43 50.05Z" fill="#2E4157"/>
<path d="M49.48 12.68L33.04 19.93H50.9C50.9 17.36 50.38 14.91 49.47 12.68H49.48ZM49.03 11.65C46.05 5.42 39.83 1.12 32.65 1.12H30.93V18.49L38.09 6.42C38.25 6.15 38.58 6.07 38.84 6.23C39.1 6.39 39.18 6.74 39.02 7L31.75 19.26L49.03 11.63V11.65ZM45.03 47.78C42.07 47.78 39.66 50.27 39.66 53.32C39.66 56.37 42.07 58.87 45.03 58.87C47.99 58.87 50.4 56.38 50.4 53.32C50.4 50.26 47.99 47.78 45.03 47.78ZM50.91 21.06H16.47L19.44 24.6H50.9V21.06H50.91ZM32.21 39.5C32.21 37.53 30.65 35.91 28.74 35.91C26.83 35.91 25.26 37.52 25.26 39.5C25.26 41.48 26.82 43.08 28.74 43.08C30.66 43.08 32.21 41.47 32.21 39.5ZM28.74 34.79C31.07 34.79 32.99 36.61 33.26 38.93H42.79C46.5 38.93 49.52 35.81 49.52 31.98V25.73H20.39L28.03 34.85C28.26 34.81 28.5 34.78 28.74 34.78V34.79ZM29.84 19.93V1.13H26.62V19.94H29.84V19.93ZM13.07 24.61L10.1 21.07H5.54999V24.61H13.08H13.07ZM24.38 38.11L14.01 25.74H6.92999V31.99C6.92999 35.82 9.94999 38.94 13.66 38.94H24.21C24.25 38.66 24.3 38.38 24.38 38.11ZM15.57 19.93H25.53V0.56C25.53 0.25 25.77 0 26.08 0H32.65C43.32 0 52 8.97 52 19.98V25.17C52 25.49 51.75 25.73 51.45 25.73H50.61V31.98C50.61 36.43 47.1 40.05 42.79 40.05H33.26C33.22 40.41 33.14 40.76 33.02 41.09L40.68 48.4C41.83 47.31 43.35 46.65 45.02 46.65C48.58 46.65 51.49 49.64 51.49 53.32C51.49 57 48.59 60 45.02 60C41.45 60 38.56 57 38.56 53.32C38.56 51.77 39.08 50.35 39.93 49.23L32.51 42.13C31.69 43.38 30.3 44.2 28.74 44.2C27.18 44.2 25.68 43.31 24.87 41.98L16.63 49.39C17.42 50.49 17.89 51.85 17.89 53.32C17.89 57 14.99 60 11.42 60C7.84999 60 4.95999 57 4.95999 53.32C4.95999 49.64 7.84999 46.65 11.42 46.65C13.17 46.65 14.75 47.37 15.91 48.53L24.38 40.92C24.29 40.64 24.23 40.35 24.2 40.05H13.65C9.33999 40.05 5.82999 36.43 5.82999 31.98V25.73H4.98999C4.68999 25.73 4.43999 25.48 4.43999 25.17V20.5C4.43999 20.19 4.68999 19.94 4.98999 19.94H9.13999L0.12999 9.18C-0.0700095 8.95 -0.0400095 8.59 0.18999 8.39L3.00999 5.87C3.11999 5.77 3.25999 5.72 3.39999 5.73C3.54999 5.73 3.67999 5.81 3.77999 5.92L15.53 19.95C15.53 19.95 15.55 19.95 15.57 19.95V19.93ZM16.8 53.32C16.8 50.26 14.39 47.78 11.43 47.78C8.46999 47.78 6.05999 50.27 6.05999 53.32C6.05999 56.37 8.46999 58.87 11.43 58.87C14.39 58.87 16.8 56.38 16.8 53.32ZM18.8 25.56L3.30999 7.08L1.31999 8.87L14.65 24.77L24.89 36.99C25.37 36.21 26.06 35.59 26.88 35.2L18.81 25.57V25.55L18.8 25.56Z" fill="#2E4157"/>
</g>
<defs>
<clipPath id="clip0_25_72">
<rect width="52" height="60" fill="white"/>
</clipPath>
</defs>
</svg>
