<svg width="65" height="60" viewBox="0 0 65 60" fill="none" xmlns="http://www.w3.org/2000/svg">
<g clip-path="url(#clip0_25_56)">
<path d="M14.56 32.17V58.75H5.95V33.35C5.95 32.7 6.48 32.17 7.14 32.17H14.57H14.56Z" fill="white"/>
<path d="M59.05 33.35V58.75H50.43V32.17H57.86C58.51 32.17 59.05 32.7 59.05 33.35Z" fill="white"/>
<path d="M39.01 48.51H25.99V58.75H39.01V48.51Z" fill="white"/>
<path d="M41.64 34.39H35.49V40.5H41.64V34.39Z" fill="white"/>
<path d="M29.51 34.39H23.36V40.5H29.51V34.39Z" fill="white"/>
<path d="M29.51 22.34H23.36V28.45H29.51V22.34Z" fill="white"/>
<path d="M41.64 22.34H35.49V28.45H41.64V22.34Z" fill="white"/>
<path d="M37.22 7.96999C37.22 7.61999 36.94 7.33999 36.59 7.33999H33.14V3.89999C33.14 3.55999 32.86 3.26999 32.51 3.26999C32.16 3.26999 31.88 3.55999 31.88 3.89999V7.33999H28.43C28.08 7.33999 27.8 7.61999 27.8 7.96999C27.8 8.31999 28.08 8.59999 28.43 8.59999H31.88V12.03C31.88 12.38 32.16 12.66 32.51 12.66C32.86 12.66 33.14 12.38 33.14 12.03V8.59999H36.59C36.94 8.59999 37.22 8.31999 37.22 7.96999ZM39.25 1.25999V14.67H25.34C24.99 14.67 24.71 14.95 24.71 15.3C24.71 15.65 24.99 15.93 25.34 15.93H39.87C40.22 15.93 40.5 15.65 40.5 15.3V8.76999H47.97C48.62 8.76999 49.16 9.29999 49.16 9.94999V58.75H40.27V47.88C40.27 47.54 39.98 47.25 39.64 47.25H25.35C25.01 47.25 24.72 47.54 24.72 47.88V58.75H15.83V9.94999C15.83 9.29999 16.36 8.76999 17.02 8.76999H25.12C25.46 8.76999 25.74 8.48999 25.74 8.13999V1.25999H39.25ZM42.91 41.13V33.76C42.91 33.41 42.63 33.13 42.28 33.13H34.86C34.51 33.13 34.23 33.41 34.23 33.76V41.13C34.23 41.48 34.51 41.76 34.86 41.76H42.28C42.63 41.76 42.91 41.48 42.91 41.13ZM42.91 29.08V21.71C42.91 21.36 42.63 21.08 42.28 21.08H34.86C34.51 21.08 34.23 21.36 34.23 21.71V29.08C34.23 29.43 34.51 29.71 34.86 29.71H42.28C42.63 29.71 42.91 29.43 42.91 29.08ZM30.78 41.13V33.76C30.78 33.41 30.5 33.13 30.15 33.13H22.73C22.38 33.13 22.1 33.41 22.1 33.76V41.13C22.1 41.48 22.38 41.76 22.73 41.76H30.15C30.5 41.76 30.78 41.48 30.78 41.13ZM30.78 29.08V21.71C30.78 21.36 30.5 21.08 30.15 21.08H22.73C22.38 21.08 22.1 21.36 22.1 21.71V29.08C22.1 29.43 22.38 29.71 22.73 29.71H30.15C30.5 29.71 30.78 29.43 30.78 29.08Z" fill="white"/>
<path d="M41.64 28.45V22.34H35.49V28.45H41.64ZM42.91 21.71V29.08C42.91 29.43 42.63 29.71 42.28 29.71H34.86C34.51 29.71 34.23 29.43 34.23 29.08V21.71C34.23 21.36 34.51 21.08 34.86 21.08H42.28C42.63 21.08 42.91 21.36 42.91 21.71Z" fill="#2E4157"/>
<path d="M41.64 40.5V34.39H35.49V40.5H41.64ZM42.91 33.76V41.13C42.91 41.48 42.63 41.76 42.28 41.76H34.86C34.51 41.76 34.23 41.48 34.23 41.13V33.76C34.23 33.41 34.51 33.13 34.86 33.13H42.28C42.63 33.13 42.91 33.41 42.91 33.76Z" fill="#2E4157"/>
<path d="M33.13 7.34H36.58C36.93 7.34 37.21 7.62 37.21 7.97C37.21 8.32 36.93 8.6 36.58 8.6H33.13V12.03C33.13 12.38 32.85 12.66 32.5 12.66C32.15 12.66 31.87 12.38 31.87 12.03V8.6H28.42C28.07 8.6 27.79 8.32 27.79 7.97C27.79 7.62 28.07 7.34 28.42 7.34H31.87V3.9C31.87 3.56 32.15 3.27 32.5 3.27C32.85 3.27 33.13 3.56 33.13 3.9V7.34Z" fill="#2E4157"/>
<path d="M29.51 28.45V22.34H23.36V28.45H29.51ZM30.78 21.71V29.08C30.78 29.43 30.5 29.71 30.15 29.71H22.73C22.38 29.71 22.1 29.43 22.1 29.08V21.71C22.1 21.36 22.38 21.08 22.73 21.08H30.15C30.5 21.08 30.78 21.36 30.78 21.71Z" fill="#2E4157"/>
<path d="M29.51 40.5V34.39H23.36V40.5H29.51ZM30.78 33.76V41.13C30.78 41.48 30.5 41.76 30.15 41.76H22.73C22.38 41.76 22.1 41.48 22.1 41.13V33.76C22.1 33.41 22.38 33.13 22.73 33.13H30.15C30.5 33.13 30.78 33.41 30.78 33.76Z" fill="#2E4157"/>
<path d="M14.56 58.75V32.17H7.13C6.48 32.17 5.94 32.7 5.94 33.35V58.75H14.56ZM39.01 58.75V48.51H25.99V58.75H39.01ZM49.17 58.75V9.95C49.17 9.3 48.64 8.77 47.98 8.77H40.51V15.3C40.51 15.65 40.23 15.93 39.88 15.93H25.35C25 15.93 24.72 15.65 24.72 15.3C24.72 14.95 25 14.67 25.35 14.67H39.26V1.26H25.75V8.14C25.75 8.49 25.47 8.77 25.13 8.77H17.03C16.38 8.77 15.84 9.3 15.84 9.95V58.75H24.73V47.88C24.73 47.54 25.02 47.25 25.36 47.25H39.65C39.99 47.25 40.28 47.54 40.28 47.88V58.75H49.17ZM59.05 58.75V33.35C59.05 32.7 58.52 32.17 57.86 32.17H50.43V58.75H59.05ZM60.32 58.75H64.37C64.72 58.75 65 59.03 65 59.37C65 59.71 64.72 60 64.37 60H0.63C0.28 60 0 59.72 0 59.37C0 59.02 0.28 58.75 0.63 58.75H4.68V33.35C4.68 32.01 5.78 30.91 7.14 30.91H14.57V9.95C14.57 8.61 15.68 7.51 17.03 7.51H24.5V0.63C24.5 0.29 24.78 0 25.13 0H39.89C40.24 0 40.52 0.29 40.52 0.63V7.51H47.99C49.34 7.51 50.45 8.61 50.45 9.95V30.91H57.88C59.24 30.91 60.34 32.01 60.34 33.35V58.75H60.32Z" fill="#2E4157"/>
</g>
<defs>
<clipPath id="clip0_25_56">
<rect width="65" height="60" fill="white"/>
</clipPath>
</defs>
</svg>
