<svg width="65" height="43" viewBox="0 0 65 43" fill="none" xmlns="http://www.w3.org/2000/svg">
<g clip-path="url(#clip0_41_303)">
<path d="M63.637 31.6943V40.3968C63.637 41.0882 63.0692 41.6505 62.371 41.6505H2.62898C1.9308 41.6505 1.36292 41.0882 1.36292 40.3968V36.8708H52.954C53.3315 36.8708 53.6355 36.5698 53.6355 36.1961C53.6355 35.8223 53.3315 35.5213 52.954 35.5213H1.36292V31.6943H63.637Z" fill="white"/>
<path d="M57.5072 7.44232C59.5683 9.49309 59.5683 12.8206 57.5072 14.8615L48.2806 24.0039L39.1977 15.007C37.2469 13.0786 36.9763 10.062 38.5664 7.9914C39.5051 6.77417 40.9148 6.01671 42.4347 5.91417C42.5516 5.90424 42.6686 5.90094 42.7888 5.90094C44.1818 5.90094 45.5314 6.45332 46.5302 7.44232L47.7929 8.69263C48.0568 8.95725 48.4878 8.95725 48.755 8.69263L50.0177 7.44232C51.0165 6.45332 52.3995 5.8844 53.8159 5.8844H53.8192C54.788 5.88771 56.2144 6.15894 57.5072 7.44232ZM53.375 14.9442C53.375 14.5704 53.071 14.2694 52.6935 14.2694H48.9788V10.5912C48.9788 10.2175 48.6715 9.91648 48.2973 9.91648C47.9232 9.91648 47.6125 10.2175 47.6125 10.5912V14.2694H43.8979C43.5237 14.2694 43.2164 14.5704 43.2164 14.9442C43.2164 15.3179 43.5237 15.6189 43.8979 15.6189H47.6125V19.2971C47.6125 19.6709 47.9199 19.9719 48.2973 19.9719C48.6748 19.9719 48.9788 19.6709 48.9788 19.2971V15.6189H52.6935C53.071 15.6189 53.375 15.3179 53.375 14.9442Z" fill="white"/>
<path d="M63.637 2.60316V30.3448H1.36292V2.60316C1.36292 1.91186 1.9308 1.34955 2.62898 1.34955H62.371C63.0692 1.34955 63.637 1.91186 63.637 2.60316ZM58.4726 15.8141C61.0648 13.2473 61.0648 9.06639 58.4726 6.4897C57.1865 5.21293 55.5797 4.53816 53.8226 4.53486H53.8159C52.0421 4.53486 50.305 5.24601 49.0523 6.4897L48.274 7.26039L47.4956 6.4897C46.1327 5.14016 44.252 4.43563 42.3445 4.56793C40.4304 4.69363 38.6566 5.64293 37.4807 7.17439C35.4797 9.77755 35.8038 13.5582 38.2323 15.9629L47.3186 24.9565C47.5825 25.2212 47.9332 25.3535 48.284 25.3535C48.6347 25.3535 48.9821 25.2212 49.2494 24.9565L58.4726 15.8141ZM17.7515 12.3939V6.17547C17.7515 5.27247 17.0099 4.53486 16.0946 4.53486H6.23675C5.32144 4.53486 4.57984 5.27247 4.57984 6.17547V12.3939C4.57984 13.2969 5.32144 14.0312 6.23675 14.0312H16.0946C17.0099 14.0312 17.7515 13.2969 17.7515 12.3939Z" fill="white"/>
<path d="M16.3886 6.17546V12.3939C16.3886 12.5527 16.2584 12.6817 16.0947 12.6817H6.23678C6.07643 12.6817 5.94281 12.5527 5.94281 12.3939V6.17546C5.94281 6.0167 6.07643 5.8877 6.23678 5.8877H16.0947C16.2584 5.8877 16.3886 6.0167 16.3886 6.17546Z" fill="white"/>
<path d="M65 2.60315V40.3968C65 41.8324 63.8208 43 62.371 43H2.629C1.17921 43 0 41.8324 0 40.3968V2.60315C0 1.16762 1.17921 0 2.629 0H62.371C63.8208 0 65 1.16762 65 2.60315ZM63.6371 40.3968V31.6943H1.36294V35.5213H52.9541C53.3315 35.5213 53.6355 35.8223 53.6355 36.1961C53.6355 36.5698 53.3315 36.8708 52.9541 36.8708H1.36294V40.3968C1.36294 41.0882 1.93083 41.6505 2.629 41.6505H62.371C63.0692 41.6505 63.6371 41.0882 63.6371 40.3968ZM63.6371 30.3448V2.60315C63.6371 1.91185 63.0692 1.34954 62.371 1.34954H2.629C1.93083 1.34954 1.36294 1.91185 1.36294 2.60315V30.3448H63.6371Z" fill="#2E4157"/>
<path d="M58.4726 6.4897C61.0649 9.06639 61.0649 13.2473 58.4726 15.8141L49.2494 24.9565C48.9822 25.2212 48.6314 25.3535 48.284 25.3535C47.9366 25.3535 47.5825 25.2212 47.3186 24.9565L38.2323 15.9629C35.8038 13.5582 35.4798 9.77754 37.4807 7.17439C38.6566 5.64293 40.4304 4.69362 42.3445 4.56793C44.252 4.43562 46.1327 5.14016 47.4956 6.4897L48.274 7.26039L49.0523 6.4897C50.305 5.24601 52.0421 4.53485 53.8159 4.53485H53.8226C55.5797 4.53816 57.1865 5.21293 58.4726 6.4897ZM57.5072 14.8615C59.5683 12.8206 59.5683 9.49308 57.5072 7.44231C56.2144 6.15893 54.788 5.8877 53.8193 5.88439H53.8159C52.3995 5.88439 51.0165 6.45331 50.0177 7.44231L48.755 8.69262C48.4878 8.95724 48.0568 8.95724 47.7929 8.69262L46.5302 7.44231C45.5314 6.45331 44.1818 5.90093 42.7888 5.90093C42.6686 5.90093 42.5517 5.90424 42.4347 5.91416C40.9148 6.0167 39.5051 6.77416 38.5664 7.99139C36.9763 10.062 37.2469 13.0786 39.1978 15.007L48.2807 24.0039L57.5072 14.8615Z" fill="#2E4157"/>
<path d="M52.6935 14.2694C53.071 14.2694 53.375 14.5704 53.375 14.9442C53.375 15.3179 53.071 15.6189 52.6935 15.6189H48.9788V19.2971C48.9788 19.6709 48.6715 19.9719 48.2974 19.9719C47.9232 19.9719 47.6126 19.6709 47.6126 19.2971V15.6189H43.8979C43.5238 15.6189 43.2164 15.3179 43.2164 14.9442C43.2164 14.5704 43.5238 14.2694 43.8979 14.2694H47.6126V10.5912C47.6126 10.2175 47.9199 9.91647 48.2974 9.91647C48.6749 9.91647 48.9788 10.2175 48.9788 10.5912V14.2694H52.6935Z" fill="#2E4157"/>
<path d="M17.7515 6.17547V12.3939C17.7515 13.2969 17.0099 14.0312 16.0946 14.0312H6.23674C5.32143 14.0312 4.57983 13.2969 4.57983 12.3939V6.17547C4.57983 5.27247 5.32143 4.53485 6.23674 4.53485H16.0946C17.0099 4.53485 17.7515 5.27247 17.7515 6.17547ZM16.3886 12.3939V6.17547C16.3886 6.0167 16.2583 5.8877 16.0946 5.8877H6.23674C6.07639 5.8877 5.94277 6.0167 5.94277 6.17547V12.3939C5.94277 12.5527 6.07639 12.6817 6.23674 12.6817H16.0946C16.2583 12.6817 16.3886 12.5527 16.3886 12.3939Z" fill="#2E4157"/>
</g>
<defs>
<clipPath id="clip0_41_303">
<rect width="65" height="43" fill="white"/>
</clipPath>
</defs>
</svg>
