<svg width="60" height="60" viewBox="0 0 60 60" fill="none" xmlns="http://www.w3.org/2000/svg">
<g clip-path="url(#clip0_29_2)">
<path d="M27.2571 16.574C26.1506 15.5455 24.4286 15.6156 23.4 16.7143C22.3714 17.813 22.4416 19.5429 23.5403 20.5714L33.7013 30L23.5403 39.4286C22.4338 40.4571 22.3714 42.1792 23.4 43.2857C23.9377 43.8623 24.6701 44.1584 25.4026 44.1584C26.0649 44.1584 26.7351 43.9169 27.2571 43.4338L39.5688 32.0104C40.1221 31.4961 40.4416 30.7714 40.4416 30.0078C40.4416 29.2442 40.1221 28.5273 39.5688 28.0052L27.2571 16.5818V16.574Z" fill="#587D8C"/>
<path d="M30 0C13.4571 0 0 13.4571 0 30C0 46.5429 13.4571 60 30 60C46.5429 60 60 46.5429 60 30C60 13.4571 46.5429 0 30 0ZM30 54.5455C16.4649 54.5455 5.45455 43.5351 5.45455 30C5.45455 16.4649 16.4649 5.45455 30 5.45455C43.5351 5.45455 54.5455 16.4649 54.5455 30C54.5455 43.5351 43.5351 54.5455 30 54.5455Z" fill="#587D8C"/>
</g>
<defs>
<clipPath id="clip0_29_2">
<rect width="60" height="60" fill="white"/>
</clipPath>
</defs>
</svg>
