<svg width="60" height="60" viewBox="0 0 60 60" fill="none" xmlns="http://www.w3.org/2000/svg">
<g clip-path="url(#clip0_50_2)">
<path d="M32.7429 16.574C33.8494 15.5455 35.5714 15.6156 36.6 16.7143C37.6286 17.813 37.5584 19.5429 36.4597 20.5714L26.2987 30L36.4597 39.4286C37.5662 40.4571 37.6286 42.1792 36.6 43.2857C36.0623 43.8623 35.3299 44.1584 34.5974 44.1584C33.9351 44.1584 33.2649 43.9169 32.7429 43.4338L20.4312 32.0104C19.8779 31.4961 19.5584 30.7714 19.5584 30.0078C19.5584 29.2442 19.8779 28.5273 20.4312 28.0052L32.7429 16.5818V16.574Z" fill="#587D8C"/>
<path d="M30 0C46.5429 0 60 13.4571 60 30C60 46.5429 46.5429 60 30 60C13.4571 60 1.49012e-06 46.5429 1.49012e-06 30C1.49012e-06 13.4571 13.4571 0 30 0ZM30 54.5455C43.5351 54.5455 54.5455 43.5351 54.5455 30C54.5455 16.4649 43.5351 5.45455 30 5.45455C16.4649 5.45455 5.45455 16.4649 5.45455 30C5.45455 43.5351 16.4649 54.5455 30 54.5455Z" fill="#587D8C"/>
</g>
<defs>
<clipPath id="clip0_50_2">
<rect width="60" height="60" fill="white"/>
</clipPath>
</defs>
</svg>
