<svg width="46" height="60" viewBox="0 0 46 60" fill="none" xmlns="http://www.w3.org/2000/svg">
<g clip-path="url(#clip0_26_112)">
<path d="M44.84 1.17999H1.15997V4.88999H44.84V1.17999Z" fill="white"/>
<path d="M42.85 6.06C42.85 6.06 42.85 6.08 42.85 6.1V28.46C42.85 31.46 40.44 33.9 37.48 33.9H35.7C35.62 33.87 14.11 33.87 14.03 33.9H8.52997C5.56997 33.9 3.15997 31.46 3.15997 28.46V6.06H42.85ZM34.05 19.74C34.1 18.3 33.88 16.09 32.59 13.82C31.22 11.41 29.28 10.12 28.25 9.57C27.97 9.42 27.63 9.52 27.48 9.79L26.24 11.9C25.54 13.11 24.82 14.32 24.12 15.53C23.39 15.3 22.6 15.31 21.9 15.53L20.93 13.88C20.13 12.52 19.33 11.16 18.54 9.79C18.39 9.52 18.04 9.42 17.77 9.56C16.74 10.11 14.8 11.4 13.42 13.82C12.13 16.09 11.91 18.3 11.96 19.74C11.96 20.05 12.22 20.3 12.53 20.31L19.41 20.39C19.6 20.98 19.93 21.51 20.37 21.94L17 27.99C16.85 28.26 16.94 28.62 17.2 28.78C18.97 29.87 20.97 30.45 23 30.45C25.59 30.45 27.58 29.54 28.8 28.78C29.07 28.61 29.16 28.26 29 27.99L25.63 21.94C26.07 21.51 26.4 20.98 26.59 20.39L33.47 20.31C33.78 20.31 34.04 20.05 34.04 19.74H34.05Z" fill="white"/>
<path d="M34.86 35.07V38.18C34.86 38.68 34.45 39.1 33.95 39.1H12.04C11.54 39.1 11.13 38.68 11.13 38.18V35.08H34.86V35.07Z" fill="white"/>
<path d="M32.89 19.15L26.8 19.21C26.8 19.03 26.78 18.86 26.76 18.69C26.76 18.64 26.74 18.58 26.73 18.53C26.71 18.42 26.69 18.3 26.66 18.19C26.64 18.13 26.62 18.07 26.61 18.01C26.57 17.91 26.54 17.81 26.5 17.71C26.47 17.65 26.45 17.59 26.41 17.53C26.36 17.44 26.32 17.34 26.26 17.26C26.23 17.21 26.2 17.15 26.16 17.1C26.1 17.01 26.04 16.91 25.97 16.83C25.93 16.78 25.91 16.74 25.87 16.7C25.76 16.57 25.65 16.45 25.52 16.34C25.5 16.32 25.49 16.31 25.47 16.29C25.38 16.21 25.28 16.13 25.18 16.05L27.25 12.5L28.19 10.88C29.16 11.48 30.55 12.59 31.59 14.41C32.09 15.29 32.41 16.16 32.6 16.96C32.8 17.77 32.88 18.51 32.89 19.15Z" fill="white"/>
<path d="M24.69 22.64L27.71 28.08C26.61 28.69 25 29.3 23 29.3C21.37 29.3 19.75 28.88 18.29 28.08L21.31 22.64C21.46 22.72 21.6 22.77 21.76 22.83C21.83 22.85 21.9 22.87 21.96 22.89C22.05 22.91 22.15 22.94 22.24 22.95C22.34 22.97 22.43 22.99 22.53 23C22.58 23 22.63 23 22.68 23C22.78 23.02 22.89 23.03 22.99 23.03C23.11 23.03 23.21 23.01 23.32 23C23.37 23 23.41 23 23.46 23C23.56 22.98 23.66 22.97 23.76 22.95C23.85 22.93 23.92 22.91 24.01 22.9C24.09 22.88 24.16 22.85 24.23 22.83C24.38 22.78 24.53 22.72 24.67 22.64H24.69Z" fill="white"/>
<path d="M24.12 16.78C25.03 17.22 25.63 18.17 25.63 19.2C25.63 19.36 25.61 19.52 25.58 19.7C25.46 20.35 25.09 20.95 24.55 21.35C23.88 21.85 22.97 21.98 22.18 21.73C21.92 21.64 21.67 21.52 21.44 21.35C20.91 20.96 20.53 20.36 20.41 19.7C20.38 19.53 20.36 19.36 20.36 19.21C20.36 19.08 20.36 18.95 20.39 18.83C20.51 17.95 21.07 17.18 21.88 16.8C22.22 16.64 22.59 16.55 22.99 16.55C23.39 16.55 23.76 16.64 24.11 16.8L24.12 16.78Z" fill="white"/>
<path d="M20.13 16.68C20.13 16.68 20.08 16.76 20.04 16.8C19.96 16.89 19.89 16.99 19.83 17.09C19.79 17.14 19.76 17.19 19.73 17.25C19.68 17.34 19.63 17.43 19.58 17.53C19.55 17.58 19.53 17.65 19.5 17.7C19.45 17.8 19.42 17.9 19.38 18.01C19.36 18.06 19.34 18.13 19.33 18.19C19.3 18.3 19.28 18.41 19.26 18.53C19.24 18.58 19.24 18.64 19.23 18.69C19.21 18.85 19.19 19.03 19.19 19.2L13.1 19.15C13.13 17.88 13.41 16.17 14.41 14.41C15.46 12.58 16.85 11.48 17.81 10.88C18.51 12.08 19.21 13.28 19.92 14.48L20.83 16.04C20.72 16.12 20.62 16.2 20.53 16.28C20.51 16.3 20.49 16.31 20.48 16.32C20.36 16.44 20.24 16.56 20.13 16.68Z" fill="white"/>
<path d="M23 46.77C25.56 46.77 27.16 45.04 27.45 44.7C27.66 44.46 28.02 44.43 28.27 44.64C28.51 44.86 28.53 45.23 28.32 45.47C27.82 46.05 25.98 47.94 22.99 47.95C20 47.95 18.16 46.05 17.66 45.47C17.45 45.23 17.47 44.86 17.71 44.64C17.96 44.44 18.32 44.46 18.53 44.7C18.68 44.87 19.15 45.39 19.91 45.87C20.66 46.34 21.7 46.77 22.98 46.77H23Z" fill="#2E4157"/>
<path d="M32.77 49.85C31.86 50.91 28.49 54.38 23 54.38C17.37 54.38 13.87 50.6 13.23 49.85C13.01 49.6 13.04 49.23 13.28 49.02C13.53 48.81 13.89 48.83 14.1 49.08C14.69 49.76 17.88 53.21 23 53.21C28.12 53.21 31.3 49.77 31.89 49.08C32.1 48.83 32.46 48.81 32.71 49.02C32.95 49.23 32.98 49.6 32.76 49.85H32.77Z" fill="#2E4157"/>
<path d="M19.93 14.48C19.23 13.28 18.52 12.08 17.82 10.88C16.86 11.48 15.47 12.58 14.42 14.41C13.42 16.17 13.14 17.88 13.11 19.15L19.2 19.21C19.2 19.03 19.22 18.86 19.24 18.69C19.24 18.64 19.26 18.58 19.27 18.53C19.29 18.41 19.31 18.3 19.34 18.19C19.36 18.13 19.38 18.06 19.39 18.01C19.43 17.91 19.46 17.81 19.51 17.7C19.53 17.65 19.56 17.58 19.59 17.53C19.64 17.43 19.68 17.34 19.74 17.25C19.77 17.2 19.8 17.14 19.84 17.09C19.9 16.99 19.97 16.89 20.05 16.8C20.08 16.76 20.1 16.72 20.14 16.68C20.25 16.55 20.36 16.44 20.49 16.32C20.51 16.32 20.53 16.3 20.54 16.28C20.63 16.2 20.73 16.12 20.84 16.04L19.93 14.48ZM27.71 28.07L24.69 22.63C24.55 22.71 24.4 22.76 24.25 22.82C24.18 22.84 24.1 22.87 24.03 22.89C23.94 22.91 23.87 22.93 23.78 22.94C23.68 22.96 23.58 22.98 23.48 22.99C23.43 22.99 23.39 22.99 23.34 22.99C23.23 23.01 23.12 23.02 23.01 23.02C22.91 23.02 22.8 23 22.7 22.99C22.65 22.99 22.59 22.99 22.55 22.99C22.45 22.97 22.36 22.96 22.26 22.94C22.17 22.92 22.07 22.9 21.98 22.88C21.92 22.86 21.85 22.84 21.78 22.82C21.63 22.77 21.48 22.71 21.33 22.63L18.31 28.07C19.77 28.87 21.38 29.29 23.02 29.29C25.02 29.29 26.63 28.69 27.73 28.07H27.71ZM25.63 19.2C25.63 18.17 25.03 17.22 24.12 16.78C23.76 16.62 23.39 16.53 23 16.53C22.61 16.53 22.23 16.62 21.89 16.78C21.08 17.16 20.52 17.93 20.4 18.81C20.38 18.94 20.37 19.07 20.37 19.19C20.37 19.35 20.39 19.51 20.42 19.68C20.54 20.34 20.92 20.93 21.45 21.33C21.67 21.5 21.92 21.63 22.19 21.71C22.98 21.96 23.89 21.84 24.56 21.33C25.1 20.93 25.47 20.33 25.59 19.68C25.63 19.5 25.64 19.33 25.64 19.18L25.63 19.2ZM33.48 20.31L26.6 20.39C26.41 20.98 26.08 21.51 25.64 21.94L29.01 27.99C29.16 28.26 29.08 28.61 28.81 28.78C27.59 29.54 25.6 30.45 23.01 30.45C20.98 30.45 18.98 29.87 17.21 28.78C16.95 28.62 16.85 28.26 17.01 27.99L20.38 21.94C19.94 21.51 19.61 20.98 19.42 20.39L12.54 20.31C12.23 20.31 11.97 20.05 11.97 19.74C11.92 18.3 12.14 16.09 13.43 13.82C14.82 11.4 16.75 10.11 17.78 9.56001C18.05 9.42001 18.39 9.51001 18.55 9.79001C19.34 11.15 20.15 12.51 20.94 13.88L21.91 15.53C22.61 15.31 23.4 15.3 24.13 15.53C24.83 14.32 25.55 13.11 26.25 11.9L27.49 9.79001C27.64 9.52001 27.99 9.42001 28.26 9.57001C29.29 10.12 31.23 11.41 32.6 13.82C33.89 16.09 34.11 18.3 34.06 19.74C34.06 20.05 33.8 20.3 33.49 20.31H33.48ZM26.72 18.53C26.74 18.58 26.74 18.64 26.75 18.69C26.77 18.85 26.79 19.03 26.79 19.2L32.88 19.15C32.86 18.51 32.79 17.77 32.59 16.96C32.4 16.16 32.07 15.29 31.58 14.41C30.54 12.59 29.15 11.48 28.18 10.88L27.24 12.5L25.17 16.05C25.27 16.12 25.37 16.21 25.46 16.29C25.48 16.31 25.5 16.32 25.51 16.34C25.63 16.45 25.75 16.58 25.86 16.7C25.9 16.74 25.92 16.78 25.96 16.83C26.03 16.92 26.09 17.01 26.15 17.1C26.19 17.15 26.22 17.21 26.25 17.26C26.3 17.35 26.35 17.44 26.4 17.53C26.43 17.59 26.45 17.65 26.49 17.71C26.53 17.8 26.56 17.91 26.6 18.01C26.62 18.07 26.64 18.13 26.65 18.19C26.68 18.3 26.7 18.42 26.72 18.53Z" fill="#2E4157"/>
<path d="M37.81 53.13C36.83 54.28 31.53 60 23 60C14.47 60 9.16001 54.27 8.19001 53.13C7.98001 52.88 8.00001 52.51 8.25001 52.3C8.49001 52.09 8.85001 52.11 9.06001 52.36C9.98001 53.44 14.98 58.82 23 58.82C31.02 58.82 36.01 53.43 36.93 52.36C37.14 52.12 37.5 52.09 37.74 52.3C37.99 52.51 38.01 52.88 37.8 53.13H37.81Z" fill="#2E4157"/>
<path d="M44.84 4.89V1.18H1.16V4.89H44.84ZM34.86 38.18V35.07H11.14V38.18C11.14 38.68 11.55 39.1 12.05 39.1H33.97C34.47 39.1 34.88 38.68 34.88 38.18H34.86ZM14.02 33.9C14.1 33.87 35.61 33.87 35.69 33.9H37.47C40.43 33.9 42.84 31.46 42.84 28.46V6.1C42.84 6.1 42.84 6.07 42.84 6.06H3.16V28.46C3.16 31.46 5.57 33.9 8.53 33.9H14.03H14.02ZM36.03 38.18C36.03 39.33 35.1 40.27 33.96 40.27H12.04C10.9 40.27 9.97 39.33 9.97 38.18V35.08H8.52C4.92 35.08 1.99 32.12 1.99 28.47V6.06H0.58C0.26 6.06 0 5.79 0 5.47V0.59C0 0.27 0.26 0 0.58 0H45.42C45.74 0 46 0.27 46 0.59V5.48C46 5.8 45.74 6.07 45.42 6.07H44C44 6.07 44 6.09 44 6.11V28.47C44 32.12 41.07 35.08 37.47 35.08H36.02V38.19L36.03 38.18Z" fill="#2E4157"/>
</g>
<defs>
<clipPath id="clip0_26_112">
<rect width="46" height="60" fill="white"/>
</clipPath>
</defs>
</svg>
