<svg width="62" height="60" viewBox="0 0 62 60" fill="none" xmlns="http://www.w3.org/2000/svg">
<g clip-path="url(#clip0_40_276)">
<path d="M4.59534 37.6117C4.59534 37.6117 2.36994 28.9475 1.62961 24.8028C0.889268 20.6537 0.516908 13.7416 2.00196 11.715C3.48702 9.68839 4.9677 7.4744 4.9677 7.4744C4.9677 7.4744 7.19309 5.72238 9.32211 4.89431C11.4511 4.06625 15.7135 3.1423 17.8426 3.6958C19.9716 4.24929 27.3837 6.27588 28.4044 6.3674C29.4251 6.45893 34.8879 5.53934 37.1133 5.07736C39.3386 4.61539 45.6337 3.1423 47.8591 4.06189C50.0845 4.98148 56.2876 10.5121 56.3796 11.5276C56.4715 12.543 60.0856 17.1497 58.0486 27.0124C56.0116 36.8751 51.8412 46.4589 51.8412 46.4589C51.8412 46.4589 47.8591 54.8442 46.6544 56.2258C45.4497 57.6073 43.3207 59.8213 41.3757 59.2678C39.4306 58.7143 37.8536 58.1608 37.2052 56.0427C36.5569 53.9246 35.8166 48.2109 35.9086 47.287C36.0006 46.363 35.5362 42.4014 34.1475 41.2029C32.7588 40.0044 30.9978 39.0848 29.6091 39.2678C28.2204 39.4509 25.5351 40.5579 24.8867 42.4929C24.2384 44.428 23.774 45.535 23.682 47.7446C23.59 49.9542 23.406 52.3513 22.9417 54.3822C22.4773 56.4132 21.645 58.5313 19.792 58.7143C17.9389 58.8974 15.7179 59.3593 15.0696 58.2523C14.4212 57.1454 11.7359 55.2103 11.3635 53.9202C10.9912 52.6302 10.1588 50.9697 10.1588 50.9697C10.1588 50.9697 5.71241 41.2944 4.59972 37.6073L4.59534 37.6117Z" fill="white"/>
<path d="M53.5102 2.07452C55.0522 5.32578 56.6511 6.90782 59.9148 8.44192C56.6468 9.98039 55.0522 11.5711 53.5102 14.8137C51.9682 11.5624 50.3692 9.98039 47.1056 8.44192C50.3736 6.90782 51.9682 5.31706 53.5102 2.07452Z" fill="white"/>
<path d="M50.4043 5.65263C50.102 5.52188 49.7954 5.39985 49.4931 5.29089C49.6508 5.16015 49.7954 5.02068 49.9356 4.88122C50.159 4.65895 50.3649 4.42796 50.5664 4.1839C50.7591 4.25799 50.9475 4.33644 51.1402 4.41924C51.9857 4.79405 51.2498 6.02744 50.4087 5.65263H50.4043Z" fill="#2E4157"/>
<path d="M51.1358 4.41926C50.9431 4.33645 50.7547 4.258 50.562 4.18391C51.2935 3.28175 51.9068 2.17912 52.5377 0.740894C52.7085 0.357368 53.0896 0.108948 53.5102 0.108948C53.9307 0.108948 54.3162 0.357368 54.4827 0.740894C56.1035 4.41054 57.5536 5.85748 61.2509 7.47003C61.6364 7.64 61.8861 8.02353 61.8861 8.43756C61.8861 8.85159 61.6364 9.23948 61.2509 9.41381C57.5536 11.022 56.1035 12.4689 54.4827 16.1429C54.3118 16.5265 53.9307 16.7749 53.5102 16.7749C53.0896 16.7749 52.7041 16.5265 52.5377 16.1429C50.9168 12.4733 49.4668 11.022 45.7739 9.41381C45.3884 9.23948 45.1343 8.86031 45.1343 8.43756C45.1343 8.01481 45.3884 7.63564 45.7739 7.47003C46.8559 6.99934 47.7452 6.54172 49.4887 5.2909C49.791 5.39986 50.0976 5.51753 50.3999 5.65264C51.241 6.02745 51.9769 4.79406 51.1315 4.41926H51.1358ZM53.5102 2.07452C51.9682 5.31705 50.3692 6.90781 47.1056 8.44192C50.3736 9.98038 51.9682 11.5668 53.5102 14.8137C55.0522 11.5711 56.6511 9.98038 59.9148 8.44192C56.6468 6.90781 55.0522 5.32577 53.5102 2.07452Z" fill="#2E4157"/>
<path d="M12.8442 57.0669C11.5782 55.5633 10.7152 53.8723 9.87408 52.1334C10.172 51.7106 10.5093 51.362 10.9211 51.0482C10.9517 51.1222 10.9868 51.2007 11.0174 51.2704C12.0469 53.5149 13.3086 55.9599 15.3237 57.4809C16.3838 58.2829 17.5973 58.6359 18.9158 58.3395C20.0767 58.0824 20.9704 57.3894 21.5574 56.3652C22.9067 54.0118 22.8103 50.9436 22.9592 48.3243C23.0381 47.0168 23.0994 45.6788 23.4192 44.4062C23.8792 42.567 25.0138 40.8368 26.5602 39.7167C28.0058 38.6707 29.964 38.309 31.6724 38.8974C33.4729 39.5293 34.9141 41.0285 35.7509 42.7065C37.0651 45.3258 36.7978 48.4724 37.0344 51.3053C37.214 53.5934 37.5426 56.7139 39.8118 57.9473C43.3733 59.8736 46.212 56.0863 47.6883 53.3493C52.2968 44.7766 55.5691 35.5023 57.4879 25.9708C57.6762 25.0686 59.0605 25.4522 58.8809 26.35C58.6312 27.5703 58.3684 28.7862 58.0749 30.0022C56.9184 34.8398 55.4027 39.599 53.5321 44.2144C52.6078 46.5112 51.5958 48.7775 50.5094 50.9959C49.5413 52.9701 48.5819 54.9967 47.2195 56.7357C46.0543 58.2349 44.4991 59.5773 42.5453 59.83C41.0559 60.0218 39.4745 59.5903 38.3136 58.6489C36.1364 56.8839 35.7859 53.7023 35.5844 51.1092C35.3566 48.1499 35.6764 44.8289 33.8365 42.3012C32.7676 40.8281 31.1073 39.8213 29.2411 40.0915C27.3224 40.3748 25.8373 42.1181 25.1408 43.8091C24.602 45.1079 24.5319 46.5548 24.4399 47.9364C24.3479 49.4051 24.2997 50.8782 24.1245 52.3426C23.8222 54.9314 23.1345 58.0344 20.5367 59.2809C19.2488 59.8998 17.6805 60.0872 16.3137 59.6121C14.9294 59.1327 13.786 58.1565 12.853 57.0538L12.8442 57.0669Z" fill="#2E4157"/>
<path d="M10.6582 50.4903C10.7502 50.6777 10.8335 50.8651 10.9167 51.0482C10.5049 51.362 10.1676 51.7106 9.86971 52.1334C9.71638 51.8327 9.56744 51.5189 9.41411 51.2138C9.00671 50.3901 10.2508 49.6666 10.6539 50.4903H10.6582Z" fill="#2E4157"/>
<path d="M8.02982 45.8313C8.84463 47.3785 9.77334 48.2981 11.3241 49.1087C9.76896 49.9194 8.84463 50.8433 8.02982 52.3861C7.21501 50.839 6.2863 49.9194 4.73553 49.1087C6.29068 48.2894 7.21501 47.3741 8.02982 45.8313Z" fill="white"/>
<path d="M11.3241 49.1087C9.76893 48.2981 8.8446 47.3741 8.02979 45.8313C7.21498 47.3785 6.28627 48.2937 4.73551 49.1087C6.29065 49.9194 7.21498 50.8433 8.02979 52.3861C8.8446 50.8389 9.77331 49.9194 11.3241 49.1087ZM2.61963 49.1087C2.61963 48.7426 2.83866 48.4114 3.17598 48.2589C4.28429 47.7795 5.03777 47.3306 5.63793 46.7291C6.24247 46.132 6.6893 45.3824 7.17555 44.2798C7.32888 43.9442 7.65743 43.7263 8.02979 43.7263C8.40215 43.7263 8.7307 43.9442 8.88403 44.2798C9.85216 46.4763 10.6757 47.2957 12.8836 48.2589C13.2209 48.4114 13.4399 48.7383 13.4399 49.1087C13.4399 49.4792 13.2209 49.806 12.8836 49.9586C12.0688 50.3116 11.438 50.6515 10.9254 51.0481C10.8422 50.8607 10.7546 50.6733 10.667 50.4903C10.2596 49.6666 9.01983 50.39 9.42723 51.2138C9.58056 51.5188 9.7295 51.8326 9.88282 52.1333C9.52799 52.6215 9.21696 53.1968 8.89279 53.9377C8.73946 54.2732 8.41091 54.4912 8.03855 54.4912C7.66619 54.4912 7.33764 54.2732 7.18431 53.9377C6.21618 51.7411 5.39261 50.9218 3.18474 49.9586C2.84743 49.8148 2.62839 49.4792 2.62839 49.1087H2.61963Z" fill="#2E4157"/>
<path d="M1.56827 19.8867C1.65151 22.4014 2.08958 24.8682 2.61526 27.3262C3.32931 30.6951 4.43549 35.727 5.5 39C5.78475 39.8804 4.78475 40.3716 4.5 39.5C3.26026 35.6909 1.66027 29.976 0.884886 26.0492C0.359202 23.3558 0.0131271 20.6014 0.135787 17.8644C0.236543 15.5415 0.687754 13.2316 1.67341 11.1135C2.70287 8.89517 4.3544 7.0342 6.37828 5.66571C8.73509 4.07931 11.4467 3.25996 14.2854 3.14228C17.0015 3.03333 19.7219 3.4953 22.3678 4.1011C24.5582 4.6023 26.7485 5.31705 28.9783 5.58726C30.8489 5.81389 32.7019 5.23424 34.4892 4.76791C39.7504 3.40814 45.3402 2.13989 50.5664 4.18391C50.3649 4.43233 50.159 4.65896 49.9355 4.88123C49.7954 5.02069 49.6508 5.16015 49.4931 5.2909C44.0961 3.39506 38.353 5.36499 33.0042 6.61581C32.1192 6.82065 31.2124 7.01241 30.3056 7.06907C29.4426 7.12137 28.5709 6.99062 27.721 6.83372C25.4518 6.40661 23.2352 5.7398 20.9704 5.26475C18.4252 4.7374 15.8099 4.38439 13.2122 4.65895C10.6013 4.92481 8.07799 5.98822 6.07601 7.67922C2.4707 10.7213 1.41057 15.3585 1.56827 19.8867Z" fill="#2E4157"/>
</g>
<defs>
<clipPath id="clip0_40_276">
<rect width="62" height="60" fill="white"/>
</clipPath>
</defs>
</svg>
