<svg width="70" height="60" viewBox="0 0 70 60" fill="none" xmlns="http://www.w3.org/2000/svg">
<g clip-path="url(#clip0_34_141)">
<path d="M69.5614 38.6118C70.6041 40.9016 69.7173 43.6264 67.5492 44.8113L42.3936 58.5701C40.6688 59.52 38.7345 60 36.8002 60C35.5432 60 34.2861 59.795 33.0729 59.385L21.2771 55.3704C19.1772 54.6604 16.9262 54.7954 14.9237 55.7454L8.58487 58.7801C8.22919 58.9501 7.81992 58.7901 7.65426 58.4351L0.0632544 41.7265C-0.102403 41.3665 0.0535098 40.9466 0.399441 40.7766C0.750245 40.6016 1.16439 40.7666 1.32517 41.1216L1.34954 41.1716C1.11079 41.3765 1.03284 41.7265 1.17413 42.0265C1.31056 42.3215 1.61751 42.4765 1.91959 42.4215L8.62384 57.1752L14.3342 54.4455C16.6582 53.3356 19.2746 53.1756 21.7108 54.0055L33.5066 58.0202C36.2155 58.9401 39.2169 58.6801 41.7358 57.3002L66.8865 43.5414C68.4018 42.7064 69.0206 40.8116 68.2897 39.2117C67.5394 37.5569 65.61 36.8469 64.0021 37.6119L45.7019 46.3711C45.6775 46.7811 45.619 47.2011 45.4729 47.611C45.0733 48.7359 44.2694 49.6309 43.217 50.1408C42.6323 50.4208 42.0038 50.5658 41.3704 50.5658C40.8686 50.5658 40.3667 50.4708 39.8746 50.2958L25.2822 44.8413C24.9216 44.7013 24.7365 44.2913 24.8631 43.9213C24.9996 43.5514 25.3942 43.3614 25.7596 43.4914L40.3521 48.9459C41.0976 49.2259 41.9015 49.1809 42.6177 48.8409C43.3339 48.501 43.8796 47.891 44.1525 47.1261C44.7128 45.5462 43.9137 43.7963 42.379 43.2214L21.9885 35.612C19.1187 34.5421 15.8933 34.7021 13.1404 36.062L2.09499 42.3665C2.03653 42.3965 1.97319 42.4115 1.90985 42.4265L1.33979 41.1766C1.38364 41.1416 1.43724 41.1066 1.49083 41.0766L12.5363 34.7721C15.6253 33.2422 19.2405 33.0572 22.4709 34.2621L42.8565 41.8815C44.2207 42.3915 45.1805 43.5314 45.5508 44.8663L63.4029 36.317C65.7172 35.2171 68.47 36.242 69.5517 38.6068L69.5614 38.6118Z" fill="#2E4157"/>
<path d="M68.2947 39.2167C69.0207 40.8166 68.4068 42.7114 66.8915 43.5464L41.7408 57.3052C39.2218 58.6851 36.2205 58.9451 33.5115 58.0252L21.7157 54.0105C19.2796 53.1806 16.6632 53.3406 14.3391 54.4505L8.62881 57.1802L1.92455 42.4265C1.98789 42.4165 2.0561 42.3965 2.1097 42.3665L13.1552 36.062C15.908 34.7021 19.1334 34.5421 22.0032 35.612L42.3937 43.2214C43.9285 43.8014 44.7226 45.5462 44.1672 47.1261C43.8944 47.891 43.3487 48.496 42.6324 48.8409C41.9162 49.1859 41.1074 49.2209 40.3668 48.9459L25.7744 43.4914C25.4089 43.3564 25.0143 43.5514 24.8779 43.9213C24.7463 44.2913 24.9363 44.7013 25.2969 44.8413L39.8893 50.2958C40.3814 50.4758 40.8833 50.5658 41.3851 50.5658C42.0185 50.5658 42.6422 50.4208 43.2317 50.1408C44.2841 49.6309 45.0881 48.7359 45.4876 47.611C45.6338 47.2011 45.6971 46.7811 45.7166 46.3711L64.0169 37.6119C65.6247 36.8419 67.5541 37.5519 68.3045 39.2117L68.2947 39.2167Z" fill="white"/>
<path d="M50.8373 2.93476C54.5841 6.79443 54.5841 13.0639 50.8373 16.9086L36.4592 31.6224C36.5957 31.3574 36.5518 31.0124 36.3277 30.7924L35.8064 30.2575L49.8434 15.8937C53.0494 12.6039 53.0494 7.2444 49.8385 3.93967C47.8311 1.87484 45.6143 1.43488 44.1087 1.43488H44.1038C41.9065 1.43488 39.748 2.3498 38.1987 3.94467L36.3131 5.87951C36.0354 6.15949 35.5969 6.15949 35.324 5.87951L33.4336 3.94467C31.738 2.19482 29.3993 1.29989 27.0022 1.47988C24.6147 1.66486 22.4173 2.92476 20.9703 4.93959C18.5877 8.25431 19.0409 13.0589 22.0227 16.1237L35.7966 30.2575L35.3289 30.7324C35.056 31.0174 35.056 31.4674 35.3289 31.7474C35.6017 32.0273 36.0451 32.0273 36.3228 31.7474L36.4446 31.6224C36.4105 31.6924 36.3715 31.7474 36.3131 31.8073C36.1767 31.9473 35.9964 32.0173 35.821 32.0173C35.6456 32.0173 35.4604 31.9473 35.324 31.8073L21.0287 17.1386C17.5597 13.5789 17.053 7.96934 19.8399 4.09466C21.5403 1.73985 24.1129 0.269977 26.9096 0.059995C29.6965 -0.159987 32.4445 0.889926 34.4324 2.92976L35.821 4.35964L37.2145 2.92976C39.0269 1.06991 41.541 0 44.1087 0H44.1136C46.6521 0.00499958 48.9761 1.01991 50.8373 2.93476Z" fill="#2E4157"/>
<path d="M49.8434 3.93967C53.0542 7.24439 53.0542 12.6039 49.8483 15.8937L35.8112 30.2575L22.0373 16.1237C19.0555 13.0639 18.6024 8.25931 20.9849 4.93958C22.4271 2.92475 24.6294 1.66486 27.0168 1.47987C29.4139 1.29989 31.7478 2.19981 33.4482 3.94467L35.3386 5.87951C35.6115 6.15948 36.05 6.15948 36.3277 5.87951L38.2133 3.94467C39.7627 2.3448 41.9211 1.43488 44.1185 1.43488H44.1233C45.6289 1.43488 47.8458 1.87484 49.8531 3.93967H49.8434ZM43.1245 15.7937C43.1245 15.3937 42.8078 15.0737 42.4229 15.0737H36.5518V9.04924C36.5518 8.64927 36.24 8.3293 35.8502 8.3293C35.4604 8.3293 35.1486 8.64927 35.1486 9.04924V15.0737H29.2775C28.8926 15.0737 28.5856 15.3937 28.5856 15.7937C28.5856 16.1936 28.8975 16.5036 29.2775 16.5036H35.1486V22.5281C35.1486 22.9281 35.4653 23.2481 35.8502 23.2481C36.2351 23.2481 36.5518 22.9281 36.5518 22.5281V16.5036H42.4229C42.8078 16.5036 43.1245 16.1836 43.1245 15.7937Z" fill="white"/>
<path d="M42.4278 15.0788C42.8127 15.0788 43.1294 15.3987 43.1294 15.7987C43.1294 16.1987 42.8127 16.5086 42.4278 16.5086H36.5567V22.5331C36.5567 22.9331 36.2449 23.2531 35.8551 23.2531C35.4653 23.2531 35.1535 22.9331 35.1535 22.5331V16.5086H29.2824C28.8975 16.5086 28.5905 16.1887 28.5905 15.7987C28.5905 15.4087 28.9023 15.0788 29.2824 15.0788H35.1535V9.05426C35.1535 8.65429 35.4702 8.33432 35.8551 8.33432C36.24 8.33432 36.5567 8.65429 36.5567 9.05426V15.0788H42.4278Z" fill="#2E4157"/>
<path d="M36.3277 30.7924C36.5469 31.0124 36.5908 31.3524 36.4593 31.6224L36.3374 31.7474C36.0597 32.0273 35.6212 32.0323 35.3435 31.7474C35.0658 31.4624 35.0707 31.0174 35.3435 30.7324L35.8112 30.2575L36.3326 30.7924H36.3277Z" fill="#2E4157"/>
<path d="M1.34962 41.1766L1.91967 42.4265C1.62247 42.4865 1.31064 42.3265 1.17422 42.0315C1.03292 41.7315 1.11088 41.3766 1.34962 41.1766Z" fill="#2E4157"/>
</g>
<defs>
<clipPath id="clip0_34_141">
<rect width="70" height="60" fill="white"/>
</clipPath>
</defs>
</svg>
