<svg width="43" height="60" viewBox="0 0 43 60" fill="none" xmlns="http://www.w3.org/2000/svg">
<g clip-path="url(#clip0_38_249)">
<path d="M11.6412 53.6908H8.48056C7.41015 53.6908 6.54189 52.8231 6.54189 51.7569V48.5723L8.95374 50.9908L11.6412 53.6908Z" fill="white"/>
<path d="M41.7504 47.0954V51.7569C41.7504 52.8231 40.8868 53.6908 39.8255 53.6908H29.0664C29.613 51.4016 29.1215 48.9739 27.7203 47.0954H41.7504Z" fill="white"/>
<path d="M26.1078 47.1369C27.9179 48.9554 28.5243 51.6923 27.656 54.1062C27.656 54.1108 27.6514 54.1108 27.6514 54.1108C27.3298 55.0339 26.8107 55.86 26.0986 56.5754L25.8919 56.7923C23.3009 59.3908 19.0927 59.3908 16.5017 56.7923L13.5983 53.8754L10.286 50.5477L19.9013 40.9016L25.8781 46.9108H25.8827L26.1078 47.1369Z" fill="white"/>
<path d="M35.6955 2.30306V7.3246C35.6955 7.90614 35.2269 8.37229 34.6527 8.37229H13.6442C13.07 8.37229 12.6014 7.90614 12.6014 7.3246V2.30306C12.6014 1.72614 13.07 1.25537 13.6442 1.25537H34.6527C35.2269 1.25537 35.6955 1.72614 35.6955 2.30306Z" fill="white"/>
<path d="M41.7504 23.3123V45.8354H26.581L20.3423 39.5677C20.0988 39.3231 19.7037 39.3184 19.4557 39.5677L9.40396 49.6569L6.36731 46.6108L6.36272 46.6061L3.19284 43.4215C0.606413 40.8231 0.606413 36.5908 3.19284 33.9923L3.41336 33.7754C4.18056 33.0046 5.08558 32.4508 6.11464 32.1369C8.47597 31.38 11.0394 32.0077 12.7989 33.7754L14.7927 35.7738C15.0362 36.0231 15.4313 36.0184 15.6794 35.7738C15.9229 35.5292 15.9229 35.1323 15.6794 34.8877L13.681 32.8846C11.7928 30.9831 9.11913 30.2077 6.54648 30.7384V25.2231H34.0325C34.377 25.2231 34.6573 24.9415 34.6573 24.5954C34.6573 24.2492 34.377 23.9677 34.0325 23.9677H6.54648V23.3123C6.54648 20.7323 7.54797 18.3092 9.36261 16.4954C11.1727 14.6769 13.5845 13.6708 16.1526 13.6708C16.6855 13.6708 17.1219 13.2323 17.1219 12.6923V9.63229H31.1796V12.6923C31.1796 13.2323 31.616 13.6708 32.1581 13.6708C37.4458 13.6708 41.7504 17.9954 41.7504 23.3123Z" fill="white"/>
<path d="M27.7203 47.0954C29.1215 48.9738 29.613 51.4015 29.0664 53.6908H39.8255C40.8868 53.6908 41.7504 52.8231 41.7504 51.7569V47.0954H27.7203ZM11.6412 53.6908L8.95375 50.9908L6.54189 48.5723V51.7569C6.54189 52.8231 7.41016 53.6908 8.48056 53.6908H11.6412ZM16.4925 8.37231H34.6573C35.2315 8.37231 35.7001 7.90615 35.7001 7.32462V2.30308C35.7001 1.72615 35.2315 1.25538 34.6573 1.25538H13.6442C13.07 1.25538 12.6014 1.72615 12.6014 2.30308V7.32462C12.6014 7.90615 13.07 8.37231 13.6442 8.37231H16.4879H16.4925ZM26.7831 57.6738C25.2395 59.2246 23.2136 60 21.1922 60C19.1708 60 17.1541 59.2246 15.6197 57.6831L12.8954 54.9508H8.48516C6.72565 54.9508 5.29691 53.5154 5.29691 51.7569V47.3123L2.3108 44.3123C-0.767194 41.22 -0.767194 36.1938 2.3108 33.1015L2.52672 32.8846C3.32608 32.0815 4.25866 31.4908 5.29691 31.1031V23.3123C5.29691 20.3954 6.42704 17.6585 8.47597 15.6046C10.456 13.6154 13.0746 12.4892 15.8677 12.42V9.63231H13.6488C12.3855 9.63231 11.3564 8.59846 11.3564 7.32462V2.30308C11.3564 1.03385 12.3855 0 13.6488 0H34.6573C35.9206 0 36.9497 1.03385 36.9497 2.30308V7.32462C36.9497 8.59846 35.9206 9.63231 34.6573 9.63231H32.4338V12.42C38.2865 12.5631 43.0046 17.3954 43.0046 23.3123V51.7569C43.0046 53.5154 41.5759 54.9508 39.8255 54.9508H28.6621C28.2716 55.8785 27.7203 56.7231 26.9899 57.4569L26.7831 57.6738ZM16.5017 56.7923C19.0927 59.3908 23.3009 59.3908 25.8919 56.7923L26.0986 56.5754C26.8107 55.86 27.3298 55.0338 27.6514 54.1108C27.6514 54.1108 27.656 54.1108 27.656 54.1062C28.5243 51.6923 27.9179 48.9554 26.1078 47.1369L25.8827 46.9108H25.8781L19.9013 40.9015L10.286 50.5477L13.5983 53.8754L16.5017 56.7923ZM20.3377 39.5677L26.5764 45.8354H41.7458V23.3123C41.7458 17.9954 37.4412 13.6708 32.1535 13.6708C31.6114 13.6708 31.175 13.2323 31.175 12.6923V9.63231H17.1173V12.6923C17.1173 13.2323 16.6809 13.6708 16.148 13.6708C13.5799 13.6708 11.1681 14.6769 9.35802 16.4954C7.54338 18.3092 6.54189 20.7323 6.54189 23.3123V23.9677H34.0279C34.3724 23.9677 34.6527 24.2492 34.6527 24.5954C34.6527 24.9415 34.3724 25.2231 34.0279 25.2231H6.54648V30.7385C9.11913 30.2077 11.7928 30.9831 13.681 32.8846L15.6794 34.8877C15.9229 35.1323 15.9229 35.5292 15.6794 35.7738C15.4313 36.0185 15.0362 36.0231 14.7927 35.7738L12.7989 33.7754C11.0394 32.0077 8.47597 31.38 6.11464 32.1369C5.08558 32.4508 4.18056 33.0046 3.41336 33.7754L3.19285 33.9923C0.606417 36.5908 0.606417 40.8231 3.19285 43.4215L6.36272 46.6062C6.36272 46.6062 6.36731 46.6062 6.36731 46.6108L9.40396 49.6569L19.4557 39.5677C19.7037 39.3185 20.0988 39.3231 20.3423 39.5677H20.3377Z" fill="#2E4157"/>
</g>
<defs>
<clipPath id="clip0_38_249">
<rect width="43" height="60" fill="white"/>
</clipPath>
</defs>
</svg>
