<svg width="65" height="60" viewBox="0 0 65 60" fill="none" xmlns="http://www.w3.org/2000/svg">
<g clip-path="url(#clip0_37_229)">
<path d="M32.4954 37.6569C35.418 37.6569 37.7949 40.0292 37.7949 42.9462C37.7949 45.8631 35.418 48.2308 32.4954 48.2308C29.5728 48.2308 27.2005 45.8585 27.2005 42.9462C27.2005 40.0338 29.5774 37.6569 32.4954 37.6569ZM36.0746 42.9462C36.0746 42.5954 35.7879 42.3092 35.4365 42.3092H33.1336V40.0108C33.1336 39.66 32.8515 39.3738 32.4954 39.3738C32.1393 39.3738 31.8619 39.66 31.8619 40.0108V42.3092H29.5589C29.2075 42.3092 28.9208 42.5954 28.9208 42.9462C28.9208 43.2969 29.2075 43.5831 29.5589 43.5831H31.8619V45.8769C31.8619 46.2277 32.1439 46.5138 32.4954 46.5138C32.8468 46.5138 33.1336 46.2277 33.1336 45.8769V43.5831H35.4365C35.7879 43.5831 36.0746 43.2969 36.0746 42.9462Z" fill="white"/>
<path d="M41.7164 42.9415C41.7164 43.5738 41.3233 44.1969 40.9071 44.8523C40.6481 45.2585 40.3799 45.6785 40.195 46.1262C40.0007 46.5877 39.8898 47.0861 39.7788 47.5661C39.603 48.3185 39.4412 49.0292 39.0158 49.4538C38.8816 49.5877 38.7105 49.7031 38.4839 49.8092C38.1048 49.9846 37.6377 50.0908 37.1475 50.2015C36.6573 50.3123 36.1533 50.4277 35.6908 50.6215C35.2376 50.8108 34.8122 51.0785 34.4053 51.3369C33.7532 51.7523 33.1428 52.1446 32.5 52.1492H32.4862C31.8572 52.1446 31.2422 51.7523 30.5902 51.3369C30.1832 51.0785 29.7624 50.8108 29.3092 50.6215C28.8422 50.4277 28.3427 50.3169 27.8572 50.2061C27.6444 50.1554 27.4317 50.1092 27.2236 50.0538C26.9184 49.9708 26.7011 49.8969 26.4976 49.8046C26.2941 49.7169 26.1138 49.5969 25.9751 49.4538C25.5496 49.0338 25.3878 48.3231 25.2167 47.5708C25.1103 47.0908 24.9947 46.5877 24.8051 46.1262C24.6201 45.6785 24.3519 45.2585 24.0929 44.8523C23.6721 44.1969 23.2791 43.5738 23.2791 42.9415C23.2791 42.3092 23.6721 41.6908 24.0929 41.0354C24.3519 40.6246 24.6201 40.2046 24.8051 39.7615C24.9947 39.2954 25.1103 38.7969 25.2167 38.3169C25.3878 37.5692 25.5496 36.8585 25.9751 36.4385C26.3959 36.0138 27.1126 35.8523 27.8664 35.6769C28.3474 35.5662 28.8468 35.4554 29.3092 35.2615C29.7578 35.0769 30.1786 34.8092 30.5855 34.5508C31.2422 34.1354 31.8619 33.7431 32.5 33.7431C33.1382 33.7431 33.7532 34.1354 34.4099 34.5508C34.8168 34.8092 35.2376 35.0769 35.6862 35.2615C36.1486 35.4508 36.6481 35.5662 37.1244 35.6769C37.8782 35.8523 38.5903 36.0138 39.0158 36.4385C39.4412 36.8631 39.603 37.5738 39.7788 38.3215C39.8898 38.8015 40.0007 39.3 40.195 39.7569C40.3799 40.2046 40.6481 40.6246 40.9071 41.0354C41.3233 41.6908 41.7164 42.3092 41.7164 42.9415ZM39.0712 42.9462C39.0712 39.3277 36.1209 36.3831 32.4954 36.3831C28.8699 36.3831 25.9242 39.3277 25.9242 42.9462C25.9242 46.5646 28.8745 49.5046 32.4954 49.5046C36.1163 49.5046 39.0712 46.56 39.0712 42.9462Z" fill="white"/>
<path d="M31.4919 53.2431L28.5878 58.2646L27.6953 55.6708C27.5242 55.2508 27.0941 55.0108 26.6271 55.0846L23.9634 55.6061L26.6178 51.2031C26.7149 51.2308 26.812 51.2584 26.8953 51.2815C27.1173 51.3415 27.3438 51.3923 27.5704 51.4431C28.0236 51.5492 28.4537 51.6461 28.8236 51.7984C29.1705 51.9415 29.5265 52.1677 29.9057 52.4123C30.3867 52.7169 30.9046 53.0446 31.4919 53.2431Z" fill="white"/>
<path d="M34.4099 52.8277C34.4977 52.7769 34.5902 52.7262 34.6735 52.6708C34.7058 52.6523 34.7336 52.6338 34.7659 52.6154C34.8769 52.5462 34.9833 52.4769 35.0896 52.4123C35.4688 52.1677 35.8249 51.9415 36.1764 51.7985C36.5463 51.6462 36.9764 51.5446 37.4296 51.4431C37.7302 51.3738 38.0307 51.3 38.3313 51.2123C38.3776 51.1985 38.4238 51.1892 38.4701 51.1754L41.032 55.6062L38.3544 55.0846C37.892 55.0062 37.4481 55.2692 37.2908 55.7123L36.4122 58.2692L33.5081 53.2477L33.5359 53.2338C33.6653 53.1923 33.7948 53.1369 33.9197 53.0815C33.9474 53.0677 33.9706 53.0585 33.9937 53.0446C34.0954 52.9938 34.1971 52.9431 34.2943 52.8923C34.3359 52.8692 34.3729 52.8508 34.4099 52.8277Z" fill="white"/>
<path d="M63.7237 1.63384V43.8738C63.7237 44.0769 63.5665 44.2292 63.3676 44.2292H42.706C42.8771 43.8323 42.9927 43.4031 42.9927 42.9415C42.9927 41.94 42.4563 41.0954 41.98 40.3523C41.7395 39.9738 41.5129 39.6185 41.3696 39.2723C41.2216 38.9077 41.1245 38.4877 41.0181 38.04C40.8146 37.1446 40.6019 36.2215 39.9175 35.5385C39.2331 34.8554 38.3082 34.6431 37.4111 34.4354C36.9625 34.3338 36.5371 34.2369 36.1718 34.0846C35.8296 33.9461 35.4735 33.72 35.0943 33.48C34.3498 33.0046 33.5035 32.4692 32.5 32.4692C31.4965 32.4692 30.6457 33.0046 29.9011 33.48C29.5266 33.72 29.1659 33.9461 28.8237 34.0846C28.4583 34.2369 28.0329 34.3338 27.5797 34.44C26.6826 34.6431 25.7577 34.8554 25.0733 35.5385C24.3889 36.2215 24.1808 37.1446 23.9773 38.0354C23.8756 38.4831 23.7785 38.9077 23.6259 39.2723C23.4825 39.6185 23.2559 39.9738 23.0155 40.3523C22.5438 41.0954 22.0027 41.94 22.0027 42.9415C22.0027 43.4031 22.123 43.8323 22.2894 44.2292H1.6278C1.42896 44.2292 1.27173 44.0769 1.27173 43.8738V1.63384C1.27173 1.43538 1.43358 1.26923 1.6278 1.26923H63.3676C63.5619 1.26923 63.7237 1.43538 63.7237 1.63384ZM61.8138 35.04V10.4723C61.8138 9.88615 61.3653 9.40615 60.7549 9.34615C57.9803 9.14307 55.7374 6.90923 55.534 4.15384C55.4923 3.54923 55.0114 3.0923 54.4102 3.0923H10.5852C9.98402 3.0923 9.50309 3.54923 9.46609 4.14923C9.26262 6.90923 7.01518 9.14307 4.22669 9.34615C3.63478 9.40615 3.18621 9.88615 3.18621 10.4723V35.04C3.18621 35.6215 3.63478 36.1061 4.24057 36.1661C7.01518 36.3692 9.26262 38.5985 9.46609 41.3446C9.50309 41.9538 9.98402 42.4154 10.5852 42.4154H16.5506C16.9021 42.4154 17.1888 42.1338 17.1888 41.7785C17.1888 41.4231 16.9021 41.1461 16.5506 41.1461H10.7285C10.428 37.8554 7.75508 35.2015 4.45791 34.9061V10.6015C7.75971 10.3015 10.4187 7.6523 10.7285 4.36615H54.2715C54.5721 7.65692 57.245 10.3108 60.5375 10.6015V34.9061C57.2357 35.2108 54.5721 37.8554 54.2715 41.1461H48.4402C48.0887 41.1461 47.8067 41.4277 47.8067 41.7785C47.8067 42.1292 48.0887 42.4154 48.4402 42.4154H54.4102C55.0114 42.4154 55.4923 41.9538 55.5293 41.3538C55.7374 38.5985 57.9803 36.3692 60.7687 36.1615C61.3653 36.1061 61.8138 35.6215 61.8138 35.04ZM52.283 15.4338C52.283 15.0831 51.9963 14.8015 51.6449 14.8015H13.3506C12.9991 14.8015 12.7124 15.0831 12.7124 15.4338C12.7124 15.7846 12.9991 16.0708 13.3506 16.0708H51.6449C51.9963 16.0708 52.283 15.7846 52.283 15.4338ZM52.283 20.9677C52.283 20.6169 51.9963 20.3308 51.6449 20.3308H13.3506C12.9991 20.3308 12.7124 20.6169 12.7124 20.9677C12.7124 21.3185 12.9991 21.6046 13.3506 21.6046H51.6449C51.9963 21.6046 52.283 21.3185 52.283 20.9677ZM32.8145 26.4969C32.8145 26.1461 32.5278 25.86 32.1763 25.86H13.3506C12.9991 25.86 12.7124 26.1461 12.7124 26.4969C12.7124 26.8477 12.9991 27.1338 13.3506 27.1338H32.1763C32.5278 27.1338 32.8145 26.8477 32.8145 26.4969Z" fill="white"/>
<path d="M51.6448 14.8015C51.9963 14.8015 52.283 15.0831 52.283 15.4339C52.283 15.7846 51.9963 16.0708 51.6448 16.0708H13.3505C12.9991 16.0708 12.7123 15.7846 12.7123 15.4339C12.7123 15.0831 12.9991 14.8015 13.3505 14.8015H51.6448Z" fill="#2E4157"/>
<path d="M51.6448 20.3308C51.9963 20.3308 52.283 20.6169 52.283 20.9677C52.283 21.3185 51.9963 21.6046 51.6448 21.6046H13.3505C12.9991 21.6046 12.7123 21.3185 12.7123 20.9677C12.7123 20.6169 12.9991 20.3308 13.3505 20.3308H51.6448Z" fill="#2E4157"/>
<path d="M31.8619 43.5831H29.5589C29.2075 43.5831 28.9208 43.2969 28.9208 42.9462C28.9208 42.5954 29.2075 42.3092 29.5589 42.3092H31.8619V40.0108C31.8619 39.66 32.144 39.3738 32.4954 39.3738C32.8469 39.3738 33.1336 39.66 33.1336 40.0108V42.3092H35.4365C35.7879 42.3092 36.0747 42.5954 36.0747 42.9462C36.0747 43.2969 35.7879 43.5831 35.4365 43.5831H33.1336V45.8769C33.1336 46.2277 32.8515 46.5138 32.4954 46.5138C32.1393 46.5138 31.8619 46.2277 31.8619 45.8769V43.5831Z" fill="#2E4157"/>
<path d="M32.1763 25.86C32.5277 25.86 32.8144 26.1461 32.8144 26.4969C32.8144 26.8477 32.5277 27.1338 32.1763 27.1338H13.3505C12.9991 27.1338 12.7123 26.8477 12.7123 26.4969C12.7123 26.1461 12.9991 25.86 13.3505 25.86H32.1763Z" fill="#2E4157"/>
<path d="M32.4953 37.6569C29.5774 37.6569 27.2005 40.0292 27.2005 42.9462C27.2005 45.8631 29.5774 48.2308 32.4953 48.2308C35.4133 48.2308 37.7949 45.8585 37.7949 42.9462C37.7949 40.0339 35.4179 37.6569 32.4953 37.6569ZM25.9241 42.9462C25.9241 39.3277 28.8745 36.3831 32.4953 36.3831C36.1162 36.3831 39.0712 39.3277 39.0712 42.9462C39.0712 46.5646 36.1208 49.5046 32.4953 49.5046C28.8698 49.5046 25.9241 46.56 25.9241 42.9462Z" fill="#2E4157"/>
<path d="M10.7285 41.1462H16.5506C16.902 41.1462 17.1887 41.4277 17.1887 41.7785C17.1887 42.1292 16.902 42.4154 16.5506 42.4154H10.5851C9.98397 42.4154 9.50303 41.9539 9.46604 41.3446C9.26257 38.5985 7.01513 36.3692 4.24051 36.1662C3.63472 36.1062 3.18616 35.6215 3.18616 35.04V10.4723C3.18616 9.88616 3.63472 9.40616 4.22664 9.34616C7.01513 9.14309 9.26257 6.90924 9.46604 4.14924C9.50303 3.54924 9.98397 3.09232 10.5851 3.09232H54.4102C55.0114 3.09232 55.4923 3.54924 55.5339 4.15385C55.7374 6.90924 57.9802 9.14309 60.7548 9.34616C61.3652 9.40616 61.8138 9.88616 61.8138 10.4723V35.04C61.8138 35.6215 61.3652 36.1062 60.7687 36.1615C57.9802 36.3692 55.7374 38.5985 55.5293 41.3539C55.4923 41.9539 55.0114 42.4154 54.4102 42.4154H48.4401C48.0887 42.4154 47.8066 42.1339 47.8066 41.7785C47.8066 41.4231 48.0887 41.1462 48.4401 41.1462H54.2715C54.572 37.8554 57.2357 35.2108 60.5375 34.9062V10.6015C57.2449 10.3108 54.572 7.65693 54.2715 4.36616H10.7285C10.4187 7.65232 7.75965 10.3015 4.45786 10.6015V34.9062C7.75502 35.2015 10.4279 37.8554 10.7285 41.1462Z" fill="#2E4157"/>
<path d="M36.4122 58.2692L37.2908 55.7123C37.4481 55.2692 37.892 55.0062 38.3544 55.0846L41.0319 55.6062L38.4701 51.1754C38.4238 51.1892 38.3776 51.1985 38.3313 51.2123C38.0307 51.3 37.7302 51.3738 37.4296 51.4431C36.9764 51.5446 36.5463 51.6462 36.1764 51.7985C35.8249 51.9415 35.4688 52.1677 35.0896 52.4123C34.9833 52.4769 34.8769 52.5462 34.7659 52.6154C34.7336 52.6338 34.7058 52.6523 34.6735 52.6708C34.5902 52.7262 34.4977 52.7769 34.4099 52.8277C34.3729 52.8508 34.3359 52.8692 34.2943 52.8923C34.1971 52.9431 34.0954 52.9938 33.9937 53.0446C33.9705 53.0585 33.9474 53.0677 33.9197 53.0815C33.7948 53.1369 33.6653 53.1923 33.5359 53.2338L33.5081 53.2477L36.4122 58.2692ZM31.4919 53.2431C30.9046 53.0446 30.3867 52.7169 29.9057 52.4123C29.5265 52.1677 29.1705 51.9415 28.8236 51.7985C28.4537 51.6462 28.0236 51.5492 27.5704 51.4431C27.3438 51.3923 27.1172 51.3415 26.8953 51.2815C26.812 51.2585 26.7149 51.2308 26.6178 51.2031L23.9634 55.6062L26.6271 55.0846C27.0941 55.0108 27.5242 55.2508 27.6953 55.6708L28.5878 58.2646L31.4919 53.2431ZM24.0929 41.0354C23.6721 41.6908 23.279 42.3092 23.279 42.9415C23.279 43.5738 23.6721 44.1969 24.0929 44.8523C24.3519 45.2585 24.6201 45.6785 24.8051 46.1262C24.9947 46.5877 25.1103 47.0908 25.2166 47.5708C25.3877 48.3231 25.5496 49.0338 25.975 49.4538C26.1138 49.5969 26.2941 49.7169 26.4976 49.8046C26.7011 49.8969 26.9184 49.9708 27.2236 50.0538C27.4317 50.1092 27.6444 50.1554 27.8571 50.2062C28.3427 50.3169 28.8421 50.4277 29.3092 50.6215C29.7624 50.8108 30.1832 51.0785 30.5901 51.3369C31.2422 51.7523 31.8572 52.1446 32.4861 52.1492H32.5C33.1428 52.1446 33.7532 51.7523 34.4052 51.3369C34.8122 51.0785 35.2376 50.8108 35.6908 50.6215C36.1532 50.4277 36.6573 50.3123 37.1475 50.2015C37.6377 50.0908 38.1047 49.9846 38.4839 49.8092C38.7105 49.7031 38.8816 49.5877 39.0157 49.4538C39.4412 49.0292 39.603 48.3185 39.7787 47.5662C39.8897 47.0862 40.0007 46.5877 40.1949 46.1262C40.3799 45.6785 40.6481 45.2585 40.9071 44.8523C41.3233 44.1969 41.7164 43.5738 41.7164 42.9415C41.7164 42.3092 41.3233 41.6908 40.9071 41.0354C40.6481 40.6246 40.3799 40.2046 40.1949 39.7569C40.0007 39.3 39.8897 38.8015 39.7787 38.3215C39.603 37.5738 39.4412 36.8631 39.0157 36.4385C38.5903 36.0138 37.8781 35.8523 37.1244 35.6769C36.6481 35.5662 36.1486 35.4508 35.6862 35.2615C35.2376 35.0769 34.8168 34.8092 34.4099 34.5508C33.7532 34.1354 33.1335 33.7431 32.5 33.7431C31.8665 33.7431 31.2422 34.1354 30.5855 34.5508C30.1786 34.8092 29.7578 35.0769 29.3092 35.2615C28.8468 35.4554 28.3473 35.5662 27.8664 35.6769C27.1126 35.8523 26.3958 36.0138 25.975 36.4385C25.5496 36.8585 25.3877 37.5692 25.2166 38.3169C25.1103 38.7969 24.9947 39.2954 24.8051 39.7615C24.6201 40.2046 24.3519 40.6246 24.0929 41.0354ZM0 1.63385C0 0.733846 0.730649 0 1.62777 0H63.3676C64.2647 0 65 0.733846 65 1.63385V43.8738C65 44.7738 64.2647 45.5031 63.3676 45.5031H41.9984C41.9984 45.5031 41.9892 45.5215 41.9799 45.5354C41.7395 45.9092 41.5129 46.2646 41.3741 46.6108C41.2215 46.9754 41.1244 47.4 41.0181 47.8477C40.8146 48.7477 40.6019 49.6708 39.9175 50.3538C39.825 50.4415 39.7186 50.5246 39.6123 50.6031L42.4979 55.6015C42.6828 55.9338 42.6597 56.3215 42.4424 56.6215C42.262 56.8708 41.9846 57.0092 41.6794 57.0092C41.6192 57.0092 41.5591 57.0092 41.4944 56.9908L38.4053 56.3908L37.3833 59.3631C37.2631 59.7138 36.9579 59.9538 36.5879 59.9908C36.5509 59.9954 36.5186 60 36.4862 60C36.1532 60 35.848 59.8246 35.6723 59.5338L32.5 54.0462L29.3323 59.5246C29.1612 59.82 28.8514 60 28.5138 60C28.4861 60 28.4537 59.9954 28.4259 59.9954C28.056 59.9585 27.7369 59.7092 27.6167 59.3631L26.5947 56.3862L23.5056 56.9862C23.1588 57.0646 22.7935 56.9308 22.5669 56.6308C22.3403 56.3308 22.3125 55.9246 22.4975 55.5969L25.4525 50.6677C25.3184 50.5754 25.1889 50.4692 25.0733 50.3538C24.3889 49.6708 24.1808 48.7477 23.9773 47.8523C23.8756 47.4046 23.7785 46.9754 23.6259 46.6108C23.4825 46.2646 23.2559 45.9092 23.0154 45.5354C23.0154 45.5215 23.0016 45.5123 22.9969 45.5031H1.62777C0.730649 45.5031 0 44.7738 0 43.8738V1.63385ZM63.3676 1.26923H1.62777C1.43355 1.26923 1.2717 1.43538 1.2717 1.63385V43.8738C1.2717 44.0769 1.42893 44.2292 1.62777 44.2292H22.2894C22.1229 43.8323 22.0027 43.4031 22.0027 42.9415C22.0027 41.94 22.5438 41.0954 23.0154 40.3523C23.2559 39.9738 23.4825 39.6185 23.6259 39.2723C23.7785 38.9077 23.8756 38.4831 23.9773 38.0354C24.1808 37.1446 24.3889 36.2215 25.0733 35.5385C25.7577 34.8554 26.6826 34.6431 27.5797 34.44C28.0329 34.3338 28.4583 34.2369 28.8236 34.0846C29.1658 33.9462 29.5265 33.72 29.9011 33.48C30.6456 33.0046 31.4919 32.4692 32.5 32.4692C33.5081 32.4692 34.3497 33.0046 35.0943 33.48C35.4735 33.72 35.8295 33.9462 36.1717 34.0846C36.5371 34.2369 36.9625 34.3338 37.4111 34.4354C38.3082 34.6431 39.2331 34.8554 39.9175 35.5385C40.6019 36.2215 40.8146 37.1446 41.0181 38.04C41.1244 38.4877 41.2215 38.9077 41.3695 39.2723C41.5129 39.6185 41.7395 39.9738 41.9799 40.3523C42.4562 41.0954 42.9927 41.94 42.9927 42.9415C42.9927 43.4031 42.8771 43.8323 42.706 44.2292H63.3676C63.5665 44.2292 63.7237 44.0769 63.7237 43.8738V1.63385C63.7237 1.43538 63.5618 1.26923 63.3676 1.26923Z" fill="#2E4157"/>
</g>
<defs>
<clipPath id="clip0_37_229">
<rect width="65" height="60" fill="white"/>
</clipPath>
</defs>
</svg>
