<svg width="65" height="60" viewBox="0 0 65 60" fill="none" xmlns="http://www.w3.org/2000/svg">
<g clip-path="url(#clip0_34_67)">
<path d="M63.7424 55.1184V58.7417H1.25763V55.1184H35.4519H49.8213H63.7424Z" fill="white"/>
<path d="M47.6496 39.3495C47.6496 39.0058 47.3643 38.7204 47.0208 38.7204C46.6772 38.7204 46.392 39.0058 46.392 39.3495V41.8835C46.392 42.233 46.6714 42.5126 47.0208 42.5126C47.3701 42.5126 47.6496 42.233 47.6496 41.8835V39.3495ZM49.1925 27.3786V53.8544H36.0807V27.3786H49.1925Z" fill="white"/>
<path d="M27.4753 27.3786H14.3577V40.4971H27.4753V27.3786Z" fill="white"/>
<path d="M6.92853 22H56.7265C56.6683 22.0932 56.6276 22.1981 56.6276 22.3146V54.1379H50.4559V27.033C50.4559 26.6835 50.1706 26.4039 49.8213 26.4039H35.4519C35.1026 26.4039 34.8231 26.6835 34.8231 27.033V54.1379H6.92853V22ZM28.733 41.4097V27.033C28.733 26.6835 28.4477 26.4039 28.1042 26.4039H13.729C13.3854 26.4039 13.1002 26.6835 13.1002 27.033V41.4097C13.1002 41.7592 13.3854 42.0388 13.729 42.0388H28.1042C28.4477 42.0388 28.733 41.7592 28.733 41.4097Z" fill="white"/>
<path d="M58.904 16.8291V20.4583H4.65198V16.8291H58.904Z" fill="white"/>
<path d="M56.6276 6.07573H40.1854V15.5709H56.6276V6.07573Z" fill="white"/>
<path d="M23.3706 6.07573V15.5709H6.82953C6.88775 15.4777 6.92851 15.3728 6.92851 15.2563V6.07573H23.3706Z" fill="white"/>
<path d="M47.6496 39.3495V41.8835C47.6496 42.233 47.3643 42.5126 47.0208 42.5126C46.6773 42.5126 46.392 42.233 46.392 41.8835V39.3495C46.392 39.0058 46.6714 38.7204 47.0208 38.7204C47.3701 38.7204 47.6496 39.0058 47.6496 39.3495Z" fill="#2E4157"/>
<path d="M32.4068 7.78835H36.0865C36.4358 7.78835 36.7153 8.06796 36.7153 8.41748C36.7153 8.76699 36.4358 9.0466 36.0865 9.0466H32.4068V12.7282C32.4068 13.0777 32.1274 13.3573 31.778 13.3573C31.4287 13.3573 31.1492 13.0777 31.1492 12.7282V9.0466H27.4637C27.1202 9.0466 26.8349 8.76117 26.8349 8.41748C26.8349 8.07379 27.1202 7.78835 27.4637 7.78835H31.1492V4.10097C31.1492 3.75728 31.4287 3.47185 31.778 3.47185C32.1274 3.47185 32.4068 3.75728 32.4068 4.10097V7.78835Z" fill="#2E4157"/>
<path d="M27.4754 40.4971V27.3786H14.3578V40.4971H27.4754ZM28.733 26.7495V41.1262C28.733 41.4757 28.4477 41.7553 28.1042 41.7553H13.729C13.3855 41.7553 13.1002 41.4757 13.1002 41.1262V26.7495C13.1002 26.4 13.3855 26.1204 13.729 26.1204H28.1042C28.4477 26.1204 28.733 26.4 28.733 26.7495Z" fill="#2E4157"/>
<path d="M49.1925 53.8544V27.3786H36.0807V53.8544H49.1925ZM56.6276 15.5709V6.07573H40.1854V15.5709H56.6276ZM35.4519 55.1185H1.25761V58.7417H63.7424V55.1185H35.4519ZM23.3707 15.5709V6.07573H6.92852V15.2563C6.92852 15.3728 6.88776 15.4777 6.82954 15.5709H23.3707ZM39.5566 16.8291H4.65201V20.4583H58.9041V16.8291H39.5566ZM24.6283 1.25825V15.5709H38.9278V5.4466C38.9278 5.10291 39.2131 4.81748 39.5566 4.81748H57.2564C57.6057 4.81748 57.8852 5.10291 57.8852 5.4466V15.5709H59.5329C59.8764 15.5709 60.1617 15.8505 60.1617 16.2V21.0874C60.1617 21.4311 59.8764 21.7165 59.5329 21.7165H57.7862C57.8444 21.8097 57.8852 21.9146 57.8852 22.0311V53.8544H64.3712C64.7205 53.8544 65 54.1398 65 54.4835V59.3709C65 59.7204 64.7205 60 64.3712 60H0.628807C0.27947 60 0 59.7204 0 59.3709V54.4835C0 54.1398 0.27947 53.8544 0.628807 53.8544H5.67091V21.7165H4.0232C3.67386 21.7165 3.39439 21.4311 3.39439 21.0874V16.2C3.39439 15.8505 3.67386 15.5709 4.0232 15.5709H5.76406C5.71166 15.4777 5.67091 15.3728 5.67091 15.2563V5.4466C5.67091 5.10291 5.95038 4.81748 6.29971 4.81748H23.3707V0.629126C23.3707 0.285437 23.6501 0 23.9995 0H39.5566C39.9059 0 40.1854 0.285437 40.1854 0.629126C40.1854 0.972816 39.9059 1.25825 39.5566 1.25825H24.6283ZM34.8231 53.8544V26.7495C34.8231 26.4 35.1026 26.1204 35.4519 26.1204H49.8213C50.1706 26.1204 50.4559 26.4 50.4559 26.7495V53.8544H56.6276V22.0311C56.6276 21.9146 56.6683 21.8097 56.7265 21.7165H6.92852V53.8544H34.8231Z" fill="#2E4157"/>
</g>
<defs>
<clipPath id="clip0_34_67">
<rect width="65" height="60" fill="white"/>
</clipPath>
</defs>
</svg>
