<svg width="60" height="60" viewBox="0 0 60 60" fill="none" xmlns="http://www.w3.org/2000/svg">
<g clip-path="url(#clip0_41_288)">
<path d="M23.8947 0.80308L20.96 4.91539C20.96 4.91539 19.1744 10.4446 19.6826 11.7277C20.1908 13.0154 20.8318 17.7692 21.7246 18.7985C22.6174 19.8277 27.0813 25.74 27.0813 25.74L28.8669 28.8277L25.6803 30.1154L21.6009 32.5569L20.3236 33.0692H2.46779L2.0832 35.3815L2.17019 37.0338L3.61239 46.44L1.82681 50.2985L0.549438 56.4692L0.622693 60H7.85199C7.85199 60 8.32815 55.1862 8.58454 54.7985C8.84093 54.4108 9.47733 52.0985 11.5193 51.84C13.5613 51.5815 16.3632 51.84 19.6826 53.1277C23.0019 54.4154 31.9252 56.5985 32.9462 56.5985C33.9672 56.5985 40.2167 56.4692 42.5105 55.8277C44.8043 55.1862 50.2892 52.74 51.8184 51.0692C53.3476 49.3985 57.4315 43.9985 58.0679 40.6569C58.7043 37.3154 59.9817 31.1446 59.2171 27.6738C58.4525 24.2031 56.7951 17.3908 53.8604 14.82C50.9256 12.2492 47.6109 10.8369 45.8253 10.5785C44.0397 10.32 40.8531 10.7077 38.0466 11.9908C35.24 13.2785 29.8833 16.2323 29.8833 16.2323C29.8833 16.2323 26.6967 12.7615 27.0767 9.67385C27.4613 6.58616 30.1397 3.50308 30.1397 3.50308C30.1397 3.50308 26.3121 -0.609228 23.8901 0.80308H23.8947Z" fill="white"/>
<path d="M0.63182 60C0.283861 60 0 59.7138 0 59.3631C0 52.4446 1.31858 47.9031 4.029 45.4846C7.16978 42.6831 11.5925 43.2277 15.4933 43.7077C17.4804 43.9523 19.3621 44.1831 20.8958 43.9661C22.7226 43.7077 24.4212 42.9415 25.8085 41.7508C26.074 41.5246 26.4723 41.5569 26.6967 41.82C26.921 42.0877 26.889 42.4892 26.628 42.7154C25.0576 44.0631 23.1347 44.9308 21.0744 45.2215C19.3804 45.4615 17.4208 45.2215 15.3468 44.9631C11.533 44.4923 7.58642 44.0077 4.87142 46.4308C2.44487 48.5954 1.26822 52.8231 1.26822 59.3585C1.26822 59.7092 0.984357 59.9954 0.636398 59.9954L0.63182 60Z" fill="#2E4157"/>
<path d="M28.8897 29.8292C28.6517 29.8292 28.4182 29.6908 28.3174 29.4554C27.3972 27.3923 26.0145 25.5231 24.5494 23.5431C22.9103 21.3277 21.2163 19.0338 20.2182 16.4308C18.1305 11.0308 19.472 4.3523 23.4872 0.193834C23.7299 -0.0553969 24.1282 -0.0646276 24.38 0.179988C24.6272 0.424603 24.6364 0.826142 24.3937 1.07999C20.7127 4.8923 19.4811 11.0169 21.3949 15.9738C22.3335 18.4154 23.9771 20.64 25.5658 22.7861C27.0034 24.7338 28.4914 26.7461 29.4712 28.9384C29.6131 29.2569 29.4712 29.6354 29.1553 29.7784C29.0729 29.8154 28.9813 29.8338 28.8989 29.8338L28.8897 29.8292Z" fill="#2E4157"/>
<path d="M7.86113 60C7.51317 60 7.22931 59.7138 7.22931 59.3631C7.22931 56.6354 7.53606 53.2985 9.91225 51.6831C11.8764 50.3492 14.8981 50.4969 18.8905 52.1215C41.1782 61.2 50.9805 52.1677 54.8401 45.9785C60.9111 36.2354 59.794 21.2677 52.4914 14.5754C46.9103 9.46153 39.063 10.3431 30.3915 17.0723C30.1396 17.2708 29.778 17.2431 29.5536 17.0077C24.1465 11.3538 27.8321 4.91538 29.5536 3.10615C29.7917 2.8523 30.1946 2.84307 30.4418 3.08769C30.6936 3.32769 30.7028 3.73384 30.4601 3.98307C30.4052 4.04307 25.1812 10.0385 30.0801 15.7108C42.2358 6.52615 49.8543 10.4446 53.3338 13.6338C61.0439 20.7 62.2663 36.4385 55.9023 46.6523C48.9798 57.7615 35.3178 60.18 18.4144 53.2985C14.8295 51.84 12.206 51.6508 10.6082 52.7354C8.72187 54.0185 8.47921 56.9492 8.47921 59.3631C8.47921 59.7138 8.19535 60 7.84739 60H7.86113Z" fill="#2E4157"/>
<path d="M43.0553 37.0385H8.47004C8.12208 37.0385 7.83822 36.7523 7.83822 36.4015C7.83822 36.0508 8.12208 35.7646 8.47004 35.7646H41.9519C40.8943 34.1123 38.7974 31.5785 35.3453 30.3461C30.8172 28.7354 25.5933 29.9031 21.7016 33.3969C21.5872 33.4985 21.4361 33.5585 21.2804 33.5585H2.80197V36.3969C2.80197 36.7477 2.51811 37.0338 2.17015 37.0338C1.82219 37.0338 1.53833 36.7477 1.53833 36.3969V33.3785C1.53833 32.7785 2.02364 32.2892 2.61883 32.2892H21.0423C25.2545 28.6108 30.8722 27.4015 35.7619 29.1462C40.3861 30.7938 42.7898 34.5554 43.6047 36.0969C43.71 36.2954 43.7054 36.5308 43.591 36.7246C43.4765 36.9138 43.2705 37.0338 43.0507 37.0338L43.0553 37.0385Z" fill="#2E4157"/>
</g>
<defs>
<clipPath id="clip0_41_288">
<rect width="60" height="60" fill="white"/>
</clipPath>
</defs>
</svg>
