<svg width="54" height="60" viewBox="0 0 54 60" fill="none" xmlns="http://www.w3.org/2000/svg">
<g clip-path="url(#clip0_26_90)">
<path d="M43.91 12.91C48.84 12.91 52.85 16.86 52.85 21.72C52.85 26.58 48.84 30.54 43.91 30.54C38.98 30.54 34.97 26.59 34.97 21.72C34.97 16.85 38.98 12.91 43.91 12.91ZM49.76 21.71C49.76 21.4 49.5 21.15 49.19 21.15H44.49V16.52C44.49 16.2 44.24 15.96 43.92 15.96C43.6 15.96 43.35 16.21 43.35 16.52V21.15H38.65C38.33 21.15 38.08 21.41 38.08 21.71C38.08 22.01 38.33 22.27 38.65 22.27H43.35V26.91C43.35 27.22 43.61 27.47 43.92 27.47C44.23 27.47 44.49 27.21 44.49 26.91V22.27H49.19C49.5 22.27 49.76 22.02 49.76 21.71Z" fill="white"/>
<path d="M24.38 46.06L31.31 38.47C31.97 37.74 32.59 36.99 33.16 36.21L45.81 49.59L35.9 58.63L24.52 46.15C24.52 46.15 24.44 46.08 24.39 46.05L24.38 46.06Z" fill="white"/>
<path d="M13.43 8.47001C13.02 12.32 14.84 16.57 18.91 21.13L22.82 25.27L14.3 34.27C13.36 32.44 11.27 28.37 10.8 26.55C8.78 18.57 11.34 12.09 13.44 8.46001L13.43 8.47001Z" fill="white"/>
<path d="M32.42 7.4C32.81 8.92 32.76 10.55 32.3 12.27C30.28 11.34 27.29 10.37 23.63 10.42C19.94 10.46 16.96 11.5 14.96 12.49C14.44 10.7 14.37 9 14.78 7.39C15.71 3.67 19.18 1.22 23.61 1.13C28.02 1.24 31.48 3.7 32.41 7.4H32.42Z" fill="white"/>
<path d="M44.48 22.28V26.92C44.48 27.23 44.23 27.48 43.91 27.48C43.59 27.48 43.34 27.22 43.34 26.92V22.28H38.64C38.32 22.28 38.07 22.03 38.07 21.72C38.07 21.41 38.32 21.16 38.64 21.16H43.34V16.53C43.34 16.21 43.6 15.97 43.91 15.97C44.22 15.97 44.48 16.22 44.48 16.53V21.16H49.18C49.49 21.16 49.75 21.42 49.75 21.72C49.75 22.02 49.49 22.28 49.18 22.28H44.48Z" fill="#2E4157"/>
<path d="M18.9 21.13C14.84 16.57 13.01 12.32 13.42 8.47C11.33 12.09 8.76 18.57 10.78 26.56C11.25 28.39 13.34 32.46 14.28 34.28L22.8 25.28L18.89 21.14L18.9 21.13ZM15.32 13.58C16.16 15.73 17.63 18.01 19.75 20.38L23.6 24.45L27.45 20.37C29.61 17.95 31.12 15.59 31.94 13.36C30.03 12.47 27.14 11.52 23.64 11.55C20.07 11.59 17.21 12.63 15.32 13.58ZM32.29 12.27C32.76 10.55 32.8 8.92 32.41 7.4C31.49 3.7 28.03 1.23 23.61 1.13C19.18 1.22 15.71 3.67 14.78 7.39C14.37 8.99 14.44 10.7 14.96 12.49C16.96 11.5 19.94 10.46 23.63 10.42C27.29 10.37 30.27 11.35 32.3 12.27H32.29ZM35.89 58.63L45.8 49.59L33.15 36.21C32.58 36.99 31.96 37.74 31.3 38.47L24.37 46.06C24.37 46.06 24.46 46.11 24.5 46.16L35.88 58.64L35.89 58.63ZM52.85 21.71C52.85 16.85 48.84 12.9 43.91 12.9C38.98 12.9 34.97 16.85 34.97 21.71C34.97 26.57 38.98 30.53 43.91 30.53C48.84 30.53 52.85 26.58 52.85 21.71ZM54 21.71C54 27.2 49.48 31.66 43.91 31.66C41.21 31.66 38.76 30.61 36.95 28.9C36.19 31.16 35.14 33.29 33.82 35.25L47.03 49.23C47.14 49.34 47.19 49.49 47.18 49.64C47.18 49.79 47.11 49.93 47 50.03L36.24 59.85C36.13 59.95 36 60 35.85 60H35.82C35.67 60 35.52 59.92 35.42 59.81L23.65 46.9C23.65 46.9 23.65 46.88 23.63 46.87L11.84 59.81C11.73 59.92 11.6 59.98 11.44 59.99H11.41C11.26 59.99 11.13 59.94 11.02 59.85L0.18 50.04C0.07 49.93 0 49.79 0 49.64C0 49.49 0.05 49.35 0.15 49.23L13.49 35.12C13.49 35.12 13.4 35.05 13.37 35C12.45 33.21 10.18 28.81 9.67 26.82C6.49 14.25 14.21 5.2 14.73 4.62C16.46 1.81 19.71 0.07 23.62 0H23.64C28.6 0.13 32.47 2.92 33.53 7.12C34.01 9.03 33.9 11.1 33.19 13.24C32.37 15.75 30.72 18.41 28.29 21.12L1.38 49.59L11.37 58.63L30.45 37.71C33.05 34.87 34.93 31.59 36.06 27.94C34.67 26.24 33.83 24.07 33.83 21.71C33.83 16.23 38.35 11.77 43.91 11.77C49.47 11.77 54 16.23 54 21.71Z" fill="#2E4157"/>
</g>
<defs>
<clipPath id="clip0_26_90">
<rect width="54" height="60" fill="white"/>
</clipPath>
</defs>
</svg>
