<svg width="42" height="60" viewBox="0 0 42 60" fill="none" xmlns="http://www.w3.org/2000/svg">
<g clip-path="url(#clip0_14_26)">
<path d="M23.2916 35.6C21.0356 36.4 17.743 38.03 14.857 41.17C14.6944 41.35 14.5623 41.54 14.4099 41.71C14.2981 39.94 14.5115 37.11 16.4626 34.77C19.4198 31.24 25.0089 30.33 29.8563 32.57C30.3237 37.12 27.9661 41.5 24.0334 43.32C20.2124 45.08 16.4829 43.75 14.9586 43.03C15.233 42.69 15.5074 42.34 15.8122 42.02C18.5154 39.06 21.6148 37.54 23.7285 36.78C24.0639 36.66 24.2366 36.3 24.1147 35.98C23.9927 35.65 23.6269 35.48 23.2916 35.6Z" fill="white"/>
<path d="M40.7297 51.3H7.63174C7.28623 51.3 6.99153 51.58 6.99153 51.93C6.99153 52.28 7.28623 52.56 7.63174 52.56H40.7297V56.56C40.7297 57.77 39.7339 58.75 38.5042 58.75H3.49577C2.27631 58.75 1.28043 57.77 1.28043 56.56V26.34H34.3784C34.7239 26.34 35.0186 26.06 35.0186 25.71C35.0186 25.36 34.7239 25.08 34.3784 25.08H1.30075C1.50399 19.4 6.2497 14.84 12.0624 14.84C12.6315 14.84 13.0888 14.39 13.0888 13.83V10.43H28.9214V13.83C28.9214 14.39 29.3787 14.84 29.9477 14.84C35.8926 14.84 40.7297 19.6 40.7297 25.45V51.3ZM11.4527 48.47C11.7068 48.47 11.9506 48.31 12.0523 48.06C12.601 46.64 13.3327 45.31 14.1965 44.07C15.2127 44.56 17.3772 45.45 20.0092 45.45C21.4421 45.45 23.007 45.19 24.5821 44.46C28.6267 42.59 31.1977 38.32 31.1977 33.71C31.1977 33.16 31.157 32.62 31.0859 32.07C31.0554 31.86 30.9233 31.68 30.7404 31.59C25.2833 28.91 18.871 29.91 15.4769 33.97C12.6213 37.38 13.0278 41.64 13.2819 43.15C12.3063 44.53 11.473 46.01 10.8531 47.61C10.7312 47.94 10.8938 48.3 11.219 48.42C11.3003 48.45 11.3714 48.47 11.4527 48.47Z" fill="white"/>
<path d="M33.9618 2.30999V8.11999C33.9618 8.69999 33.4842 9.16999 32.8947 9.16999H9.11541C8.52601 9.16999 8.04839 8.69999 8.04839 8.11999V2.30999C8.04839 1.72999 8.52601 1.25999 9.11541 1.25999H32.8947C33.4842 1.25999 33.9618 1.72999 33.9618 2.30999Z" fill="white"/>
<path d="M15.8122 42.02C15.5074 42.34 15.233 42.69 14.9586 43.03C16.4829 43.75 20.2124 45.08 24.0334 43.32C27.9661 41.5 30.3237 37.12 29.8563 32.57C25.009 30.33 19.4198 31.24 16.4626 34.77C14.5115 37.11 14.2981 39.94 14.4099 41.71C14.5623 41.54 14.6944 41.35 14.857 41.17C17.743 38.03 21.0356 36.4 23.2916 35.6C23.6269 35.48 23.9927 35.65 24.1147 35.98C24.2366 36.3 24.0639 36.66 23.7285 36.78C21.6148 37.54 18.5154 39.06 15.8122 42.02ZM13.2819 43.15C13.0278 41.64 12.6213 37.38 15.4769 33.97C18.871 29.91 25.2833 28.91 30.7404 31.59C30.9233 31.68 31.0554 31.86 31.0859 32.07C31.157 32.62 31.1977 33.16 31.1977 33.71C31.1977 38.32 28.6267 42.59 24.5821 44.46C23.007 45.19 21.4421 45.45 20.0092 45.45C17.3772 45.45 15.2127 44.56 14.1965 44.07C13.3327 45.31 12.601 46.64 12.0523 48.06C11.9506 48.31 11.7068 48.47 11.4527 48.47C11.3714 48.47 11.3003 48.45 11.219 48.42C10.8938 48.3 10.7312 47.94 10.8531 47.61C11.473 46.01 12.3063 44.53 13.2819 43.15Z" fill="#2E4157"/>
<path d="M11.8084 13.59V10.43H9.11541C7.82482 10.43 6.76796 9.39 6.76796 8.12V2.31C6.76796 1.04 7.82482 0 9.11541 0H32.8947C34.1853 0 35.2422 1.04 35.2422 2.31V8.12C35.2422 9.39 34.1853 10.43 32.8947 10.43H30.1916V13.59C36.7259 13.72 42 18.99 42 25.45V56.56C42 58.46 40.435 60 38.5042 60H3.49577C1.57513 60 0 58.46 0 56.56V25.45C0 18.99 5.27413 13.72 11.8084 13.59ZM12.4486 9.17H32.8947C33.4841 9.17 33.9618 8.7 33.9618 8.12V2.31C33.9618 1.73 33.4841 1.26 32.8947 1.26H9.11541C8.52601 1.26 8.04839 1.73 8.04839 2.31V8.12C8.04839 8.7 8.52601 9.17 9.11541 9.17H12.4486ZM13.0888 10.43V13.83C13.0888 14.39 12.6315 14.84 12.0624 14.84C6.2497 14.84 1.50399 19.4 1.30075 25.08H34.3784C34.7239 25.08 35.0186 25.36 35.0186 25.71C35.0186 26.06 34.7239 26.34 34.3784 26.34H1.28043V56.56C1.28043 57.77 2.27631 58.75 3.49577 58.75H38.5042C39.7338 58.75 40.7297 57.77 40.7297 56.56V52.56H7.63174C7.28623 52.56 6.99153 52.28 6.99153 51.93C6.99153 51.58 7.28623 51.3 7.63174 51.3H40.7297V25.45C40.7297 19.6 35.8926 14.84 29.9477 14.84C29.3787 14.84 28.9214 14.39 28.9214 13.83V10.43H13.0888Z" fill="#2E4157"/>
</g>
<defs>
<clipPath id="clip0_14_26">
<rect width="42" height="60" fill="white"/>
</clipPath>
</defs>
</svg>
