<svg width="326" height="120" viewBox="0 0 326 120" fill="none" xmlns="http://www.w3.org/2000/svg">
<g clip-path="url(#clip0_23_41)">
<path d="M25.7362 118.575C12.3315 118.575 1.42603 107.678 1.42603 94.2825V25.7175C1.43353 12.3225 12.3315 1.425 25.7362 1.425H300.264C313.668 1.425 324.574 12.3225 324.574 25.7175V118.568H25.7362V118.575Z" fill="#00995D"/>
<path d="M300.264 2.8575C312.895 2.8575 323.14 13.095 323.14 25.7175V117.143H25.7363C13.1045 117.143 2.85958 106.905 2.85958 94.2825V25.7175C2.85958 13.095 13.1045 2.8575 25.7363 2.8575H300.264ZM300.264 0H25.7363C11.5434 0 0 11.535 0 25.7175V94.2825C0 108.465 11.5434 120 25.7363 120H326V25.7175C326 11.535 314.457 0 300.264 0Z" fill="white"/>
<path d="M172.356 78.3V78.555L167.139 94.305H163.642L158.516 78.555V78.3H161.578L165.421 90.255L169.263 78.3H172.348H172.356Z" fill="white"/>
<path d="M177.617 79.1025C177.617 80.175 176.881 80.865 175.808 80.865C174.735 80.865 173.977 80.1825 173.977 79.1025C173.977 78.0225 174.712 77.3625 175.808 77.3625C176.904 77.3625 177.617 78.045 177.617 79.1025ZM177.227 94.2975H174.367V82.8675H177.227V94.2975Z" fill="white"/>
<path d="M187.156 94.1175C186.308 94.5075 185.58 94.5975 184.687 94.5975C182.608 94.5975 180.957 93.435 180.957 90.7575V85.3875L179.238 85.2075V82.875H180.957L181.392 79.4475H183.794V82.875H186.834V85.3875H183.794V90.2325C183.794 91.6275 184.477 91.95 185.67 91.95C185.993 91.95 186.286 91.905 186.676 91.7925L187.156 94.125V94.1175Z" fill="white"/>
<path d="M188.417 88.7475C188.417 84.9075 190.541 82.575 194.204 82.575C197.867 82.575 199.811 84.675 199.811 88.515C199.811 92.355 197.634 94.5975 194.091 94.5975C190.549 94.5975 188.417 92.4225 188.417 88.7475ZM196.898 88.635C196.898 86.5575 195.893 85.1625 194.196 85.1625C192.365 85.1625 191.314 86.5575 191.314 88.635C191.314 90.7125 192.32 92.0175 194.084 92.0175C195.848 92.0175 196.898 90.6225 196.898 88.635ZM198.707 77.91L194.226 81.7275L192.553 80.1075L196.553 75.7875L198.707 77.91Z" fill="white"/>
<path d="M209.05 82.8L208.637 85.5C208.202 85.41 207.879 85.365 207.496 85.365C206.558 85.365 205.71 85.59 205.027 85.9575V94.2975H202.167V82.8675H204.134L204.569 83.85C205.44 83.025 206.491 82.5675 207.729 82.5675C208.232 82.5675 208.735 82.68 209.057 82.7925L209.05 82.8Z" fill="white"/>
<path d="M214.221 79.1025C214.221 80.175 213.486 80.865 212.412 80.865C211.339 80.865 210.581 80.1825 210.581 79.1025C210.581 78.0225 211.316 77.3625 212.412 77.3625C213.508 77.3625 214.221 78.045 214.221 79.1025ZM213.831 94.2975H210.971V82.8675H213.831V94.2975Z" fill="white"/>
<path d="M225.907 86.505V94.2975H224.143L223.73 93.5925C222.905 94.23 221.922 94.5975 220.593 94.5975C217.914 94.5975 216.36 93.09 216.36 91.0575C216.36 88.905 217.869 87.465 220.773 87.465H223.04V87.0525C223.04 85.7925 222.079 85.11 220.316 85.11C219.332 85.11 218.161 85.29 217.133 85.59L216.653 83.2125C218.071 82.8 219.648 82.575 220.976 82.575C224.541 82.575 225.892 84.195 225.892 86.505H225.907ZM221.126 92.2875C221.787 92.2875 222.455 92.1525 223.047 91.8525V89.6325H221.059C219.82 89.6325 219.295 90.18 219.295 90.9375C219.295 91.785 220 92.2875 221.126 92.2875Z" fill="white"/>
<path d="M37.1746 32.175C37.1746 31.785 37.5199 31.44 37.9102 31.44H46.7291C47.1194 31.44 47.4646 31.785 47.4646 32.175V51.96C47.4646 55.635 49.2284 57.885 53.2438 57.885C57.2593 57.885 58.978 55.635 58.978 51.96V32.175C58.978 31.785 59.3233 31.44 59.7135 31.44H68.5325C68.9227 31.44 69.268 31.785 69.268 32.175V51.375C69.268 59.9925 64.9524 66.21 53.2438 66.21C41.5353 66.21 37.1671 59.9925 37.1671 51.375V32.175H37.1746ZM74.1766 64.9875V40.5C74.1766 40.11 74.5218 39.765 74.9121 39.765H83.2432C83.6335 39.765 83.9787 40.11 83.9787 40.5V44.955C85.1571 41.43 89.0749 39.2775 93.2405 39.2775C98.1415 39.2775 101.226 41.8275 101.226 48.585V64.9875C101.226 65.3775 100.881 65.7225 100.491 65.7225H92.1597C91.7694 65.7225 91.4241 65.3775 91.4241 64.9875V50.49C91.4241 48.1425 90.6436 46.7175 87.799 46.7175C84.9544 46.7175 83.9787 47.2575 83.9787 48.135V64.98C83.9787 65.37 83.6335 65.715 83.2432 65.715H74.9121C74.5218 65.715 74.1766 65.37 74.1766 64.98V64.9875ZM110.736 29.43C114.999 29.43 116.177 29.82 116.177 33.3C116.177 36.78 114.999 37.215 110.736 37.215C106.473 37.215 105.249 36.87 105.249 33.3C105.249 29.73 106.473 29.43 110.736 29.43ZM105.887 40.5C105.887 40.11 106.232 39.765 106.623 39.765H114.954C115.344 39.765 115.689 40.11 115.689 40.5V64.9875C115.689 65.3775 115.344 65.7225 114.954 65.7225H106.623C106.232 65.7225 105.887 65.3775 105.887 64.9875V40.5ZM120.59 40.5C120.59 40.11 120.936 39.765 121.326 39.765H129.657C130.047 39.765 130.393 40.11 130.393 40.5V44.955C131.571 41.43 135.444 39.2775 139.309 39.2775C143.174 39.2775 145.779 40.89 146.754 44.6625C148.075 41.28 152.001 39.2775 155.874 39.2775C160.722 39.2775 163.912 41.8275 163.912 48.09V64.9875C163.912 65.3775 163.567 65.7225 163.176 65.7225H154.845C154.455 65.7225 154.11 65.3775 154.11 64.9875V50.49C154.11 48.1425 153.329 46.7175 150.725 46.7175C148.12 46.7175 147.145 47.2575 147.145 48.135V64.98C147.145 65.37 146.799 65.715 146.409 65.715H138.078C137.688 65.715 137.343 65.37 137.343 64.98V50.4825C137.343 48.135 136.562 46.71 133.958 46.71C131.353 46.71 130.378 47.25 130.378 48.1275V64.9725C130.378 65.3625 130.032 65.7075 129.642 65.7075H121.311C120.921 65.7075 120.575 65.3625 120.575 64.9725V40.485L120.59 40.5ZM181.85 39.2775C190.917 39.2775 194.887 44.2725 194.887 52.0125C194.887 53.6775 194.94 55.29 192.973 55.29H177.827C178.315 58.3725 180.079 59.505 185.91 59.505H193.356C193.844 59.505 194.242 59.9475 194.136 60.435L193.356 64.4025C193.303 64.65 193.206 64.7925 193.063 64.845C190.714 65.8275 187.231 66.2175 183.163 66.2175C172.483 66.2175 167.68 61.0725 167.68 52.65C167.68 44.2275 172.333 39.2775 181.843 39.2775H181.85ZM185.865 50.49C185.865 47.4525 184.98 45.5475 181.993 45.5475C179.493 45.5475 178.075 46.725 177.73 50.49H185.865ZM207.721 39.2775C211.692 39.2775 214.386 41.19 215.955 44.37V32.16C215.955 31.77 216.3 31.425 216.69 31.425H225.021C225.412 31.425 225.757 31.77 225.757 32.16V64.9875C225.757 65.3775 225.412 65.7225 225.021 65.7225H216.69C216.3 65.7225 215.955 65.3775 215.955 64.9875V61.1175C214.386 64.2975 211.692 66.21 207.721 66.21C200.959 66.21 198.309 60.63 198.309 52.74C198.309 44.85 200.959 39.27 207.721 39.27V39.2775ZM212.675 59.1075C214.979 59.1075 215.955 58.08 215.955 56.76V48.435C215.955 47.0625 214.679 46.38 212.675 46.38C209.785 46.38 208.607 48.39 208.607 52.7475C208.607 57.105 209.785 59.115 212.675 59.115V59.1075Z" fill="white"/>
<path d="M244.235 65.7225H255.111C255.749 65.7225 256.094 65.5275 256.432 65.085L263.494 55.5075C263.645 55.3125 263.787 55.065 263.787 54.825C263.787 54.48 263.442 54.285 262.857 54.285H258.796C258.158 54.285 257.813 53.9925 257.813 53.6025C257.813 53.355 257.963 53.115 258.106 52.92L264.575 44.2425C264.725 44.0475 264.868 43.8 264.868 43.56C264.868 43.17 264.523 42.8775 263.885 42.8775H259.074C258.436 42.8775 258.091 42.63 258.091 42.24C258.091 41.9925 258.241 41.7 258.383 41.505L264.665 33.1575C265.011 32.715 265.498 32.5725 265.941 32.5725C266.384 32.5725 266.872 32.7225 267.217 33.1575L273.499 41.505C273.649 41.7 273.792 41.9925 273.792 42.24C273.792 42.63 273.447 42.8775 272.809 42.8775H267.998C267.36 42.8775 267.015 43.17 267.015 43.56C267.015 43.8075 267.165 44.0475 267.307 44.2425L273.777 52.92C273.927 53.115 274.07 53.3625 274.07 53.6025C274.07 53.9925 273.724 54.285 273.086 54.285H269.026C268.441 54.285 268.095 54.48 268.095 54.825C268.095 55.0725 268.245 55.3125 268.388 55.5075L275.451 65.085C275.796 65.5275 276.186 65.7225 276.772 65.7225H287.647C288.435 65.7225 288.87 65.43 288.87 64.935C288.87 64.6425 288.72 64.35 288.578 64.1475L282.206 55.5C282.056 55.305 281.913 55.0575 281.913 54.8175C281.913 54.4725 282.258 54.2775 282.844 54.2775H290.492C291.28 54.2775 291.67 53.985 291.67 53.49C291.67 53.1975 291.52 52.905 291.377 52.7025L275.736 32.0025C275.443 31.6125 275.15 31.4175 274.46 31.4175H256.912C256.469 31.4175 255.982 31.515 255.636 32.0025L240.49 52.7025C240.295 52.995 240.198 53.2425 240.198 53.49C240.198 53.9775 240.588 54.2775 241.376 54.2775H249.024C249.609 54.2775 249.955 54.4725 249.955 54.8175C249.955 55.065 249.805 55.305 249.662 55.5L243.29 64.1475C243.14 64.3425 242.997 64.635 242.997 64.935C242.997 65.4225 243.44 65.7225 244.22 65.7225H244.235Z" fill="white"/>
</g>
<defs>
<clipPath id="clip0_23_41">
<rect width="326" height="120" fill="white"/>
</clipPath>
</defs>
</svg>
