<svg width="120" height="57" viewBox="0 0 120 57" fill="none" xmlns="http://www.w3.org/2000/svg">
<g clip-path="url(#clip0_1_61)">
<path d="M102.4 56.82H97.38V55.26H97.39C97.55 54.98 97.77 54.71 98.04 54.45C98.31 54.19 98.69 53.88 99.18 53.51C99.33 53.41 99.47 53.31 99.62 53.21C100.03 52.95 100.38 52.7 100.67 52.47C100.96 52.24 101.21 51.97 101.43 51.66C101.65 51.35 101.76 51.01 101.77 50.65C101.77 50.04 101.6 49.59 101.27 49.3C100.94 49.01 100.47 48.86 99.86 48.85C99.17 48.85 98.67 49.04 98.34 49.41C98.01 49.79 97.85 50.32 97.85 51.01H97.22C97.22 49.23 98.07 48.31 99.77 48.24C100.66 48.22 101.32 48.44 101.77 48.88C102.21 49.32 102.43 49.92 102.41 50.66C102.41 51.08 102.28 51.47 102.05 51.83C101.82 52.19 101.54 52.5 101.21 52.77C100.88 53.04 100.45 53.37 99.91 53.74C99.41 54.09 99.01 54.39 98.71 54.65C98.41 54.9 98.18 55.16 98.02 55.44V56.21H102.39V56.82H102.4Z" fill="#587D8C"/>
<path d="M105.88 57C104.87 57 104.1 56.58 103.58 55.73C103.33 55.29 103.16 54.82 103.06 54.33C102.96 53.81 102.9 53.24 102.9 52.63C102.9 52.02 102.95 51.45 103.06 50.94C103.23 50.12 103.55 49.47 104.01 48.98C104.47 48.49 105.1 48.25 105.88 48.25C106.96 48.25 107.73 48.68 108.19 49.54C108.65 50.4 108.87 51.43 108.87 52.64C108.87 53.85 108.64 54.95 108.17 55.77C107.7 56.59 106.94 57.01 105.88 57.01V57ZM105.88 56.36C106.74 56.36 107.35 56 107.71 55.28C108.06 54.56 108.24 53.67 108.24 52.62C108.24 51.97 108.17 51.37 108.03 50.81C107.89 50.25 107.65 49.78 107.29 49.41C106.93 49.04 106.46 48.85 105.86 48.85C105 48.85 104.39 49.22 104.04 49.95C103.69 50.68 103.52 51.57 103.52 52.62C103.52 53.67 103.69 54.58 104.04 55.3C104.39 56.01 105 56.37 105.87 56.37L105.88 56.36Z" fill="#587D8C"/>
<path d="M114.53 56.82H109.51V55.26H109.52C109.68 54.98 109.9 54.71 110.17 54.45C110.44 54.19 110.82 53.88 111.31 53.51C111.46 53.41 111.6 53.31 111.75 53.21C112.16 52.95 112.51 52.7 112.8 52.47C113.09 52.24 113.34 51.97 113.56 51.66C113.78 51.35 113.89 51.01 113.9 50.65C113.9 50.04 113.73 49.59 113.4 49.3C113.07 49.01 112.6 48.86 111.99 48.85C111.3 48.85 110.8 49.04 110.47 49.41C110.14 49.79 109.98 50.32 109.98 51.01H109.35C109.35 49.23 110.2 48.31 111.9 48.24C112.79 48.22 113.45 48.44 113.9 48.88C114.34 49.32 114.56 49.92 114.54 50.66C114.54 51.08 114.41 51.47 114.18 51.83C113.95 52.19 113.67 52.5 113.34 52.77C113.01 53.04 112.58 53.37 112.04 53.74C111.54 54.09 111.14 54.39 110.84 54.65C110.54 54.9 110.31 55.16 110.15 55.44V56.21H114.52V56.82H114.53Z" fill="#587D8C"/>
<path d="M115.73 56.34C115.3 55.9 115.09 55.28 115.09 54.48H115.72C115.72 54.85 115.79 55.18 115.91 55.46C116.03 55.75 116.22 55.97 116.48 56.14C116.74 56.3 117.09 56.39 117.51 56.39C117.98 56.39 118.34 56.29 118.6 56.1C118.86 55.91 119.06 55.62 119.22 55.25C119.3 55.04 119.35 54.75 119.37 54.36C119.39 53.98 119.36 53.59 119.28 53.21C119.2 52.83 119.06 52.53 118.86 52.32C118.65 52.09 118.4 51.96 118.1 51.94C117.81 51.92 117.54 52 117.31 52.19C117.08 52.38 116.93 52.65 116.87 52.99H115.03L115.54 48.42H119.87V49.06H116.13L115.73 52.46H116.47C116.53 52.3 116.62 52.13 116.75 51.96C116.88 51.79 117.05 51.64 117.28 51.52C117.5 51.4 117.76 51.34 118.05 51.35C118.74 51.37 119.24 51.63 119.55 52.15C119.86 52.67 120.01 53.31 120.01 54.09C120.01 54.99 119.81 55.7 119.4 56.22C118.99 56.74 118.38 57.01 117.55 57.01C116.72 57.01 116.16 56.79 115.73 56.35V56.34Z" fill="#587D8C"/>
<path d="M24.76 21.06H23.35C23.13 21.06 23.04 20.97 22.88 20.73L18.79 14.28L14.79 20.73C14.63 20.97 14.5 21.06 14.32 21.06H13C12.75 21.06 12.64 20.9 12.64 20.73C12.64 20.66 12.66 20.57 12.71 20.51L17.67 12.68L12.75 5.12C12.71 5.05 12.68 4.96 12.68 4.9C12.68 4.72 12.79 4.59 13.02 4.59H14.47C14.69 4.59 14.78 4.66 14.87 4.81L18.89 11.13L22.78 4.81C22.91 4.61 23.03 4.59 23.2 4.59H24.52C24.74 4.59 24.88 4.75 24.88 4.92C24.88 4.99 24.86 5.05 24.81 5.12L20 12.72L25.03 20.5C25.07 20.57 25.1 20.66 25.1 20.74C25.1 20.9 24.99 21.05 24.74 21.05L24.76 21.06Z" fill="#2E4157"/>
<path d="M36.23 20.93C35.29 21.11 34.42 21.22 32.52 21.22C29.77 21.22 26.62 19.76 26.62 14.37V11.29C26.62 5.86 29.77 4.44 32.52 4.44C33.93 4.44 35.29 4.64 36.28 4.79C36.48 4.81 36.64 4.88 36.64 5.08V6.21C36.64 6.34 36.6 6.45 36.37 6.45H36.3C35.5 6.38 33.84 6.25 32.54 6.25C30.35 6.25 28.65 7.51 28.65 11.28V14.36C28.65 18.08 30.35 19.39 32.54 19.39C33.81 19.39 35.42 19.28 36.23 19.21H36.32C36.57 19.21 36.68 19.32 36.68 19.56V20.47C36.68 20.74 36.48 20.87 36.23 20.91V20.93Z" fill="#2E4157"/>
<path d="M60.64 21.02C60.06 21.11 58.38 21.22 56.28 21.22C53.89 21.22 51.52 20.75 51.52 17.1V5.03C51.52 4.79 51.72 4.59 51.97 4.59H53.11C53.36 4.59 53.56 4.79 53.56 5.03V17.09C53.56 18.78 53.94 19.4 56.31 19.4H60.62C60.78 19.4 60.87 19.51 60.87 19.67V20.71C60.87 20.84 60.78 21 60.65 21.02H60.64Z" fill="#2E4157"/>
<path d="M71.0101 3.31C71.0101 3.41 70.95 3.46 70.81 3.46H69.64C69.53 3.46 69.4501 3.44 69.4001 3.4C69.3501 3.36 69.2501 3.27 69.1201 3.12L67.2901 0.97L65.43 3.12C65.3 3.26 65.2101 3.36 65.1501 3.4C65.1001 3.44 65.02 3.46 64.92 3.46H63.75C63.62 3.46 63.55 3.41 63.55 3.31C63.55 3.21 63.58 3.14 63.64 3.08L65.7901 0.33C65.9101 0.19 65.9901 0.09 66.0501 0.06C66.1101 0.02 66.2 0 66.32 0H68.2201C68.4101 0 68.6 0.11 68.78 0.33L70.9101 3.08C70.9701 3.14 71 3.21 71 3.31" fill="#2E4157"/>
<path d="M85.94 21.06H84.55C84.19 21.06 83.95 20.93 83.83 20.71L76.92 7.7C76.92 7.7 76.88 7.63 76.85 7.63C76.82 7.63 76.83 7.65 76.83 7.7V20.65C76.83 20.87 76.65 21.07 76.43 21.07H75.27C75.05 21.07 74.87 21.03 74.87 20.8V5.21C74.87 4.86 75.16 4.59 75.52 4.59H76.75C77.38 4.59 77.49 4.7 77.67 5.03L84.53 17.98L84.57 18.05C84.57 18.05 84.59 18.01 84.59 17.98V5.01C84.59 4.79 84.77 4.59 84.99 4.59H86.17C86.42 4.59 86.57 4.79 86.57 5.01V20.42C86.57 20.77 86.28 21.06 85.92 21.06H85.94Z" fill="#2E4157"/>
<path d="M99.2901 20.93C98.3501 21.11 97.4801 21.22 95.5801 21.22C92.8301 21.22 89.6801 19.76 89.6801 14.37V11.29C89.6801 5.86 92.8301 4.44 95.5801 4.44C96.9901 4.44 98.35 4.64 99.34 4.79C99.54 4.81 99.7001 4.88 99.7001 5.08V6.21C99.7001 6.34 99.6601 6.45 99.4301 6.45H99.3601C98.5601 6.38 96.9001 6.25 95.6001 6.25C93.4101 6.25 91.7101 7.51 91.7101 11.28V14.36C91.7101 18.08 93.4101 19.39 95.6001 19.39C96.8701 19.39 98.4801 19.28 99.2901 19.21H99.3801C99.6301 19.21 99.7401 19.32 99.7401 19.56V20.47C99.7401 20.74 99.5401 20.87 99.2901 20.91V20.93Z" fill="#2E4157"/>
<path d="M104.12 21.06H102.89C102.67 21.06 102.49 20.86 102.49 20.62V5.01C102.49 4.79 102.65 4.59 102.89 4.59H104.12C104.34 4.59 104.52 4.77 104.52 5.01V20.62C104.52 20.84 104.36 21.06 104.12 21.06Z" fill="#2E4157"/>
<path d="M46.59 45.14H45.49C45.24 45.14 45.04 44.94 45.04 44.7V31.55C45.04 31.55 45.04 31.48 45.02 31.48C45 31.48 45 31.48 44.98 31.52L41.78 38.08C41.56 38.52 41.33 38.72 40.77 38.72H39.74C39.18 38.72 38.96 38.52 38.73 38.08L35.53 31.52C35.53 31.52 35.51 31.48 35.49 31.48C35.47 31.48 35.47 31.5 35.47 31.55V44.7C35.47 44.94 35.27 45.14 35.02 45.14H33.92C33.67 45.14 33.47 44.94 33.47 44.7V29.31C33.47 28.96 33.76 28.67 34.12 28.67H35.57C35.97 28.67 36.15 28.76 36.29 29.05L39.98 36.66C40.07 36.86 40.14 36.9 40.25 36.9C40.36 36.9 40.43 36.86 40.52 36.66L44.21 29.05C44.34 28.76 44.52 28.67 44.93 28.67H46.38C46.74 28.67 47.03 28.96 47.03 29.31V44.7C47.03 44.94 46.83 45.14 46.58 45.14H46.59Z" fill="#2E4157"/>
<path d="M59.94 45.3C58.38 45.3 57.21 45.14 56.23 44.99C55.85 44.92 55.81 44.83 55.81 44.59V43.7C55.81 43.46 55.99 43.35 56.19 43.35H56.26C57.29 43.44 58.92 43.48 59.95 43.48C62.63 43.48 63.35 42.42 63.35 40.86C63.35 39.75 62.7 39.13 60.67 37.89L58.5 36.58C56.44 35.34 55.42 34.21 55.42 32.43C55.42 29.75 57.36 28.51 60.76 28.51C62.08 28.51 63.8 28.64 64.65 28.78C64.87 28.82 65.03 28.94 65.03 29.16V30.11C65.03 30.33 64.87 30.46 64.65 30.46H64.6C63.62 30.39 62.05 30.33 60.76 30.33C58.46 30.33 57.47 30.82 57.47 32.44C57.47 33.48 58.21 34.1 59.91 35.12L61.97 36.34C64.56 37.87 65.48 39.09 65.48 40.86C65.48 42.99 64.36 45.29 59.96 45.29L59.94 45.3Z" fill="#2E4157"/>
<path d="M87.17 45.3C83.55 45.3 81.45 43.39 81.45 39.16V29.09C81.45 28.87 81.63 28.67 81.87 28.67H83.08C83.3 28.67 83.5 28.85 83.5 29.09V39.16C83.5 42.02 84.39 43.57 87.17 43.57C89.95 43.57 90.84 42.04 90.84 39.16V29.09C90.84 28.87 91.02 28.67 91.26 28.67H92.47C92.69 28.67 92.89 28.85 92.89 29.09V39.16C92.89 43.39 90.79 45.3 87.17 45.3ZM90.39 24.41L87.86 27.2C87.66 27.42 87.59 27.53 87.35 27.53H86.14C86.01 27.53 85.94 27.46 85.94 27.37C85.94 27.3 85.96 27.21 86.03 27.15L88.22 24.4C88.42 24.16 88.49 24.07 88.76 24.07H90.24C90.4 24.07 90.49 24.11 90.49 24.23C90.49 24.27 90.47 24.34 90.4 24.41H90.39Z" fill="#2E4157"/>
<path d="M100.86 45.3C99.1599 45.3 97.4399 45.19 96.7899 45.08C96.4999 45.04 96.3199 44.86 96.3199 44.53V29.3C96.3199 28.99 96.4999 28.79 96.7899 28.75C97.4399 28.64 99.1599 28.53 100.86 28.53C105 28.53 107.63 30.64 107.63 35.43V38.42C107.63 43.16 104.99 45.32 100.86 45.32V45.3ZM105.59 35.41C105.59 31.4 103.53 30.24 100.85 30.24C99.7999 30.24 99.1099 30.26 98.3699 30.31V43.52C99.0899 43.56 99.7999 43.56 100.85 43.56C103.53 43.56 105.59 42.38 105.59 38.39V35.4V35.41Z" fill="#2E4157"/>
<path fill-rule="evenodd" clip-rule="evenodd" d="M0.98 4.49001H9.38C9.92 4.49001 10.36 4.97001 10.36 5.55001C10.36 6.13001 9.92 6.61001 9.38 6.61001H0.98C0.44 6.61001 0 6.13001 0 5.55001C0 4.97001 0.44 4.49001 0.98 4.49001Z" fill="#2E4157"/>
<path fill-rule="evenodd" clip-rule="evenodd" d="M1.96004 11.76H7.47004C7.98004 11.76 8.39004 12.24 8.39004 12.82C8.39004 13.4 7.98004 13.88 7.47004 13.88H1.96004C1.45004 13.88 1.04004 13.4 1.04004 12.82C1.04004 12.24 1.45004 11.76 1.96004 11.76Z" fill="#2E4157"/>
<path fill-rule="evenodd" clip-rule="evenodd" d="M0.98 19.04H9.38C9.92 19.04 10.36 19.52 10.36 20.1C10.36 20.68 9.92 21.16 9.38 21.16H0.98C0.44 21.16 0 20.68 0 20.1C0 19.52 0.44 19.04 0.98 19.04Z" fill="#2E4157"/>
<path fill-rule="evenodd" clip-rule="evenodd" d="M22.2901 28.39H29.6501C30.1901 28.39 30.6301 28.87 30.6301 29.45C30.6301 30.03 30.1901 30.51 29.6501 30.51H22.2901C21.7501 30.51 21.3101 30.03 21.3101 29.45C21.3101 28.87 21.7501 28.39 22.2901 28.39Z" fill="#2E4157"/>
<path fill-rule="evenodd" clip-rule="evenodd" d="M22.2399 35.66H27.7499C28.2599 35.66 28.6699 36.14 28.6699 36.72C28.6699 37.3 28.2599 37.78 27.7499 37.78H22.2399C21.7299 37.78 21.3199 37.3 21.3199 36.72C21.3199 36.14 21.7299 35.66 22.2399 35.66Z" fill="#2E4157"/>
<path fill-rule="evenodd" clip-rule="evenodd" d="M22.2901 42.93H29.6501C30.1901 42.93 30.6301 43.41 30.6301 43.99C30.6301 44.57 30.1901 45.05 29.6501 45.05H22.2901C21.7501 45.05 21.3101 44.57 21.3101 43.99C21.3101 43.41 21.7501 42.93 22.2901 42.93Z" fill="#2E4157"/>
<path d="M79.6799 44.78C79.6799 45.02 79.5499 45.14 79.2999 45.14H77.9799C77.78 45.14 77.6599 45.03 77.6099 44.8C75.4299 37.19 75.9499 38.77 73.6899 30.66C73.6199 30.39 73.4699 30.26 73.2599 30.26C73.0399 30.26 72.8899 30.39 72.8099 30.66C70.6599 38.37 70.9599 37.55 68.9199 44.8C68.8999 44.9 68.8499 44.97 68.7599 45.04C68.6699 45.1 68.5899 45.14 68.5199 45.14H67.1999C67.0999 45.14 67.0099 45.11 66.9399 45.04C66.8599 44.97 66.8199 44.89 66.8199 44.78C66.8199 44.71 66.8199 44.66 66.8399 44.63L70.9799 30.2C71.1599 29.57 71.4599 29.13 71.8899 28.88C72.3099 28.63 72.7699 28.51 73.2599 28.51C73.5799 28.51 73.8899 28.56 74.1799 28.66C74.4699 28.76 74.74 28.93 74.9799 29.18C75.2199 29.43 75.3999 29.76 75.5299 30.18L79.6699 44.63C79.6699 44.63 79.6899 44.71 79.6899 44.78" fill="#2E4157"/>
<path fill-rule="evenodd" clip-rule="evenodd" d="M72.02 37.96H74.49C74.9 37.96 75.24 38.35 75.24 38.84C75.24 39.32 74.9 39.72 74.49 39.72H72.02C71.61 39.72 71.27 39.33 71.27 38.84C71.27 38.36 71.61 37.96 72.02 37.96Z" fill="#2E4157"/>
<path d="M120 20.71C120 20.95 119.87 21.07 119.62 21.07H118.3C118.1 21.07 117.98 20.96 117.93 20.73C115.75 13.12 116.27 14.7 114.01 6.59C113.94 6.32 113.79 6.19 113.58 6.19C113.36 6.19 113.21 6.32 113.13 6.59C110.98 14.3 111.28 13.48 109.24 20.73C109.22 20.83 109.17 20.9 109.08 20.97C108.99 21.03 108.91 21.07 108.84 21.07H107.52C107.42 21.07 107.33 21.04 107.26 20.97C107.18 20.9 107.14 20.82 107.14 20.72C107.14 20.65 107.14 20.6 107.16 20.57L111.3 6.14C111.48 5.51 111.78 5.07 112.21 4.82C112.63 4.57 113.09 4.45 113.58 4.45C113.9 4.45 114.21 4.5 114.5 4.6C114.79 4.7 115.06 4.87 115.3 5.12C115.54 5.37 115.72 5.7 115.85 6.12L119.99 20.57C119.99 20.57 120.01 20.65 120.01 20.72" fill="#2E4157"/>
<path fill-rule="evenodd" clip-rule="evenodd" d="M112.34 13.88H114.81C115.22 13.88 115.56 14.27 115.56 14.76C115.56 15.24 115.22 15.64 114.81 15.64H112.34C111.93 15.64 111.59 15.25 111.59 14.76C111.59 14.28 111.93 13.88 112.34 13.88Z" fill="#2E4157"/>
<path d="M48.5499 20.8C48.5499 20.99 48.4699 21.09 48.32 21.11C47.62 21.18 46.1699 21.22 43.9599 21.22C42.3699 21.22 41.18 20.89 40.38 20.24C39.59 19.59 39.2 18.54 39.2 17.09V8.54999C39.2 7.10999 39.59 6.05999 40.38 5.40999C41.17 4.75999 42.3599 4.42999 43.9599 4.42999C44.5999 4.42999 45.13 4.42999 45.54 4.43999C45.96 4.43999 46.46 4.45999 47.06 4.48999C47.66 4.51999 48.08 4.53999 48.32 4.55999C48.3899 4.55999 48.45 4.59999 48.49 4.65999C48.53 4.71999 48.5499 4.78999 48.5499 4.86999V5.97999C48.5499 6.15999 48.4599 6.24999 48.2999 6.24999H43.99C43.2 6.24999 42.62 6.31999 42.22 6.46999C41.83 6.61999 41.56 6.84999 41.43 7.16999C41.3 7.48999 41.2299 7.94999 41.2299 8.54999V17.09C41.2299 17.69 41.3 18.15 41.43 18.47C41.56 18.79 41.82 19.03 42.22 19.18C42.61 19.33 43.2 19.4 43.99 19.4H48.2999C48.4699 19.4 48.5499 19.49 48.5499 19.67V20.8Z" fill="#2E4157"/>
<path fill-rule="evenodd" clip-rule="evenodd" d="M42.53 11.95H46.02C46.43 11.95 46.77 12.34 46.77 12.83C46.77 13.31 46.43 13.71 46.02 13.71H42.53C42.12 13.71 41.78 13.32 41.78 12.83C41.78 12.35 42.12 11.95 42.53 11.95Z" fill="#2E4157"/>
<path d="M71.89 20.8C71.89 20.99 71.81 21.09 71.66 21.11C70.96 21.18 69.51 21.22 67.3 21.22C65.71 21.22 64.52 20.89 63.72 20.24C62.93 19.59 62.54 18.54 62.54 17.09V8.54999C62.54 7.10999 62.93 6.05999 63.72 5.40999C64.51 4.75999 65.7 4.42999 67.3 4.42999C67.94 4.42999 68.47 4.42999 68.88 4.43999C69.3 4.43999 69.8 4.45999 70.4 4.48999C71 4.51999 71.42 4.53999 71.66 4.55999C71.73 4.55999 71.79 4.59999 71.83 4.65999C71.87 4.71999 71.89 4.78999 71.89 4.86999V5.97999C71.89 6.15999 71.8 6.24999 71.64 6.24999H67.33C66.54 6.24999 65.96 6.31999 65.56 6.46999C65.17 6.61999 64.9 6.84999 64.77 7.16999C64.64 7.48999 64.57 7.94999 64.57 8.54999V17.09C64.57 17.69 64.64 18.15 64.77 18.47C64.9 18.79 65.16 19.03 65.56 19.18C65.95 19.33 66.54 19.4 67.33 19.4H71.64C71.81 19.4 71.89 19.49 71.89 19.67V20.8Z" fill="#2E4157"/>
<path fill-rule="evenodd" clip-rule="evenodd" d="M65.86 11.95H69.35C69.76 11.95 70.1 12.34 70.1 12.83C70.1 13.31 69.76 13.71 69.35 13.71H65.86C65.45 13.71 65.11 13.32 65.11 12.83C65.11 12.35 65.45 11.95 65.86 11.95Z" fill="#2E4157"/>
<path d="M120 44.88C120 45.07 119.92 45.17 119.77 45.19C119.07 45.26 117.62 45.3 115.41 45.3C113.82 45.3 112.63 44.97 111.83 44.32C111.04 43.67 110.65 42.62 110.65 41.17V32.63C110.65 31.19 111.05 30.14 111.83 29.49C112.62 28.84 113.81 28.51 115.41 28.51C116.05 28.51 116.58 28.51 116.99 28.52C117.41 28.52 117.91 28.54 118.51 28.57C119.11 28.6 119.53 28.62 119.77 28.64C119.84 28.64 119.9 28.68 119.94 28.74C119.98 28.8 120 28.87 120 28.95V30.06C120 30.24 119.91 30.33 119.75 30.33H115.44C114.65 30.33 114.07 30.4 113.67 30.55C113.27 30.7 113.01 30.93 112.88 31.25C112.75 31.57 112.68 32.03 112.68 32.63V41.17C112.68 41.77 112.75 42.23 112.88 42.55C113.01 42.87 113.27 43.11 113.67 43.26C114.06 43.41 114.65 43.48 115.44 43.48H119.75C119.92 43.48 120 43.57 120 43.75V44.88Z" fill="#2E4157"/>
<path fill-rule="evenodd" clip-rule="evenodd" d="M113.98 36.03H117.47C117.88 36.03 118.22 36.42 118.22 36.91C118.22 37.39 117.88 37.79 117.47 37.79H113.98C113.57 37.79 113.23 37.4 113.23 36.91C113.23 36.43 113.57 36.03 113.98 36.03Z" fill="#2E4157"/>
</g>
<defs>
<clipPath id="clip0_1_61">
<rect width="120" height="57" fill="white"/>
</clipPath>
</defs>
</svg>
