<svg width="98" height="18" viewBox="0 0 98 18" fill="none" xmlns="http://www.w3.org/2000/svg">
<g clip-path="url(#clip0_1_179)">
<path d="M3.35 2.97V7.84H9.31V10.79H3.35V17.65H0V0H10.52V2.97H3.35Z" fill="white"/>
<path d="M26.55 0L26.52 17.65H23.15V16.42C22.27 17.3 20.89 18.01 19.25 18.01C15.73 18.01 14.27 16.1 14.27 12.54V0H17.67V12.17C17.67 14.21 18.37 15.09 20.06 15.09C21.42 15.09 22.6 14.28 23.18 13.38V0H26.55Z" fill="white"/>
<path d="M42.14 2.95H37.71V17.65H34.34V2.95H29.91V0H42.14V2.95Z" fill="white"/>
<path d="M57.7199 0L57.6899 17.65H54.3199V16.42C53.4399 17.3 52.0599 18.01 50.4199 18.01C46.8999 18.01 45.4399 16.1 45.4399 12.54V0H48.8399V12.17C48.8399 14.21 49.5399 15.09 51.2299 15.09C52.5899 15.09 53.7699 14.28 54.3499 13.38V0H57.7199Z" fill="white"/>
<path d="M75.55 15.15L75.53 17.72C72.64 18.15 71.18 17.95 69.77 15.13L67.81 11.2H65.32V17.65H61.97V0H68.71C72.28 0 74.55 2.22 74.55 5.17V6.03C74.55 8.2 73.29 9.99 71.2 10.74L73.14 14.34C73.74 15.47 74.8 15.35 75.55 15.15ZM65.31 8.27H68.53C70.29 8.27 71.17 7.16 71.17 5.72V5.47C71.17 4.01 70.29 2.97 68.7 2.97H65.3V8.26L65.31 8.27Z" fill="white"/>
<path d="M92.54 17.65H88.84L87.61 13.49C85.8 13.79 84.01 13.79 82.2 13.49L81.02 17.65H77.32L83.35 0H86.42L92.53 17.65H92.54ZM86.85 10.87L84.91 4.09L82.92 10.87C84.23 11.12 85.54 11.12 86.84 10.87H86.85Z" fill="white"/>
<path d="M94.89 1.17999L93.63 2.44999L95.48 4.29999L93.63 6.14999L94.89 7.41999L98 4.30999L94.89 1.19999V1.17999Z" fill="white"/>
</g>
<defs>
<clipPath id="clip0_1_179">
<rect width="98" height="18" fill="white"/>
</clipPath>
</defs>
</svg>
