<svg width="460" height="220" viewBox="0 0 460 220" fill="none" xmlns="http://www.w3.org/2000/svg">
<g clip-path="url(#clip0_5_2)">
<path d="M392.54 219.31L373.29 219.36V213.29L373.34 213.24C373.96 212.19 374.79 211.16 375.82 210.16C376.86 209.16 378.32 207.94 380.2 206.52C380.76 206.12 381.31 205.73 381.87 205.36C383.45 204.34 384.79 203.39 385.91 202.51C387.02 201.63 388 200.59 388.83 199.38C389.66 198.17 390.1 196.88 390.13 195.49C390.13 193.14 389.49 191.41 388.2 190.28C386.92 189.15 385.11 188.57 382.79 188.54C380.16 188.54 378.22 189.27 376.97 190.72C375.72 192.17 375.09 194.23 375.09 196.88H372.68C372.68 190.02 375.94 186.46 382.47 186.18C385.87 186.12 388.42 186.94 390.13 188.66C391.83 190.37 392.65 192.67 392.59 195.54C392.56 197.18 392.1 198.68 391.22 200.06C390.34 201.43 389.27 202.65 388.02 203.7C386.77 204.75 385.1 206 383.03 207.45C381.11 208.81 379.58 209.98 378.44 210.95C377.3 211.92 376.41 212.93 375.8 213.98V216.95H392.55V219.31H392.54Z" fill="#587D8C"/>
<path d="M405.86 220C401.99 220 399.06 218.36 397.05 215.09C396.09 213.39 395.43 211.58 395.05 209.67C394.65 207.66 394.45 205.47 394.45 203.09C394.45 200.71 394.65 198.53 395.05 196.56C395.7 193.41 396.91 190.89 398.69 189.01C400.47 187.13 402.86 186.18 405.86 186.18C410 186.18 412.95 187.84 414.7 191.16C416.45 194.48 417.32 198.47 417.32 203.14C417.32 207.81 416.42 212.05 414.63 215.23C412.84 218.41 409.91 220 405.86 220ZM405.86 217.54C409.17 217.54 411.5 216.15 412.87 213.37C414.23 210.59 414.91 207.16 414.91 203.08C414.91 200.58 414.65 198.25 414.12 196.08C413.59 193.92 412.65 192.12 411.29 190.68C409.93 189.24 408.1 188.53 405.82 188.53C402.51 188.53 400.19 189.94 398.86 192.77C397.53 195.6 396.87 199.03 396.87 203.08C396.87 207.13 397.53 210.66 398.86 213.41C400.19 216.16 402.53 217.53 405.87 217.53L405.86 217.54Z" fill="#587D8C"/>
<path d="M439.03 219.31L419.78 219.36V213.29L419.83 213.24C420.45 212.19 421.28 211.16 422.31 210.16C423.35 209.16 424.81 207.94 426.69 206.52C427.25 206.12 427.8 205.73 428.36 205.36C429.94 204.34 431.28 203.39 432.4 202.51C433.51 201.63 434.49 200.59 435.32 199.38C436.15 198.17 436.59 196.88 436.62 195.49C436.62 193.14 435.98 191.41 434.69 190.28C433.41 189.15 431.6 188.57 429.28 188.54C426.65 188.54 424.71 189.27 423.46 190.72C422.21 192.17 421.58 194.23 421.58 196.88H419.17C419.17 190.02 422.43 186.46 428.96 186.18C432.36 186.12 434.91 186.94 436.62 188.66C438.32 190.37 439.14 192.67 439.08 195.54C439.05 197.18 438.59 198.68 437.71 200.06C436.83 201.43 435.76 202.65 434.51 203.7C433.26 204.75 431.59 206 429.52 207.45C427.6 208.81 426.07 209.98 424.93 210.95C423.79 211.92 422.9 212.93 422.29 213.98V216.95H439.04V219.31H439.03Z" fill="#587D8C"/>
<path d="M443.62 217.45C441.98 215.75 441.16 213.36 441.16 210.27H443.57C443.6 211.69 443.84 212.96 444.29 214.07C444.74 215.18 445.47 216.05 446.47 216.69C447.47 217.32 448.8 217.64 450.44 217.64C452.23 217.64 453.63 217.27 454.62 216.53C455.61 215.79 456.4 214.69 456.99 213.24C457.3 212.44 457.49 211.29 457.57 209.81C457.65 208.33 457.53 206.85 457.22 205.39C456.91 203.92 456.37 202.77 455.6 201.94C454.8 201.04 453.83 200.55 452.7 200.46C451.57 200.37 450.56 200.69 449.66 201.43C448.76 202.17 448.21 203.21 447.99 204.53H440.94L442.89 186.88H459.5V189.34H445.16L443.63 202.45H446.46C446.68 201.83 447.03 201.19 447.53 200.53C448.02 199.87 448.7 199.3 449.55 198.84C450.4 198.38 451.38 198.16 452.5 198.19C455.16 198.25 457.08 199.28 458.25 201.27C459.43 203.26 460.01 205.76 460.01 208.75C460.01 212.21 459.23 214.95 457.67 216.97C456.11 218.99 453.75 220 450.59 220C447.43 220 445.27 219.15 443.63 217.45H443.62Z" fill="#587D8C"/>
<path d="M94.92 81.3H89.52C88.66 81.3 88.32 80.96 87.72 80.02L72.04 55.12L56.7 80.02C56.1 80.96 55.59 81.3 54.9 81.3H49.84C48.9 81.3 48.47 80.7 48.47 80.02C48.47 79.76 48.56 79.42 48.73 79.16L67.75 48.95L48.9 19.77C48.73 19.51 48.64 19.17 48.64 18.91C48.64 18.23 49.07 17.71 49.93 17.71H55.5C56.36 17.71 56.7 17.97 57.04 18.57L72.46 42.96L87.37 18.57C87.88 17.8 88.31 17.71 89 17.71H94.06C94.92 17.71 95.43 18.31 95.43 18.99C95.43 19.25 95.34 19.5 95.17 19.76L76.75 49.11L96.03 79.15C96.2 79.41 96.29 79.75 96.29 80.09C96.29 80.69 95.86 81.29 94.92 81.29V81.3Z" fill="#2E4157"/>
<path d="M138.87 80.79C135.27 81.47 131.93 81.9 124.65 81.9C114.11 81.9 102.03 76.25 102.03 55.46V43.56C102.03 22.59 114.11 17.12 124.65 17.12C130.05 17.12 135.28 17.89 139.05 18.49C139.82 18.58 140.42 18.83 140.42 19.6V23.96C140.42 24.47 140.25 24.9 139.39 24.9H139.13C136.05 24.64 129.7 24.13 124.73 24.13C116.33 24.13 109.82 29.01 109.82 43.56V55.46C109.82 69.84 116.33 74.89 124.73 74.89C129.61 74.89 135.78 74.46 138.87 74.21H139.21C140.15 74.21 140.58 74.64 140.58 75.58V79.09C140.58 80.12 139.81 80.63 138.87 80.8V80.79Z" fill="#2E4157"/>
<path d="M232.44 81.13C230.21 81.47 223.79 81.9 215.73 81.9C206.56 81.9 197.48 80.1 197.48 65.98V19.43C197.48 18.49 198.25 17.72 199.19 17.72H203.56C204.5 17.72 205.27 18.49 205.27 19.43V65.98C205.27 72.48 206.73 74.88 215.81 74.88H232.35C232.95 74.88 233.29 75.31 233.29 75.91V79.93C233.29 80.44 232.95 81.04 232.43 81.13H232.44Z" fill="#2E4157"/>
<path d="M272.22 12.77C272.22 13.15 271.98 13.35 271.46 13.35H266.99C266.58 13.35 266.26 13.28 266.08 13.12C265.88 12.96 265.52 12.61 265.02 12.05L257.99 3.75999L250.88 12.05C250.38 12.61 250.02 12.96 249.81 13.12C249.61 13.28 249.31 13.35 248.91 13.35H244.44C243.94 13.35 243.68 13.15 243.68 12.77C243.68 12.39 243.79 12.11 244.02 11.89L252.26 1.25999C252.7 0.699995 253.03 0.349994 253.26 0.219995C253.49 0.0799945 253.83 0.00999451 254.3 0.00999451H261.58C262.31 0.00999451 263.02 0.419994 263.71 1.26999L271.88 11.9C272.09 12.13 272.21 12.41 272.21 12.78" fill="#2E4157"/>
<path d="M329.45 81.3H324.14C322.77 81.3 321.83 80.79 321.4 79.93L294.92 29.7C294.83 29.53 294.75 29.44 294.66 29.44C294.57 29.44 294.57 29.53 294.57 29.7V79.68C294.57 80.54 293.88 81.31 293.03 81.31H288.57C287.71 81.31 287.03 81.14 287.03 80.28V20.12C287.03 18.75 288.14 17.72 289.51 17.72H294.22C296.62 17.72 297.05 18.15 297.73 19.43L324.04 69.41L324.21 69.67C324.3 69.67 324.3 69.5 324.3 69.41V19.35C324.3 18.49 324.99 17.72 325.84 17.72H330.38C331.32 17.72 331.92 18.49 331.92 19.35V78.83C331.92 80.2 330.81 81.31 329.44 81.31L329.45 81.3Z" fill="#2E4157"/>
<path d="M380.63 80.79C377.03 81.47 373.69 81.9 366.41 81.9C355.87 81.9 343.79 76.25 343.79 55.46V43.56C343.79 22.59 355.87 17.12 366.41 17.12C371.81 17.12 377.04 17.89 380.81 18.49C381.58 18.58 382.18 18.83 382.18 19.6V23.96C382.18 24.47 382.01 24.9 381.15 24.9H380.89C377.81 24.64 371.47 24.13 366.49 24.13C358.09 24.13 351.58 29.01 351.58 43.56V55.46C351.58 69.84 358.09 74.89 366.49 74.89C371.38 74.89 377.54 74.46 380.63 74.21H380.97C381.91 74.21 382.34 74.64 382.34 75.58V79.09C382.34 80.12 381.57 80.63 380.63 80.8V80.79Z" fill="#2E4157"/>
<path d="M399.14 81.3H394.43C393.57 81.3 392.89 80.53 392.89 79.59V19.35C392.89 18.49 393.49 17.72 394.43 17.72H399.14C400 17.72 400.68 18.4 400.68 19.35V79.6C400.68 80.46 400.08 81.31 399.14 81.31V81.3Z" fill="#2E4157"/>
<path d="M178.61 174.24H174.41C173.47 174.24 172.7 173.47 172.7 172.53V121.78C172.7 121.61 172.7 121.52 172.61 121.52C172.52 121.52 172.52 121.52 172.44 121.69L160.19 147.02C159.33 148.73 158.48 149.5 156.33 149.5H152.39C150.25 149.5 149.39 148.73 148.53 147.02L136.28 121.69C136.22 121.577 136.163 121.52 136.11 121.52C136.02 121.52 136.02 121.61 136.02 121.78V172.53C136.02 173.47 135.25 174.24 134.31 174.24H130.11C129.17 174.24 128.4 173.47 128.4 172.53V113.14C128.4 111.77 129.51 110.66 130.89 110.66H136.46C138 110.66 138.69 111 139.2 112.11L153.34 141.46C153.68 142.23 153.94 142.4 154.37 142.4C154.8 142.4 155.06 142.23 155.4 141.46L169.54 112.11C170.05 111 170.74 110.66 172.28 110.66H177.85C179.22 110.66 180.34 111.77 180.34 113.14V172.53C180.34 173.47 179.57 174.24 178.63 174.24H178.61Z" fill="#2E4157"/>
<path d="M229.79 174.83C223.79 174.83 219.34 174.23 215.57 173.63C214.11 173.37 213.94 173.03 213.94 172.09V168.67C213.94 167.73 214.63 167.3 215.4 167.3H215.66C219.6 167.64 225.86 167.81 229.8 167.81C240.08 167.81 242.82 163.7 242.82 157.71C242.82 153.43 240.34 151.04 232.54 146.24L224.23 141.19C216.35 136.4 212.4 132.03 212.4 125.19C212.4 114.84 219.86 110.04 232.88 110.04C237.94 110.04 244.53 110.55 247.79 111.07C248.65 111.24 249.25 111.67 249.25 112.52V116.2C249.25 117.06 248.65 117.57 247.79 117.57H247.62C243.85 117.31 237.85 117.06 232.88 117.06C224.05 117.06 220.28 118.94 220.28 125.19C220.28 129.21 223.11 131.61 229.62 135.55L237.5 140.26C247.44 146.17 250.95 150.87 250.95 157.72C250.95 165.94 246.67 174.84 229.78 174.84L229.79 174.83Z" fill="#2E4157"/>
<path d="M334.15 174.83C320.27 174.83 312.21 167.47 312.21 151.13V112.28C312.21 111.42 312.9 110.65 313.84 110.65H318.47C319.33 110.65 320.1 111.33 320.1 112.28V151.13C320.1 162.17 323.53 168.16 334.15 168.16C344.77 168.16 348.2 162.25 348.2 151.13V112.28C348.2 111.42 348.89 110.65 349.83 110.65H354.46C355.32 110.65 356.09 111.33 356.09 112.28V151.13C356.09 167.48 348.03 174.83 334.15 174.83ZM346.49 94.22L336.81 105C336.04 105.86 335.78 106.28 334.84 106.28H330.21C329.7 106.28 329.44 106.02 329.44 105.68C329.44 105.42 329.53 105.08 329.78 104.83L338.18 94.22C338.95 93.28 339.21 92.94 340.24 92.94H345.9C346.5 92.94 346.84 93.11 346.84 93.54C346.84 93.71 346.75 93.97 346.5 94.22H346.49Z" fill="#2E4157"/>
<path d="M386.61 174.83C380.1 174.83 373.5 174.4 371.02 173.98C369.91 173.81 369.22 173.12 369.22 171.84V113.05C369.22 111.85 369.91 111.08 371.02 110.91C373.5 110.48 380.1 110.05 386.61 110.05C402.46 110.05 412.58 118.18 412.58 136.66V148.21C412.58 166.52 402.47 174.82 386.61 174.82V174.83ZM404.78 136.67C404.78 121.18 396.9 116.73 386.61 116.73C382.58 116.73 379.93 116.82 377.1 116.99V167.99C379.84 168.16 382.58 168.16 386.61 168.16C396.89 168.16 404.78 163.62 404.78 148.22V136.67Z" fill="#2E4157"/>
<path fill-rule="evenodd" clip-rule="evenodd" d="M3.74 17.35H35.95C38.01 17.35 39.69 19.19 39.69 21.45C39.69 23.71 38.01 25.55 35.95 25.55H3.74C1.69 25.55 0 23.71 0 21.45C0 19.19 1.68 17.35 3.74 17.35Z" fill="#2E4157"/>
<path fill-rule="evenodd" clip-rule="evenodd" d="M7.53 45.41H28.65C30.59 45.41 32.18 47.25 32.18 49.51C32.18 51.77 30.59 53.61 28.65 53.61H7.53C5.59 53.61 4 51.77 4 49.51C4 47.25 5.59 45.41 7.53 45.41Z" fill="#2E4157"/>
<path fill-rule="evenodd" clip-rule="evenodd" d="M3.74 73.47H35.95C38.01 73.47 39.69 75.31 39.69 77.57C39.69 79.83 38.01 81.67 35.95 81.67H3.74C1.68 81.67 0 79.83 0 77.57C0 75.31 1.68 73.47 3.74 73.47Z" fill="#2E4157"/>
<path fill-rule="evenodd" clip-rule="evenodd" d="M85.46 109.58H113.67C115.73 109.58 117.41 111.42 117.41 113.68C117.41 115.94 115.73 117.78 113.67 117.78H85.46C83.4 117.78 81.72 115.94 81.72 113.68C81.72 111.42 83.4 109.58 85.46 109.58Z" fill="#2E4157"/>
<path fill-rule="evenodd" clip-rule="evenodd" d="M85.26 137.64H106.38C108.32 137.64 109.91 139.48 109.91 141.74C109.91 144 108.32 145.84 106.38 145.84H85.26C83.32 145.84 81.73 144 81.73 141.74C81.73 139.48 83.32 137.64 85.26 137.64Z" fill="#2E4157"/>
<path fill-rule="evenodd" clip-rule="evenodd" d="M85.46 165.7H113.67C115.73 165.7 117.41 167.54 117.41 169.8C117.41 172.06 115.73 173.9 113.67 173.9H85.46C83.4 173.9 81.72 172.06 81.72 169.8C81.72 167.54 83.4 165.7 85.46 165.7Z" fill="#2E4157"/>
<path d="M305.44 172.85C305.44 173.78 304.95 174.23 303.98 174.23H298.91C298.15 174.23 297.68 173.8 297.48 172.93C289.12 143.57 291.12 149.65 282.47 118.34C282.18 117.31 281.64 116.8 280.83 116.8C279.97 116.8 279.4 117.31 279.12 118.34C270.89 148.1 272.03 144.93 264.22 172.93C264.13 173.3 263.93 173.6 263.59 173.86C263.26 174.1 262.95 174.23 262.68 174.23H257.61C257.22 174.23 256.88 174.1 256.6 173.83C256.3 173.57 256.16 173.24 256.16 172.85C256.16 172.58 256.19 172.38 256.25 172.27L272.1 116.57C272.8 114.15 273.96 112.45 275.57 111.49C277.18 110.53 278.96 110.05 280.84 110.05C282.07 110.05 283.24 110.23 284.35 110.62C285.48 110.99 286.49 111.66 287.41 112.62C288.34 113.58 289.04 114.86 289.51 116.49L305.36 172.28C305.42 172.39 305.45 172.59 305.45 172.86" fill="#2E4157"/>
<path fill-rule="evenodd" clip-rule="evenodd" d="M276.07 146.51H285.52C287.09 146.51 288.38 148.03 288.38 149.89C288.38 151.75 287.09 153.27 285.52 153.27H276.07C274.5 153.27 273.21 151.75 273.21 149.89C273.21 148.03 274.5 146.51 276.07 146.51Z" fill="#2E4157"/>
<path d="M460 79.92C460 80.85 459.51 81.3 458.54 81.3H453.47C452.71 81.3 452.24 80.87 452.04 80C443.68 50.64 445.68 56.72 437.03 25.41C436.74 24.38 436.2 23.87 435.39 23.87C434.53 23.87 433.96 24.38 433.68 25.41C425.45 55.17 426.59 52 418.78 80C418.69 80.37 418.49 80.67 418.15 80.93C417.82 81.17 417.51 81.3 417.24 81.3H412.17C411.78 81.3 411.44 81.17 411.16 80.9C410.86 80.64 410.72 80.32 410.72 79.92C410.72 79.65 410.75 79.45 410.81 79.33L426.66 23.63C427.36 21.21 428.52 19.51 430.13 18.55C431.74 17.59 433.52 17.11 435.4 17.11C436.63 17.11 437.8 17.3 438.91 17.68C440.04 18.05 441.05 18.72 441.97 19.68C442.9 20.64 443.6 21.92 444.07 23.55L459.92 79.34C459.98 79.45 460.01 79.65 460.01 79.93" fill="#2E4157"/>
<path fill-rule="evenodd" clip-rule="evenodd" d="M430.63 53.57H440.08C441.65 53.57 442.94 55.09 442.94 56.95C442.94 58.81 441.65 60.33 440.08 60.33H430.63C429.06 60.33 427.77 58.81 427.77 56.95C427.77 55.09 429.06 53.57 430.63 53.57Z" fill="#2E4157"/>
<path d="M186.11 80.28C186.11 81.01 185.81 81.41 185.22 81.49C182.55 81.76 176.98 81.9 168.52 81.9C162.42 81.9 157.85 80.64 154.81 78.13C151.78 75.62 150.27 71.57 150.27 65.98V33.03C150.27 27.47 151.78 23.42 154.8 20.89C157.81 18.37 162.4 17.11 168.53 17.11C170.99 17.11 173.02 17.12 174.6 17.15C176.2 17.18 178.13 17.24 180.41 17.34C182.71 17.44 184.31 17.53 185.22 17.61C185.51 17.64 185.72 17.77 185.88 18.01C186.02 18.25 186.11 18.52 186.11 18.82V23.09C186.11 23.79 185.78 24.13 185.14 24.13H168.61C165.6 24.13 163.34 24.42 161.84 24.99C160.33 25.56 159.33 26.46 158.83 27.7C158.33 28.94 158.07 30.72 158.07 33.03V65.98C158.07 68.29 158.33 70.07 158.83 71.3C159.33 72.54 160.33 73.45 161.84 74.02C163.34 74.59 165.6 74.88 168.61 74.88H185.14C185.78 74.88 186.11 75.22 186.11 75.92V80.27V80.28Z" fill="#2E4157"/>
<path fill-rule="evenodd" clip-rule="evenodd" d="M163.02 46.13H176.4C177.97 46.13 179.26 47.65 179.26 49.51C179.26 51.37 177.97 52.89 176.4 52.89H163.02C161.45 52.89 160.16 51.37 160.16 49.51C160.16 47.65 161.45 46.13 163.02 46.13Z" fill="#2E4157"/>
<path d="M275.57 80.28C275.57 81.01 275.27 81.41 274.68 81.49C272.01 81.76 266.44 81.9 257.98 81.9C251.88 81.9 247.31 80.64 244.27 78.13C241.24 75.62 239.73 71.57 239.73 65.98V33.03C239.73 27.47 241.24 23.42 244.26 20.89C247.27 18.37 251.86 17.11 257.99 17.11C260.45 17.11 262.47 17.12 264.06 17.15C265.66 17.18 267.59 17.24 269.87 17.34C272.17 17.44 273.77 17.53 274.68 17.61C274.97 17.64 275.18 17.77 275.34 18.01C275.48 18.25 275.57 18.52 275.57 18.82V23.09C275.57 23.79 275.24 24.13 274.6 24.13H258.07C255.06 24.13 252.8 24.42 251.3 24.99C249.79 25.56 248.79 26.46 248.29 27.7C247.79 28.94 247.53 30.72 247.53 33.03V65.98C247.53 68.29 247.79 70.07 248.29 71.3C248.79 72.54 249.79 73.45 251.3 74.02C252.8 74.59 255.06 74.88 258.07 74.88H274.6C275.24 74.88 275.57 75.22 275.57 75.92V80.27V80.28Z" fill="#2E4157"/>
<path fill-rule="evenodd" clip-rule="evenodd" d="M252.48 46.13H265.86C267.43 46.13 268.72 47.65 268.72 49.51C268.72 51.37 267.43 52.89 265.86 52.89H252.48C250.91 52.89 249.62 51.37 249.62 49.51C249.62 47.65 250.91 46.13 252.48 46.13Z" fill="#2E4157"/>
<path d="M460 173.21C460 173.94 459.7 174.34 459.11 174.42C456.44 174.69 450.87 174.83 442.41 174.83C436.31 174.83 431.74 173.57 428.7 171.06C425.67 168.55 424.16 164.5 424.16 158.91V125.96C424.16 120.4 425.67 116.35 428.69 113.82C431.7 111.3 436.29 110.04 442.42 110.04C444.88 110.04 446.9 110.05 448.49 110.08C450.09 110.11 452.02 110.17 454.3 110.26C456.6 110.36 458.2 110.45 459.11 110.53C459.4 110.56 459.61 110.69 459.77 110.93C459.91 111.17 460 111.44 460 111.74V116.01C460 116.71 459.67 117.05 459.03 117.05H442.5C439.49 117.05 437.23 117.34 435.73 117.91C434.22 118.48 433.22 119.38 432.72 120.62C432.22 121.86 431.96 123.64 431.96 125.95V158.9C431.96 161.21 432.22 162.99 432.72 164.22C433.22 165.46 434.22 166.37 435.73 166.94C437.23 167.51 439.49 167.8 442.5 167.8H459.03C459.67 167.8 460 168.14 460 168.84V173.19V173.21Z" fill="#2E4157"/>
<path fill-rule="evenodd" clip-rule="evenodd" d="M436.91 139.06H450.29C451.86 139.06 453.15 140.58 453.15 142.44C453.15 144.3 451.86 145.82 450.29 145.82H436.91C435.34 145.82 434.05 144.3 434.05 142.44C434.05 140.58 435.34 139.06 436.91 139.06Z" fill="#2E4157"/>
</g>
<defs>
<clipPath id="clip0_5_2">
<rect width="460" height="220" fill="white"/>
</clipPath>
</defs>
</svg>
